%TF.GenerationSoftware,KiCad,Pcbnew,8.0.8*%
%TF.CreationDate,2025-02-03T18:13:04-07:00*%
%TF.ProjectId,Uno_Shield_ThermoPro,556e6f5f-5368-4696-956c-645f54686572,1.0*%
%TF.SameCoordinates,Original*%
%TF.FileFunction,Soldermask,Top*%
%TF.FilePolarity,Negative*%
%FSLAX46Y46*%
G04 Gerber Fmt 4.6, Leading zero omitted, Abs format (unit mm)*
G04 Created by KiCad (PCBNEW 8.0.8) date 2025-02-03 18:13:04*
%MOMM*%
%LPD*%
G01*
G04 APERTURE LIST*
G04 Aperture macros list*
%AMRoundRect*
0 Rectangle with rounded corners*
0 $1 Rounding radius*
0 $2 $3 $4 $5 $6 $7 $8 $9 X,Y pos of 4 corners*
0 Add a 4 corners polygon primitive as box body*
4,1,4,$2,$3,$4,$5,$6,$7,$8,$9,$2,$3,0*
0 Add four circle primitives for the rounded corners*
1,1,$1+$1,$2,$3*
1,1,$1+$1,$4,$5*
1,1,$1+$1,$6,$7*
1,1,$1+$1,$8,$9*
0 Add four rect primitives between the rounded corners*
20,1,$1+$1,$2,$3,$4,$5,0*
20,1,$1+$1,$4,$5,$6,$7,0*
20,1,$1+$1,$6,$7,$8,$9,0*
20,1,$1+$1,$8,$9,$2,$3,0*%
G04 Aperture macros list end*
%ADD10O,1.700000X1.700000*%
%ADD11R,1.700000X1.700000*%
%ADD12C,2.000000*%
%ADD13C,1.800000*%
%ADD14R,1.800000X1.800000*%
%ADD15O,1.600000X1.600000*%
%ADD16C,1.600000*%
%ADD17O,1.950000X1.700000*%
%ADD18RoundRect,0.250000X0.725000X-0.600000X0.725000X0.600000X-0.725000X0.600000X-0.725000X-0.600000X0*%
%ADD19C,1.440000*%
G04 APERTURE END LIST*
D10*
%TO.C,J1*%
X145720000Y-97460000D03*
X143180000Y-97460000D03*
X140640000Y-97460000D03*
X138100000Y-97460000D03*
X135560000Y-97460000D03*
X133020000Y-97460000D03*
X130480000Y-97460000D03*
D11*
X127940000Y-97460000D03*
%TD*%
D10*
%TO.C,J3*%
X163500000Y-97460000D03*
X160960000Y-97460000D03*
X158420000Y-97460000D03*
X155880000Y-97460000D03*
X153340000Y-97460000D03*
D11*
X150800000Y-97460000D03*
%TD*%
D10*
%TO.C,J2*%
X141656000Y-49200000D03*
X139116000Y-49200000D03*
X136576000Y-49200000D03*
X134036000Y-49200000D03*
X131496000Y-49200000D03*
X128956000Y-49200000D03*
X126416000Y-49200000D03*
X123876000Y-49200000D03*
X121336000Y-49200000D03*
D11*
X118796000Y-49200000D03*
%TD*%
D10*
%TO.C,J4*%
X163500000Y-49200000D03*
X160960000Y-49200000D03*
X158420000Y-49200000D03*
X155880000Y-49200000D03*
X153340000Y-49200000D03*
X150800000Y-49200000D03*
X148260000Y-49200000D03*
D11*
X145720000Y-49200000D03*
%TD*%
D12*
%TO.C,SW4*%
X152500000Y-91500000D03*
X146000000Y-91500000D03*
X152500000Y-87000000D03*
X146000000Y-87000000D03*
%TD*%
D13*
%TO.C,D1*%
X135500000Y-55460000D03*
D14*
X135500000Y-58000000D03*
%TD*%
D12*
%TO.C,SW5*%
X140750000Y-92250000D03*
X134250000Y-92250000D03*
X140750000Y-87750000D03*
X134250000Y-87750000D03*
%TD*%
%TO.C,SW2*%
X163750000Y-80250000D03*
X157250000Y-80250000D03*
X163750000Y-75750000D03*
X157250000Y-75750000D03*
%TD*%
D15*
%TO.C,R4*%
X143420000Y-68500000D03*
D16*
X153580000Y-68500000D03*
%TD*%
D15*
%TO.C,R1*%
X130340000Y-63500000D03*
D16*
X140500000Y-63500000D03*
%TD*%
D12*
%TO.C,SW3*%
X152000000Y-77500000D03*
X145500000Y-77500000D03*
X152000000Y-73000000D03*
X145500000Y-73000000D03*
%TD*%
D10*
%TO.C,J6*%
X118820000Y-68010000D03*
X116280000Y-68010000D03*
X113740000Y-68010000D03*
D11*
X111200000Y-68010000D03*
%TD*%
D12*
%TO.C,SW1*%
X166500000Y-68000000D03*
X160000000Y-68000000D03*
X166500000Y-63500000D03*
X160000000Y-63500000D03*
%TD*%
D15*
%TO.C,R5*%
X144420000Y-82500000D03*
D16*
X154580000Y-82500000D03*
%TD*%
D17*
%TO.C,J7*%
X146475000Y-56500000D03*
X146475000Y-59000000D03*
D18*
X146475000Y-61500000D03*
%TD*%
D15*
%TO.C,R2*%
X153920000Y-58500000D03*
D16*
X164080000Y-58500000D03*
%TD*%
D19*
%TO.C,RV1*%
X163500000Y-89000000D03*
X160960000Y-91540000D03*
X158420000Y-89000000D03*
%TD*%
D10*
%TO.C,J5*%
X120910000Y-62970000D03*
X118370000Y-62970000D03*
X115830000Y-62970000D03*
X113290000Y-62970000D03*
X110750000Y-62970000D03*
X108210000Y-62970000D03*
X105670000Y-62970000D03*
D11*
X103130000Y-62970000D03*
%TD*%
D15*
%TO.C,R6*%
X131420000Y-82500000D03*
D16*
X141580000Y-82500000D03*
%TD*%
D15*
%TO.C,R3*%
X156920000Y-72500000D03*
D16*
X167080000Y-72500000D03*
%TD*%
M02*
