M48
; DRILL file {KiCad 8.0.8} date 2025-02-03T18:13:15-0700
; FORMAT={-:-/ absolute / inch / decimal}
; #@! TF.CreationDate,2025-02-03T18:13:15-07:00
; #@! TF.GenerationSoftware,Kicad,Pcbnew,8.0.8
; #@! TF.FileFunction,Plated,1,2,PTH
FMAT,2
INCH
; #@! TA.AperFunction,Plated,PTH,ComponentDrill
T1C0.0315
; #@! TA.AperFunction,Plated,PTH,ComponentDrill
T2C0.0354
; #@! TA.AperFunction,Plated,PTH,ComponentDrill
T3C0.0374
; #@! TA.AperFunction,Plated,PTH,ComponentDrill
T4C0.0394
; #@! TA.AperFunction,Plated,PTH,ComponentDrill
T5C0.0433
%
G90
G05
T1
X5.1315Y-2.5
X5.174Y-3.248
X5.5315Y-2.5
X5.574Y-3.248
X5.6465Y-2.6969
X5.6858Y-3.248
X6.0465Y-2.6969
X6.0598Y-2.3031
X6.0858Y-3.248
X6.178Y-2.8543
X6.237Y-3.5039
X6.337Y-3.6039
X6.437Y-3.5039
X6.4598Y-2.3031
X6.578Y-2.8543
T2
X5.3346Y-2.1835
X5.3346Y-2.2835
T3
X5.7667Y-2.2244
X5.7667Y-2.3228
X5.7667Y-2.4213
T4
X4.0602Y-2.4791
X4.1602Y-2.4791
X4.2602Y-2.4791
X4.3602Y-2.4791
X4.378Y-2.6776
X4.4602Y-2.4791
X4.478Y-2.6776
X4.5602Y-2.4791
X4.578Y-2.6776
X4.6602Y-2.4791
X4.677Y-1.937
X4.678Y-2.6776
X4.7602Y-2.4791
X4.777Y-1.937
X4.877Y-1.937
X4.977Y-1.937
X5.037Y-3.837
X5.077Y-1.937
X5.137Y-3.837
X5.177Y-1.937
X5.237Y-3.837
X5.277Y-1.937
X5.337Y-3.837
X5.377Y-1.937
X5.437Y-3.837
X5.477Y-1.937
X5.537Y-3.837
X5.577Y-1.937
X5.637Y-3.837
X5.737Y-1.937
X5.737Y-3.837
X5.837Y-1.937
X5.937Y-1.937
X5.937Y-3.837
X6.037Y-1.937
X6.037Y-3.837
X6.137Y-1.937
X6.137Y-3.837
X6.237Y-1.937
X6.237Y-3.837
X6.337Y-1.937
X6.337Y-3.837
X6.437Y-1.937
X6.437Y-3.837
T5
X5.2854Y-3.4547
X5.2854Y-3.6319
X5.5413Y-3.4547
X5.5413Y-3.6319
X5.7283Y-2.874
X5.7283Y-3.0512
X5.748Y-3.4252
X5.748Y-3.6024
X5.9843Y-2.874
X5.9843Y-3.0512
X6.0039Y-3.4252
X6.0039Y-3.6024
X6.1909Y-2.9823
X6.1909Y-3.1594
X6.2992Y-2.5
X6.2992Y-2.6772
X6.4469Y-2.9823
X6.4469Y-3.1594
X6.5551Y-2.5
X6.5551Y-2.6772
M30
