%TF.GenerationSoftware,KiCad,Pcbnew,8.0.8*%
%TF.CreationDate,2025-02-03T18:13:04-07:00*%
%TF.ProjectId,Uno_Shield_ThermoPro,556e6f5f-5368-4696-956c-645f54686572,1.0*%
%TF.SameCoordinates,Original*%
%TF.FileFunction,Legend,Top*%
%TF.FilePolarity,Positive*%
%FSLAX46Y46*%
G04 Gerber Fmt 4.6, Leading zero omitted, Abs format (unit mm)*
G04 Created by KiCad (PCBNEW 8.0.8) date 2025-02-03 18:13:04*
%MOMM*%
%LPD*%
G01*
G04 APERTURE LIST*
%ADD10C,0.150000*%
%ADD11C,0.100000*%
%ADD12C,0.120000*%
%ADD13C,0.000000*%
G04 APERTURE END LIST*
D10*
X102000000Y-49090000D02*
X109500540Y-49090000D01*
X102000000Y-49090000D02*
X102000000Y-56000000D01*
X122000000Y-61045000D02*
X122000000Y-53545000D01*
D11*
X101350000Y-66500000D02*
X128650000Y-66500000D01*
X128650000Y-94300000D01*
X101350000Y-94300000D01*
X101350000Y-66500000D01*
D10*
X146812969Y-94369819D02*
X146336779Y-94369819D01*
X146336779Y-94369819D02*
X146336779Y-93369819D01*
X147289160Y-94369819D02*
X147193922Y-94322200D01*
X147193922Y-94322200D02*
X147146303Y-94274580D01*
X147146303Y-94274580D02*
X147098684Y-94179342D01*
X147098684Y-94179342D02*
X147098684Y-93893628D01*
X147098684Y-93893628D02*
X147146303Y-93798390D01*
X147146303Y-93798390D02*
X147193922Y-93750771D01*
X147193922Y-93750771D02*
X147289160Y-93703152D01*
X147289160Y-93703152D02*
X147432017Y-93703152D01*
X147432017Y-93703152D02*
X147527255Y-93750771D01*
X147527255Y-93750771D02*
X147574874Y-93798390D01*
X147574874Y-93798390D02*
X147622493Y-93893628D01*
X147622493Y-93893628D02*
X147622493Y-94179342D01*
X147622493Y-94179342D02*
X147574874Y-94274580D01*
X147574874Y-94274580D02*
X147527255Y-94322200D01*
X147527255Y-94322200D02*
X147432017Y-94369819D01*
X147432017Y-94369819D02*
X147289160Y-94369819D01*
X148479636Y-94322200D02*
X148384398Y-94369819D01*
X148384398Y-94369819D02*
X148193922Y-94369819D01*
X148193922Y-94369819D02*
X148098684Y-94322200D01*
X148098684Y-94322200D02*
X148051065Y-94274580D01*
X148051065Y-94274580D02*
X148003446Y-94179342D01*
X148003446Y-94179342D02*
X148003446Y-93893628D01*
X148003446Y-93893628D02*
X148051065Y-93798390D01*
X148051065Y-93798390D02*
X148098684Y-93750771D01*
X148098684Y-93750771D02*
X148193922Y-93703152D01*
X148193922Y-93703152D02*
X148384398Y-93703152D01*
X148384398Y-93703152D02*
X148479636Y-93750771D01*
X148908208Y-94369819D02*
X148908208Y-93369819D01*
X149003446Y-93988866D02*
X149289160Y-94369819D01*
X149289160Y-93703152D02*
X148908208Y-94084104D01*
X130812969Y-94869819D02*
X130336779Y-94869819D01*
X130336779Y-94869819D02*
X130336779Y-93869819D01*
X131146303Y-94869819D02*
X131146303Y-94203152D01*
X131146303Y-93869819D02*
X131098684Y-93917438D01*
X131098684Y-93917438D02*
X131146303Y-93965057D01*
X131146303Y-93965057D02*
X131193922Y-93917438D01*
X131193922Y-93917438D02*
X131146303Y-93869819D01*
X131146303Y-93869819D02*
X131146303Y-93965057D01*
X132051064Y-94203152D02*
X132051064Y-95012676D01*
X132051064Y-95012676D02*
X132003445Y-95107914D01*
X132003445Y-95107914D02*
X131955826Y-95155533D01*
X131955826Y-95155533D02*
X131860588Y-95203152D01*
X131860588Y-95203152D02*
X131717731Y-95203152D01*
X131717731Y-95203152D02*
X131622493Y-95155533D01*
X132051064Y-94822200D02*
X131955826Y-94869819D01*
X131955826Y-94869819D02*
X131765350Y-94869819D01*
X131765350Y-94869819D02*
X131670112Y-94822200D01*
X131670112Y-94822200D02*
X131622493Y-94774580D01*
X131622493Y-94774580D02*
X131574874Y-94679342D01*
X131574874Y-94679342D02*
X131574874Y-94393628D01*
X131574874Y-94393628D02*
X131622493Y-94298390D01*
X131622493Y-94298390D02*
X131670112Y-94250771D01*
X131670112Y-94250771D02*
X131765350Y-94203152D01*
X131765350Y-94203152D02*
X131955826Y-94203152D01*
X131955826Y-94203152D02*
X132051064Y-94250771D01*
X132527255Y-94869819D02*
X132527255Y-93869819D01*
X132955826Y-94869819D02*
X132955826Y-94346009D01*
X132955826Y-94346009D02*
X132908207Y-94250771D01*
X132908207Y-94250771D02*
X132812969Y-94203152D01*
X132812969Y-94203152D02*
X132670112Y-94203152D01*
X132670112Y-94203152D02*
X132574874Y-94250771D01*
X132574874Y-94250771D02*
X132527255Y-94298390D01*
X133289160Y-94203152D02*
X133670112Y-94203152D01*
X133432017Y-93869819D02*
X133432017Y-94726961D01*
X133432017Y-94726961D02*
X133479636Y-94822200D01*
X133479636Y-94822200D02*
X133574874Y-94869819D01*
X133574874Y-94869819D02*
X133670112Y-94869819D01*
X160836779Y-82369819D02*
X160836779Y-83179342D01*
X160836779Y-83179342D02*
X160884398Y-83274580D01*
X160884398Y-83274580D02*
X160932017Y-83322200D01*
X160932017Y-83322200D02*
X161027255Y-83369819D01*
X161027255Y-83369819D02*
X161217731Y-83369819D01*
X161217731Y-83369819D02*
X161312969Y-83322200D01*
X161312969Y-83322200D02*
X161360588Y-83274580D01*
X161360588Y-83274580D02*
X161408207Y-83179342D01*
X161408207Y-83179342D02*
X161408207Y-82369819D01*
X161884398Y-82703152D02*
X161884398Y-83369819D01*
X161884398Y-82798390D02*
X161932017Y-82750771D01*
X161932017Y-82750771D02*
X162027255Y-82703152D01*
X162027255Y-82703152D02*
X162170112Y-82703152D01*
X162170112Y-82703152D02*
X162265350Y-82750771D01*
X162265350Y-82750771D02*
X162312969Y-82846009D01*
X162312969Y-82846009D02*
X162312969Y-83369819D01*
X162789160Y-83369819D02*
X162789160Y-82703152D01*
X162789160Y-82369819D02*
X162741541Y-82417438D01*
X162741541Y-82417438D02*
X162789160Y-82465057D01*
X162789160Y-82465057D02*
X162836779Y-82417438D01*
X162836779Y-82417438D02*
X162789160Y-82369819D01*
X162789160Y-82369819D02*
X162789160Y-82465057D01*
X163122493Y-82703152D02*
X163503445Y-82703152D01*
X163265350Y-82369819D02*
X163265350Y-83226961D01*
X163265350Y-83226961D02*
X163312969Y-83322200D01*
X163312969Y-83322200D02*
X163408207Y-83369819D01*
X163408207Y-83369819D02*
X163503445Y-83369819D01*
X163789160Y-83322200D02*
X163884398Y-83369819D01*
X163884398Y-83369819D02*
X164074874Y-83369819D01*
X164074874Y-83369819D02*
X164170112Y-83322200D01*
X164170112Y-83322200D02*
X164217731Y-83226961D01*
X164217731Y-83226961D02*
X164217731Y-83179342D01*
X164217731Y-83179342D02*
X164170112Y-83084104D01*
X164170112Y-83084104D02*
X164074874Y-83036485D01*
X164074874Y-83036485D02*
X163932017Y-83036485D01*
X163932017Y-83036485D02*
X163836779Y-82988866D01*
X163836779Y-82988866D02*
X163789160Y-82893628D01*
X163789160Y-82893628D02*
X163789160Y-82846009D01*
X163789160Y-82846009D02*
X163836779Y-82750771D01*
X163836779Y-82750771D02*
X163932017Y-82703152D01*
X163932017Y-82703152D02*
X164074874Y-82703152D01*
X164074874Y-82703152D02*
X164170112Y-82750771D01*
X116027255Y-91869819D02*
X116217731Y-91869819D01*
X116217731Y-91869819D02*
X116312969Y-91917438D01*
X116312969Y-91917438D02*
X116408207Y-92012676D01*
X116408207Y-92012676D02*
X116455826Y-92203152D01*
X116455826Y-92203152D02*
X116455826Y-92536485D01*
X116455826Y-92536485D02*
X116408207Y-92726961D01*
X116408207Y-92726961D02*
X116312969Y-92822200D01*
X116312969Y-92822200D02*
X116217731Y-92869819D01*
X116217731Y-92869819D02*
X116027255Y-92869819D01*
X116027255Y-92869819D02*
X115932017Y-92822200D01*
X115932017Y-92822200D02*
X115836779Y-92726961D01*
X115836779Y-92726961D02*
X115789160Y-92536485D01*
X115789160Y-92536485D02*
X115789160Y-92203152D01*
X115789160Y-92203152D02*
X115836779Y-92012676D01*
X115836779Y-92012676D02*
X115932017Y-91917438D01*
X115932017Y-91917438D02*
X116027255Y-91869819D01*
X117360588Y-92869819D02*
X116884398Y-92869819D01*
X116884398Y-92869819D02*
X116884398Y-91869819D01*
X117693922Y-92346009D02*
X118027255Y-92346009D01*
X118170112Y-92869819D02*
X117693922Y-92869819D01*
X117693922Y-92869819D02*
X117693922Y-91869819D01*
X117693922Y-91869819D02*
X118170112Y-91869819D01*
X118598684Y-92869819D02*
X118598684Y-91869819D01*
X118598684Y-91869819D02*
X118836779Y-91869819D01*
X118836779Y-91869819D02*
X118979636Y-91917438D01*
X118979636Y-91917438D02*
X119074874Y-92012676D01*
X119074874Y-92012676D02*
X119122493Y-92107914D01*
X119122493Y-92107914D02*
X119170112Y-92298390D01*
X119170112Y-92298390D02*
X119170112Y-92441247D01*
X119170112Y-92441247D02*
X119122493Y-92631723D01*
X119122493Y-92631723D02*
X119074874Y-92726961D01*
X119074874Y-92726961D02*
X118979636Y-92822200D01*
X118979636Y-92822200D02*
X118836779Y-92869819D01*
X118836779Y-92869819D02*
X118598684Y-92869819D01*
X120217732Y-91869819D02*
X120789160Y-91869819D01*
X120503446Y-92869819D02*
X120503446Y-91869819D01*
X121122494Y-92346009D02*
X121455827Y-92346009D01*
X121598684Y-92869819D02*
X121122494Y-92869819D01*
X121122494Y-92869819D02*
X121122494Y-91869819D01*
X121122494Y-91869819D02*
X121598684Y-91869819D01*
X122027256Y-92869819D02*
X122027256Y-91869819D01*
X122027256Y-91869819D02*
X122360589Y-92584104D01*
X122360589Y-92584104D02*
X122693922Y-91869819D01*
X122693922Y-91869819D02*
X122693922Y-92869819D01*
X123170113Y-91869819D02*
X123170113Y-92679342D01*
X123170113Y-92679342D02*
X123217732Y-92774580D01*
X123217732Y-92774580D02*
X123265351Y-92822200D01*
X123265351Y-92822200D02*
X123360589Y-92869819D01*
X123360589Y-92869819D02*
X123551065Y-92869819D01*
X123551065Y-92869819D02*
X123646303Y-92822200D01*
X123646303Y-92822200D02*
X123693922Y-92774580D01*
X123693922Y-92774580D02*
X123741541Y-92679342D01*
X123741541Y-92679342D02*
X123741541Y-91869819D01*
X125170113Y-91869819D02*
X125265351Y-91869819D01*
X125265351Y-91869819D02*
X125360589Y-91917438D01*
X125360589Y-91917438D02*
X125408208Y-91965057D01*
X125408208Y-91965057D02*
X125455827Y-92060295D01*
X125455827Y-92060295D02*
X125503446Y-92250771D01*
X125503446Y-92250771D02*
X125503446Y-92488866D01*
X125503446Y-92488866D02*
X125455827Y-92679342D01*
X125455827Y-92679342D02*
X125408208Y-92774580D01*
X125408208Y-92774580D02*
X125360589Y-92822200D01*
X125360589Y-92822200D02*
X125265351Y-92869819D01*
X125265351Y-92869819D02*
X125170113Y-92869819D01*
X125170113Y-92869819D02*
X125074875Y-92822200D01*
X125074875Y-92822200D02*
X125027256Y-92774580D01*
X125027256Y-92774580D02*
X124979637Y-92679342D01*
X124979637Y-92679342D02*
X124932018Y-92488866D01*
X124932018Y-92488866D02*
X124932018Y-92250771D01*
X124932018Y-92250771D02*
X124979637Y-92060295D01*
X124979637Y-92060295D02*
X125027256Y-91965057D01*
X125027256Y-91965057D02*
X125074875Y-91917438D01*
X125074875Y-91917438D02*
X125170113Y-91869819D01*
X125979637Y-92869819D02*
X126170113Y-92869819D01*
X126170113Y-92869819D02*
X126265351Y-92822200D01*
X126265351Y-92822200D02*
X126312970Y-92774580D01*
X126312970Y-92774580D02*
X126408208Y-92631723D01*
X126408208Y-92631723D02*
X126455827Y-92441247D01*
X126455827Y-92441247D02*
X126455827Y-92060295D01*
X126455827Y-92060295D02*
X126408208Y-91965057D01*
X126408208Y-91965057D02*
X126360589Y-91917438D01*
X126360589Y-91917438D02*
X126265351Y-91869819D01*
X126265351Y-91869819D02*
X126074875Y-91869819D01*
X126074875Y-91869819D02*
X125979637Y-91917438D01*
X125979637Y-91917438D02*
X125932018Y-91965057D01*
X125932018Y-91965057D02*
X125884399Y-92060295D01*
X125884399Y-92060295D02*
X125884399Y-92298390D01*
X125884399Y-92298390D02*
X125932018Y-92393628D01*
X125932018Y-92393628D02*
X125979637Y-92441247D01*
X125979637Y-92441247D02*
X126074875Y-92488866D01*
X126074875Y-92488866D02*
X126265351Y-92488866D01*
X126265351Y-92488866D02*
X126360589Y-92441247D01*
X126360589Y-92441247D02*
X126408208Y-92393628D01*
X126408208Y-92393628D02*
X126455827Y-92298390D01*
X127312970Y-91869819D02*
X127122494Y-91869819D01*
X127122494Y-91869819D02*
X127027256Y-91917438D01*
X127027256Y-91917438D02*
X126979637Y-91965057D01*
X126979637Y-91965057D02*
X126884399Y-92107914D01*
X126884399Y-92107914D02*
X126836780Y-92298390D01*
X126836780Y-92298390D02*
X126836780Y-92679342D01*
X126836780Y-92679342D02*
X126884399Y-92774580D01*
X126884399Y-92774580D02*
X126932018Y-92822200D01*
X126932018Y-92822200D02*
X127027256Y-92869819D01*
X127027256Y-92869819D02*
X127217732Y-92869819D01*
X127217732Y-92869819D02*
X127312970Y-92822200D01*
X127312970Y-92822200D02*
X127360589Y-92774580D01*
X127360589Y-92774580D02*
X127408208Y-92679342D01*
X127408208Y-92679342D02*
X127408208Y-92441247D01*
X127408208Y-92441247D02*
X127360589Y-92346009D01*
X127360589Y-92346009D02*
X127312970Y-92298390D01*
X127312970Y-92298390D02*
X127217732Y-92250771D01*
X127217732Y-92250771D02*
X127027256Y-92250771D01*
X127027256Y-92250771D02*
X126932018Y-92298390D01*
X126932018Y-92298390D02*
X126884399Y-92346009D01*
X126884399Y-92346009D02*
X126836780Y-92441247D01*
X137908207Y-72774580D02*
X137860588Y-72822200D01*
X137860588Y-72822200D02*
X137717731Y-72869819D01*
X137717731Y-72869819D02*
X137622493Y-72869819D01*
X137622493Y-72869819D02*
X137479636Y-72822200D01*
X137479636Y-72822200D02*
X137384398Y-72726961D01*
X137384398Y-72726961D02*
X137336779Y-72631723D01*
X137336779Y-72631723D02*
X137289160Y-72441247D01*
X137289160Y-72441247D02*
X137289160Y-72298390D01*
X137289160Y-72298390D02*
X137336779Y-72107914D01*
X137336779Y-72107914D02*
X137384398Y-72012676D01*
X137384398Y-72012676D02*
X137479636Y-71917438D01*
X137479636Y-71917438D02*
X137622493Y-71869819D01*
X137622493Y-71869819D02*
X137717731Y-71869819D01*
X137717731Y-71869819D02*
X137860588Y-71917438D01*
X137860588Y-71917438D02*
X137908207Y-71965057D01*
X138765350Y-72869819D02*
X138765350Y-72346009D01*
X138765350Y-72346009D02*
X138717731Y-72250771D01*
X138717731Y-72250771D02*
X138622493Y-72203152D01*
X138622493Y-72203152D02*
X138432017Y-72203152D01*
X138432017Y-72203152D02*
X138336779Y-72250771D01*
X138765350Y-72822200D02*
X138670112Y-72869819D01*
X138670112Y-72869819D02*
X138432017Y-72869819D01*
X138432017Y-72869819D02*
X138336779Y-72822200D01*
X138336779Y-72822200D02*
X138289160Y-72726961D01*
X138289160Y-72726961D02*
X138289160Y-72631723D01*
X138289160Y-72631723D02*
X138336779Y-72536485D01*
X138336779Y-72536485D02*
X138432017Y-72488866D01*
X138432017Y-72488866D02*
X138670112Y-72488866D01*
X138670112Y-72488866D02*
X138765350Y-72441247D01*
X139384398Y-72869819D02*
X139289160Y-72822200D01*
X139289160Y-72822200D02*
X139241541Y-72726961D01*
X139241541Y-72726961D02*
X139241541Y-71869819D01*
X139765351Y-72869819D02*
X139765351Y-72203152D01*
X139765351Y-71869819D02*
X139717732Y-71917438D01*
X139717732Y-71917438D02*
X139765351Y-71965057D01*
X139765351Y-71965057D02*
X139812970Y-71917438D01*
X139812970Y-71917438D02*
X139765351Y-71869819D01*
X139765351Y-71869819D02*
X139765351Y-71965057D01*
X140241541Y-72869819D02*
X140241541Y-71869819D01*
X140241541Y-72250771D02*
X140336779Y-72203152D01*
X140336779Y-72203152D02*
X140527255Y-72203152D01*
X140527255Y-72203152D02*
X140622493Y-72250771D01*
X140622493Y-72250771D02*
X140670112Y-72298390D01*
X140670112Y-72298390D02*
X140717731Y-72393628D01*
X140717731Y-72393628D02*
X140717731Y-72679342D01*
X140717731Y-72679342D02*
X140670112Y-72774580D01*
X140670112Y-72774580D02*
X140622493Y-72822200D01*
X140622493Y-72822200D02*
X140527255Y-72869819D01*
X140527255Y-72869819D02*
X140336779Y-72869819D01*
X140336779Y-72869819D02*
X140241541Y-72822200D01*
X141146303Y-72869819D02*
X141146303Y-72203152D01*
X141146303Y-72393628D02*
X141193922Y-72298390D01*
X141193922Y-72298390D02*
X141241541Y-72250771D01*
X141241541Y-72250771D02*
X141336779Y-72203152D01*
X141336779Y-72203152D02*
X141432017Y-72203152D01*
X142193922Y-72869819D02*
X142193922Y-72346009D01*
X142193922Y-72346009D02*
X142146303Y-72250771D01*
X142146303Y-72250771D02*
X142051065Y-72203152D01*
X142051065Y-72203152D02*
X141860589Y-72203152D01*
X141860589Y-72203152D02*
X141765351Y-72250771D01*
X142193922Y-72822200D02*
X142098684Y-72869819D01*
X142098684Y-72869819D02*
X141860589Y-72869819D01*
X141860589Y-72869819D02*
X141765351Y-72822200D01*
X141765351Y-72822200D02*
X141717732Y-72726961D01*
X141717732Y-72726961D02*
X141717732Y-72631723D01*
X141717732Y-72631723D02*
X141765351Y-72536485D01*
X141765351Y-72536485D02*
X141860589Y-72488866D01*
X141860589Y-72488866D02*
X142098684Y-72488866D01*
X142098684Y-72488866D02*
X142193922Y-72441247D01*
X142527256Y-72203152D02*
X142908208Y-72203152D01*
X142670113Y-71869819D02*
X142670113Y-72726961D01*
X142670113Y-72726961D02*
X142717732Y-72822200D01*
X142717732Y-72822200D02*
X142812970Y-72869819D01*
X142812970Y-72869819D02*
X142908208Y-72869819D01*
X143622494Y-72822200D02*
X143527256Y-72869819D01*
X143527256Y-72869819D02*
X143336780Y-72869819D01*
X143336780Y-72869819D02*
X143241542Y-72822200D01*
X143241542Y-72822200D02*
X143193923Y-72726961D01*
X143193923Y-72726961D02*
X143193923Y-72346009D01*
X143193923Y-72346009D02*
X143241542Y-72250771D01*
X143241542Y-72250771D02*
X143336780Y-72203152D01*
X143336780Y-72203152D02*
X143527256Y-72203152D01*
X143527256Y-72203152D02*
X143622494Y-72250771D01*
X143622494Y-72250771D02*
X143670113Y-72346009D01*
X143670113Y-72346009D02*
X143670113Y-72441247D01*
X143670113Y-72441247D02*
X143193923Y-72536485D01*
X103336779Y-51369819D02*
X103336779Y-50369819D01*
X103336779Y-50369819D02*
X103670112Y-51084104D01*
X103670112Y-51084104D02*
X104003445Y-50369819D01*
X104003445Y-50369819D02*
X104003445Y-51369819D01*
X104479636Y-51369819D02*
X104479636Y-50369819D01*
X104479636Y-50369819D02*
X104860588Y-50369819D01*
X104860588Y-50369819D02*
X104955826Y-50417438D01*
X104955826Y-50417438D02*
X105003445Y-50465057D01*
X105003445Y-50465057D02*
X105051064Y-50560295D01*
X105051064Y-50560295D02*
X105051064Y-50703152D01*
X105051064Y-50703152D02*
X105003445Y-50798390D01*
X105003445Y-50798390D02*
X104955826Y-50846009D01*
X104955826Y-50846009D02*
X104860588Y-50893628D01*
X104860588Y-50893628D02*
X104479636Y-50893628D01*
X105479636Y-50369819D02*
X105479636Y-51179342D01*
X105479636Y-51179342D02*
X105527255Y-51274580D01*
X105527255Y-51274580D02*
X105574874Y-51322200D01*
X105574874Y-51322200D02*
X105670112Y-51369819D01*
X105670112Y-51369819D02*
X105860588Y-51369819D01*
X105860588Y-51369819D02*
X105955826Y-51322200D01*
X105955826Y-51322200D02*
X106003445Y-51274580D01*
X106003445Y-51274580D02*
X106051064Y-51179342D01*
X106051064Y-51179342D02*
X106051064Y-50369819D01*
X107717731Y-50369819D02*
X107527255Y-50369819D01*
X107527255Y-50369819D02*
X107432017Y-50417438D01*
X107432017Y-50417438D02*
X107384398Y-50465057D01*
X107384398Y-50465057D02*
X107289160Y-50607914D01*
X107289160Y-50607914D02*
X107241541Y-50798390D01*
X107241541Y-50798390D02*
X107241541Y-51179342D01*
X107241541Y-51179342D02*
X107289160Y-51274580D01*
X107289160Y-51274580D02*
X107336779Y-51322200D01*
X107336779Y-51322200D02*
X107432017Y-51369819D01*
X107432017Y-51369819D02*
X107622493Y-51369819D01*
X107622493Y-51369819D02*
X107717731Y-51322200D01*
X107717731Y-51322200D02*
X107765350Y-51274580D01*
X107765350Y-51274580D02*
X107812969Y-51179342D01*
X107812969Y-51179342D02*
X107812969Y-50941247D01*
X107812969Y-50941247D02*
X107765350Y-50846009D01*
X107765350Y-50846009D02*
X107717731Y-50798390D01*
X107717731Y-50798390D02*
X107622493Y-50750771D01*
X107622493Y-50750771D02*
X107432017Y-50750771D01*
X107432017Y-50750771D02*
X107336779Y-50798390D01*
X107336779Y-50798390D02*
X107289160Y-50846009D01*
X107289160Y-50846009D02*
X107241541Y-50941247D01*
X108432017Y-50369819D02*
X108527255Y-50369819D01*
X108527255Y-50369819D02*
X108622493Y-50417438D01*
X108622493Y-50417438D02*
X108670112Y-50465057D01*
X108670112Y-50465057D02*
X108717731Y-50560295D01*
X108717731Y-50560295D02*
X108765350Y-50750771D01*
X108765350Y-50750771D02*
X108765350Y-50988866D01*
X108765350Y-50988866D02*
X108717731Y-51179342D01*
X108717731Y-51179342D02*
X108670112Y-51274580D01*
X108670112Y-51274580D02*
X108622493Y-51322200D01*
X108622493Y-51322200D02*
X108527255Y-51369819D01*
X108527255Y-51369819D02*
X108432017Y-51369819D01*
X108432017Y-51369819D02*
X108336779Y-51322200D01*
X108336779Y-51322200D02*
X108289160Y-51274580D01*
X108289160Y-51274580D02*
X108241541Y-51179342D01*
X108241541Y-51179342D02*
X108193922Y-50988866D01*
X108193922Y-50988866D02*
X108193922Y-50750771D01*
X108193922Y-50750771D02*
X108241541Y-50560295D01*
X108241541Y-50560295D02*
X108289160Y-50465057D01*
X108289160Y-50465057D02*
X108336779Y-50417438D01*
X108336779Y-50417438D02*
X108432017Y-50369819D01*
X109670112Y-50369819D02*
X109193922Y-50369819D01*
X109193922Y-50369819D02*
X109146303Y-50846009D01*
X109146303Y-50846009D02*
X109193922Y-50798390D01*
X109193922Y-50798390D02*
X109289160Y-50750771D01*
X109289160Y-50750771D02*
X109527255Y-50750771D01*
X109527255Y-50750771D02*
X109622493Y-50798390D01*
X109622493Y-50798390D02*
X109670112Y-50846009D01*
X109670112Y-50846009D02*
X109717731Y-50941247D01*
X109717731Y-50941247D02*
X109717731Y-51179342D01*
X109717731Y-51179342D02*
X109670112Y-51274580D01*
X109670112Y-51274580D02*
X109622493Y-51322200D01*
X109622493Y-51322200D02*
X109527255Y-51369819D01*
X109527255Y-51369819D02*
X109289160Y-51369819D01*
X109289160Y-51369819D02*
X109193922Y-51322200D01*
X109193922Y-51322200D02*
X109146303Y-51274580D01*
X110336779Y-50369819D02*
X110432017Y-50369819D01*
X110432017Y-50369819D02*
X110527255Y-50417438D01*
X110527255Y-50417438D02*
X110574874Y-50465057D01*
X110574874Y-50465057D02*
X110622493Y-50560295D01*
X110622493Y-50560295D02*
X110670112Y-50750771D01*
X110670112Y-50750771D02*
X110670112Y-50988866D01*
X110670112Y-50988866D02*
X110622493Y-51179342D01*
X110622493Y-51179342D02*
X110574874Y-51274580D01*
X110574874Y-51274580D02*
X110527255Y-51322200D01*
X110527255Y-51322200D02*
X110432017Y-51369819D01*
X110432017Y-51369819D02*
X110336779Y-51369819D01*
X110336779Y-51369819D02*
X110241541Y-51322200D01*
X110241541Y-51322200D02*
X110193922Y-51274580D01*
X110193922Y-51274580D02*
X110146303Y-51179342D01*
X110146303Y-51179342D02*
X110098684Y-50988866D01*
X110098684Y-50988866D02*
X110098684Y-50750771D01*
X110098684Y-50750771D02*
X110146303Y-50560295D01*
X110146303Y-50560295D02*
X110193922Y-50465057D01*
X110193922Y-50465057D02*
X110241541Y-50417438D01*
X110241541Y-50417438D02*
X110336779Y-50369819D01*
X158027255Y-60369819D02*
X158217731Y-60369819D01*
X158217731Y-60369819D02*
X158312969Y-60417438D01*
X158312969Y-60417438D02*
X158408207Y-60512676D01*
X158408207Y-60512676D02*
X158455826Y-60703152D01*
X158455826Y-60703152D02*
X158455826Y-61036485D01*
X158455826Y-61036485D02*
X158408207Y-61226961D01*
X158408207Y-61226961D02*
X158312969Y-61322200D01*
X158312969Y-61322200D02*
X158217731Y-61369819D01*
X158217731Y-61369819D02*
X158027255Y-61369819D01*
X158027255Y-61369819D02*
X157932017Y-61322200D01*
X157932017Y-61322200D02*
X157836779Y-61226961D01*
X157836779Y-61226961D02*
X157789160Y-61036485D01*
X157789160Y-61036485D02*
X157789160Y-60703152D01*
X157789160Y-60703152D02*
X157836779Y-60512676D01*
X157836779Y-60512676D02*
X157932017Y-60417438D01*
X157932017Y-60417438D02*
X158027255Y-60369819D01*
X158884398Y-61369819D02*
X158884398Y-60369819D01*
X158884398Y-60369819D02*
X159455826Y-61369819D01*
X159455826Y-61369819D02*
X159455826Y-60369819D01*
X160646302Y-60322200D02*
X159789160Y-61607914D01*
X161170112Y-60369819D02*
X161360588Y-60369819D01*
X161360588Y-60369819D02*
X161455826Y-60417438D01*
X161455826Y-60417438D02*
X161551064Y-60512676D01*
X161551064Y-60512676D02*
X161598683Y-60703152D01*
X161598683Y-60703152D02*
X161598683Y-61036485D01*
X161598683Y-61036485D02*
X161551064Y-61226961D01*
X161551064Y-61226961D02*
X161455826Y-61322200D01*
X161455826Y-61322200D02*
X161360588Y-61369819D01*
X161360588Y-61369819D02*
X161170112Y-61369819D01*
X161170112Y-61369819D02*
X161074874Y-61322200D01*
X161074874Y-61322200D02*
X160979636Y-61226961D01*
X160979636Y-61226961D02*
X160932017Y-61036485D01*
X160932017Y-61036485D02*
X160932017Y-60703152D01*
X160932017Y-60703152D02*
X160979636Y-60512676D01*
X160979636Y-60512676D02*
X161074874Y-60417438D01*
X161074874Y-60417438D02*
X161170112Y-60369819D01*
X162360588Y-60846009D02*
X162027255Y-60846009D01*
X162027255Y-61369819D02*
X162027255Y-60369819D01*
X162027255Y-60369819D02*
X162503445Y-60369819D01*
X163217731Y-60846009D02*
X162884398Y-60846009D01*
X162884398Y-61369819D02*
X162884398Y-60369819D01*
X162884398Y-60369819D02*
X163360588Y-60369819D01*
X124624819Y-97793333D02*
X125339104Y-97793333D01*
X125339104Y-97793333D02*
X125481961Y-97840952D01*
X125481961Y-97840952D02*
X125577200Y-97936190D01*
X125577200Y-97936190D02*
X125624819Y-98079047D01*
X125624819Y-98079047D02*
X125624819Y-98174285D01*
X125624819Y-96793333D02*
X125624819Y-97364761D01*
X125624819Y-97079047D02*
X124624819Y-97079047D01*
X124624819Y-97079047D02*
X124767676Y-97174285D01*
X124767676Y-97174285D02*
X124862914Y-97269523D01*
X124862914Y-97269523D02*
X124910533Y-97364761D01*
X166026666Y-95934819D02*
X166026666Y-96649104D01*
X166026666Y-96649104D02*
X165979047Y-96791961D01*
X165979047Y-96791961D02*
X165883809Y-96887200D01*
X165883809Y-96887200D02*
X165740952Y-96934819D01*
X165740952Y-96934819D02*
X165645714Y-96934819D01*
X166407619Y-95934819D02*
X167026666Y-95934819D01*
X167026666Y-95934819D02*
X166693333Y-96315771D01*
X166693333Y-96315771D02*
X166836190Y-96315771D01*
X166836190Y-96315771D02*
X166931428Y-96363390D01*
X166931428Y-96363390D02*
X166979047Y-96411009D01*
X166979047Y-96411009D02*
X167026666Y-96506247D01*
X167026666Y-96506247D02*
X167026666Y-96744342D01*
X167026666Y-96744342D02*
X166979047Y-96839580D01*
X166979047Y-96839580D02*
X166931428Y-96887200D01*
X166931428Y-96887200D02*
X166836190Y-96934819D01*
X166836190Y-96934819D02*
X166550476Y-96934819D01*
X166550476Y-96934819D02*
X166455238Y-96887200D01*
X166455238Y-96887200D02*
X166407619Y-96839580D01*
X115480819Y-49533333D02*
X116195104Y-49533333D01*
X116195104Y-49533333D02*
X116337961Y-49580952D01*
X116337961Y-49580952D02*
X116433200Y-49676190D01*
X116433200Y-49676190D02*
X116480819Y-49819047D01*
X116480819Y-49819047D02*
X116480819Y-49914285D01*
X115576057Y-49104761D02*
X115528438Y-49057142D01*
X115528438Y-49057142D02*
X115480819Y-48961904D01*
X115480819Y-48961904D02*
X115480819Y-48723809D01*
X115480819Y-48723809D02*
X115528438Y-48628571D01*
X115528438Y-48628571D02*
X115576057Y-48580952D01*
X115576057Y-48580952D02*
X115671295Y-48533333D01*
X115671295Y-48533333D02*
X115766533Y-48533333D01*
X115766533Y-48533333D02*
X115909390Y-48580952D01*
X115909390Y-48580952D02*
X116480819Y-49152380D01*
X116480819Y-49152380D02*
X116480819Y-48533333D01*
X164386666Y-51484819D02*
X164386666Y-52199104D01*
X164386666Y-52199104D02*
X164339047Y-52341961D01*
X164339047Y-52341961D02*
X164243809Y-52437200D01*
X164243809Y-52437200D02*
X164100952Y-52484819D01*
X164100952Y-52484819D02*
X164005714Y-52484819D01*
X165291428Y-51818152D02*
X165291428Y-52484819D01*
X165053333Y-51437200D02*
X164815238Y-52151485D01*
X164815238Y-52151485D02*
X165434285Y-52151485D01*
X147916667Y-89657200D02*
X148059524Y-89704819D01*
X148059524Y-89704819D02*
X148297619Y-89704819D01*
X148297619Y-89704819D02*
X148392857Y-89657200D01*
X148392857Y-89657200D02*
X148440476Y-89609580D01*
X148440476Y-89609580D02*
X148488095Y-89514342D01*
X148488095Y-89514342D02*
X148488095Y-89419104D01*
X148488095Y-89419104D02*
X148440476Y-89323866D01*
X148440476Y-89323866D02*
X148392857Y-89276247D01*
X148392857Y-89276247D02*
X148297619Y-89228628D01*
X148297619Y-89228628D02*
X148107143Y-89181009D01*
X148107143Y-89181009D02*
X148011905Y-89133390D01*
X148011905Y-89133390D02*
X147964286Y-89085771D01*
X147964286Y-89085771D02*
X147916667Y-88990533D01*
X147916667Y-88990533D02*
X147916667Y-88895295D01*
X147916667Y-88895295D02*
X147964286Y-88800057D01*
X147964286Y-88800057D02*
X148011905Y-88752438D01*
X148011905Y-88752438D02*
X148107143Y-88704819D01*
X148107143Y-88704819D02*
X148345238Y-88704819D01*
X148345238Y-88704819D02*
X148488095Y-88752438D01*
X148821429Y-88704819D02*
X149059524Y-89704819D01*
X149059524Y-89704819D02*
X149250000Y-88990533D01*
X149250000Y-88990533D02*
X149440476Y-89704819D01*
X149440476Y-89704819D02*
X149678572Y-88704819D01*
X150488095Y-89038152D02*
X150488095Y-89704819D01*
X150250000Y-88657200D02*
X150011905Y-89371485D01*
X150011905Y-89371485D02*
X150630952Y-89371485D01*
X137831905Y-54404819D02*
X137831905Y-53404819D01*
X137831905Y-53404819D02*
X138070000Y-53404819D01*
X138070000Y-53404819D02*
X138212857Y-53452438D01*
X138212857Y-53452438D02*
X138308095Y-53547676D01*
X138308095Y-53547676D02*
X138355714Y-53642914D01*
X138355714Y-53642914D02*
X138403333Y-53833390D01*
X138403333Y-53833390D02*
X138403333Y-53976247D01*
X138403333Y-53976247D02*
X138355714Y-54166723D01*
X138355714Y-54166723D02*
X138308095Y-54261961D01*
X138308095Y-54261961D02*
X138212857Y-54357200D01*
X138212857Y-54357200D02*
X138070000Y-54404819D01*
X138070000Y-54404819D02*
X137831905Y-54404819D01*
X139355714Y-54404819D02*
X138784286Y-54404819D01*
X139070000Y-54404819D02*
X139070000Y-53404819D01*
X139070000Y-53404819D02*
X138974762Y-53547676D01*
X138974762Y-53547676D02*
X138879524Y-53642914D01*
X138879524Y-53642914D02*
X138784286Y-53690533D01*
X136166667Y-90407200D02*
X136309524Y-90454819D01*
X136309524Y-90454819D02*
X136547619Y-90454819D01*
X136547619Y-90454819D02*
X136642857Y-90407200D01*
X136642857Y-90407200D02*
X136690476Y-90359580D01*
X136690476Y-90359580D02*
X136738095Y-90264342D01*
X136738095Y-90264342D02*
X136738095Y-90169104D01*
X136738095Y-90169104D02*
X136690476Y-90073866D01*
X136690476Y-90073866D02*
X136642857Y-90026247D01*
X136642857Y-90026247D02*
X136547619Y-89978628D01*
X136547619Y-89978628D02*
X136357143Y-89931009D01*
X136357143Y-89931009D02*
X136261905Y-89883390D01*
X136261905Y-89883390D02*
X136214286Y-89835771D01*
X136214286Y-89835771D02*
X136166667Y-89740533D01*
X136166667Y-89740533D02*
X136166667Y-89645295D01*
X136166667Y-89645295D02*
X136214286Y-89550057D01*
X136214286Y-89550057D02*
X136261905Y-89502438D01*
X136261905Y-89502438D02*
X136357143Y-89454819D01*
X136357143Y-89454819D02*
X136595238Y-89454819D01*
X136595238Y-89454819D02*
X136738095Y-89502438D01*
X137071429Y-89454819D02*
X137309524Y-90454819D01*
X137309524Y-90454819D02*
X137500000Y-89740533D01*
X137500000Y-89740533D02*
X137690476Y-90454819D01*
X137690476Y-90454819D02*
X137928572Y-89454819D01*
X138785714Y-89454819D02*
X138309524Y-89454819D01*
X138309524Y-89454819D02*
X138261905Y-89931009D01*
X138261905Y-89931009D02*
X138309524Y-89883390D01*
X138309524Y-89883390D02*
X138404762Y-89835771D01*
X138404762Y-89835771D02*
X138642857Y-89835771D01*
X138642857Y-89835771D02*
X138738095Y-89883390D01*
X138738095Y-89883390D02*
X138785714Y-89931009D01*
X138785714Y-89931009D02*
X138833333Y-90026247D01*
X138833333Y-90026247D02*
X138833333Y-90264342D01*
X138833333Y-90264342D02*
X138785714Y-90359580D01*
X138785714Y-90359580D02*
X138738095Y-90407200D01*
X138738095Y-90407200D02*
X138642857Y-90454819D01*
X138642857Y-90454819D02*
X138404762Y-90454819D01*
X138404762Y-90454819D02*
X138309524Y-90407200D01*
X138309524Y-90407200D02*
X138261905Y-90359580D01*
X159166667Y-78407200D02*
X159309524Y-78454819D01*
X159309524Y-78454819D02*
X159547619Y-78454819D01*
X159547619Y-78454819D02*
X159642857Y-78407200D01*
X159642857Y-78407200D02*
X159690476Y-78359580D01*
X159690476Y-78359580D02*
X159738095Y-78264342D01*
X159738095Y-78264342D02*
X159738095Y-78169104D01*
X159738095Y-78169104D02*
X159690476Y-78073866D01*
X159690476Y-78073866D02*
X159642857Y-78026247D01*
X159642857Y-78026247D02*
X159547619Y-77978628D01*
X159547619Y-77978628D02*
X159357143Y-77931009D01*
X159357143Y-77931009D02*
X159261905Y-77883390D01*
X159261905Y-77883390D02*
X159214286Y-77835771D01*
X159214286Y-77835771D02*
X159166667Y-77740533D01*
X159166667Y-77740533D02*
X159166667Y-77645295D01*
X159166667Y-77645295D02*
X159214286Y-77550057D01*
X159214286Y-77550057D02*
X159261905Y-77502438D01*
X159261905Y-77502438D02*
X159357143Y-77454819D01*
X159357143Y-77454819D02*
X159595238Y-77454819D01*
X159595238Y-77454819D02*
X159738095Y-77502438D01*
X160071429Y-77454819D02*
X160309524Y-78454819D01*
X160309524Y-78454819D02*
X160500000Y-77740533D01*
X160500000Y-77740533D02*
X160690476Y-78454819D01*
X160690476Y-78454819D02*
X160928572Y-77454819D01*
X161261905Y-77550057D02*
X161309524Y-77502438D01*
X161309524Y-77502438D02*
X161404762Y-77454819D01*
X161404762Y-77454819D02*
X161642857Y-77454819D01*
X161642857Y-77454819D02*
X161738095Y-77502438D01*
X161738095Y-77502438D02*
X161785714Y-77550057D01*
X161785714Y-77550057D02*
X161833333Y-77645295D01*
X161833333Y-77645295D02*
X161833333Y-77740533D01*
X161833333Y-77740533D02*
X161785714Y-77883390D01*
X161785714Y-77883390D02*
X161214286Y-78454819D01*
X161214286Y-78454819D02*
X161833333Y-78454819D01*
X148403333Y-68944819D02*
X148070000Y-68468628D01*
X147831905Y-68944819D02*
X147831905Y-67944819D01*
X147831905Y-67944819D02*
X148212857Y-67944819D01*
X148212857Y-67944819D02*
X148308095Y-67992438D01*
X148308095Y-67992438D02*
X148355714Y-68040057D01*
X148355714Y-68040057D02*
X148403333Y-68135295D01*
X148403333Y-68135295D02*
X148403333Y-68278152D01*
X148403333Y-68278152D02*
X148355714Y-68373390D01*
X148355714Y-68373390D02*
X148308095Y-68421009D01*
X148308095Y-68421009D02*
X148212857Y-68468628D01*
X148212857Y-68468628D02*
X147831905Y-68468628D01*
X149260476Y-68278152D02*
X149260476Y-68944819D01*
X149022381Y-67897200D02*
X148784286Y-68611485D01*
X148784286Y-68611485D02*
X149403333Y-68611485D01*
X135213333Y-63924819D02*
X134880000Y-63448628D01*
X134641905Y-63924819D02*
X134641905Y-62924819D01*
X134641905Y-62924819D02*
X135022857Y-62924819D01*
X135022857Y-62924819D02*
X135118095Y-62972438D01*
X135118095Y-62972438D02*
X135165714Y-63020057D01*
X135165714Y-63020057D02*
X135213333Y-63115295D01*
X135213333Y-63115295D02*
X135213333Y-63258152D01*
X135213333Y-63258152D02*
X135165714Y-63353390D01*
X135165714Y-63353390D02*
X135118095Y-63401009D01*
X135118095Y-63401009D02*
X135022857Y-63448628D01*
X135022857Y-63448628D02*
X134641905Y-63448628D01*
X136165714Y-63924819D02*
X135594286Y-63924819D01*
X135880000Y-63924819D02*
X135880000Y-62924819D01*
X135880000Y-62924819D02*
X135784762Y-63067676D01*
X135784762Y-63067676D02*
X135689524Y-63162914D01*
X135689524Y-63162914D02*
X135594286Y-63210533D01*
X147416667Y-75657200D02*
X147559524Y-75704819D01*
X147559524Y-75704819D02*
X147797619Y-75704819D01*
X147797619Y-75704819D02*
X147892857Y-75657200D01*
X147892857Y-75657200D02*
X147940476Y-75609580D01*
X147940476Y-75609580D02*
X147988095Y-75514342D01*
X147988095Y-75514342D02*
X147988095Y-75419104D01*
X147988095Y-75419104D02*
X147940476Y-75323866D01*
X147940476Y-75323866D02*
X147892857Y-75276247D01*
X147892857Y-75276247D02*
X147797619Y-75228628D01*
X147797619Y-75228628D02*
X147607143Y-75181009D01*
X147607143Y-75181009D02*
X147511905Y-75133390D01*
X147511905Y-75133390D02*
X147464286Y-75085771D01*
X147464286Y-75085771D02*
X147416667Y-74990533D01*
X147416667Y-74990533D02*
X147416667Y-74895295D01*
X147416667Y-74895295D02*
X147464286Y-74800057D01*
X147464286Y-74800057D02*
X147511905Y-74752438D01*
X147511905Y-74752438D02*
X147607143Y-74704819D01*
X147607143Y-74704819D02*
X147845238Y-74704819D01*
X147845238Y-74704819D02*
X147988095Y-74752438D01*
X148321429Y-74704819D02*
X148559524Y-75704819D01*
X148559524Y-75704819D02*
X148750000Y-74990533D01*
X148750000Y-74990533D02*
X148940476Y-75704819D01*
X148940476Y-75704819D02*
X149178572Y-74704819D01*
X149464286Y-74704819D02*
X150083333Y-74704819D01*
X150083333Y-74704819D02*
X149750000Y-75085771D01*
X149750000Y-75085771D02*
X149892857Y-75085771D01*
X149892857Y-75085771D02*
X149988095Y-75133390D01*
X149988095Y-75133390D02*
X150035714Y-75181009D01*
X150035714Y-75181009D02*
X150083333Y-75276247D01*
X150083333Y-75276247D02*
X150083333Y-75514342D01*
X150083333Y-75514342D02*
X150035714Y-75609580D01*
X150035714Y-75609580D02*
X149988095Y-75657200D01*
X149988095Y-75657200D02*
X149892857Y-75704819D01*
X149892857Y-75704819D02*
X149607143Y-75704819D01*
X149607143Y-75704819D02*
X149511905Y-75657200D01*
X149511905Y-75657200D02*
X149464286Y-75609580D01*
X107884819Y-68343333D02*
X108599104Y-68343333D01*
X108599104Y-68343333D02*
X108741961Y-68390952D01*
X108741961Y-68390952D02*
X108837200Y-68486190D01*
X108837200Y-68486190D02*
X108884819Y-68629047D01*
X108884819Y-68629047D02*
X108884819Y-68724285D01*
X107884819Y-67438571D02*
X107884819Y-67629047D01*
X107884819Y-67629047D02*
X107932438Y-67724285D01*
X107932438Y-67724285D02*
X107980057Y-67771904D01*
X107980057Y-67771904D02*
X108122914Y-67867142D01*
X108122914Y-67867142D02*
X108313390Y-67914761D01*
X108313390Y-67914761D02*
X108694342Y-67914761D01*
X108694342Y-67914761D02*
X108789580Y-67867142D01*
X108789580Y-67867142D02*
X108837200Y-67819523D01*
X108837200Y-67819523D02*
X108884819Y-67724285D01*
X108884819Y-67724285D02*
X108884819Y-67533809D01*
X108884819Y-67533809D02*
X108837200Y-67438571D01*
X108837200Y-67438571D02*
X108789580Y-67390952D01*
X108789580Y-67390952D02*
X108694342Y-67343333D01*
X108694342Y-67343333D02*
X108456247Y-67343333D01*
X108456247Y-67343333D02*
X108361009Y-67390952D01*
X108361009Y-67390952D02*
X108313390Y-67438571D01*
X108313390Y-67438571D02*
X108265771Y-67533809D01*
X108265771Y-67533809D02*
X108265771Y-67724285D01*
X108265771Y-67724285D02*
X108313390Y-67819523D01*
X108313390Y-67819523D02*
X108361009Y-67867142D01*
X108361009Y-67867142D02*
X108456247Y-67914761D01*
X161916667Y-66157200D02*
X162059524Y-66204819D01*
X162059524Y-66204819D02*
X162297619Y-66204819D01*
X162297619Y-66204819D02*
X162392857Y-66157200D01*
X162392857Y-66157200D02*
X162440476Y-66109580D01*
X162440476Y-66109580D02*
X162488095Y-66014342D01*
X162488095Y-66014342D02*
X162488095Y-65919104D01*
X162488095Y-65919104D02*
X162440476Y-65823866D01*
X162440476Y-65823866D02*
X162392857Y-65776247D01*
X162392857Y-65776247D02*
X162297619Y-65728628D01*
X162297619Y-65728628D02*
X162107143Y-65681009D01*
X162107143Y-65681009D02*
X162011905Y-65633390D01*
X162011905Y-65633390D02*
X161964286Y-65585771D01*
X161964286Y-65585771D02*
X161916667Y-65490533D01*
X161916667Y-65490533D02*
X161916667Y-65395295D01*
X161916667Y-65395295D02*
X161964286Y-65300057D01*
X161964286Y-65300057D02*
X162011905Y-65252438D01*
X162011905Y-65252438D02*
X162107143Y-65204819D01*
X162107143Y-65204819D02*
X162345238Y-65204819D01*
X162345238Y-65204819D02*
X162488095Y-65252438D01*
X162821429Y-65204819D02*
X163059524Y-66204819D01*
X163059524Y-66204819D02*
X163250000Y-65490533D01*
X163250000Y-65490533D02*
X163440476Y-66204819D01*
X163440476Y-66204819D02*
X163678572Y-65204819D01*
X164583333Y-66204819D02*
X164011905Y-66204819D01*
X164297619Y-66204819D02*
X164297619Y-65204819D01*
X164297619Y-65204819D02*
X164202381Y-65347676D01*
X164202381Y-65347676D02*
X164107143Y-65442914D01*
X164107143Y-65442914D02*
X164011905Y-65490533D01*
X149403333Y-82964819D02*
X149070000Y-82488628D01*
X148831905Y-82964819D02*
X148831905Y-81964819D01*
X148831905Y-81964819D02*
X149212857Y-81964819D01*
X149212857Y-81964819D02*
X149308095Y-82012438D01*
X149308095Y-82012438D02*
X149355714Y-82060057D01*
X149355714Y-82060057D02*
X149403333Y-82155295D01*
X149403333Y-82155295D02*
X149403333Y-82298152D01*
X149403333Y-82298152D02*
X149355714Y-82393390D01*
X149355714Y-82393390D02*
X149308095Y-82441009D01*
X149308095Y-82441009D02*
X149212857Y-82488628D01*
X149212857Y-82488628D02*
X148831905Y-82488628D01*
X150308095Y-81964819D02*
X149831905Y-81964819D01*
X149831905Y-81964819D02*
X149784286Y-82441009D01*
X149784286Y-82441009D02*
X149831905Y-82393390D01*
X149831905Y-82393390D02*
X149927143Y-82345771D01*
X149927143Y-82345771D02*
X150165238Y-82345771D01*
X150165238Y-82345771D02*
X150260476Y-82393390D01*
X150260476Y-82393390D02*
X150308095Y-82441009D01*
X150308095Y-82441009D02*
X150355714Y-82536247D01*
X150355714Y-82536247D02*
X150355714Y-82774342D01*
X150355714Y-82774342D02*
X150308095Y-82869580D01*
X150308095Y-82869580D02*
X150260476Y-82917200D01*
X150260476Y-82917200D02*
X150165238Y-82964819D01*
X150165238Y-82964819D02*
X149927143Y-82964819D01*
X149927143Y-82964819D02*
X149831905Y-82917200D01*
X149831905Y-82917200D02*
X149784286Y-82869580D01*
X147939819Y-59393333D02*
X148654104Y-59393333D01*
X148654104Y-59393333D02*
X148796961Y-59440952D01*
X148796961Y-59440952D02*
X148892200Y-59536190D01*
X148892200Y-59536190D02*
X148939819Y-59679047D01*
X148939819Y-59679047D02*
X148939819Y-59774285D01*
X147939819Y-59012380D02*
X147939819Y-58345714D01*
X147939819Y-58345714D02*
X148939819Y-58774285D01*
X158903333Y-58904819D02*
X158570000Y-58428628D01*
X158331905Y-58904819D02*
X158331905Y-57904819D01*
X158331905Y-57904819D02*
X158712857Y-57904819D01*
X158712857Y-57904819D02*
X158808095Y-57952438D01*
X158808095Y-57952438D02*
X158855714Y-58000057D01*
X158855714Y-58000057D02*
X158903333Y-58095295D01*
X158903333Y-58095295D02*
X158903333Y-58238152D01*
X158903333Y-58238152D02*
X158855714Y-58333390D01*
X158855714Y-58333390D02*
X158808095Y-58381009D01*
X158808095Y-58381009D02*
X158712857Y-58428628D01*
X158712857Y-58428628D02*
X158331905Y-58428628D01*
X159284286Y-58000057D02*
X159331905Y-57952438D01*
X159331905Y-57952438D02*
X159427143Y-57904819D01*
X159427143Y-57904819D02*
X159665238Y-57904819D01*
X159665238Y-57904819D02*
X159760476Y-57952438D01*
X159760476Y-57952438D02*
X159808095Y-58000057D01*
X159808095Y-58000057D02*
X159855714Y-58095295D01*
X159855714Y-58095295D02*
X159855714Y-58190533D01*
X159855714Y-58190533D02*
X159808095Y-58333390D01*
X159808095Y-58333390D02*
X159236667Y-58904819D01*
X159236667Y-58904819D02*
X159855714Y-58904819D01*
X161414819Y-89580238D02*
X160938628Y-89913571D01*
X161414819Y-90151666D02*
X160414819Y-90151666D01*
X160414819Y-90151666D02*
X160414819Y-89770714D01*
X160414819Y-89770714D02*
X160462438Y-89675476D01*
X160462438Y-89675476D02*
X160510057Y-89627857D01*
X160510057Y-89627857D02*
X160605295Y-89580238D01*
X160605295Y-89580238D02*
X160748152Y-89580238D01*
X160748152Y-89580238D02*
X160843390Y-89627857D01*
X160843390Y-89627857D02*
X160891009Y-89675476D01*
X160891009Y-89675476D02*
X160938628Y-89770714D01*
X160938628Y-89770714D02*
X160938628Y-90151666D01*
X160414819Y-89294523D02*
X161414819Y-88961190D01*
X161414819Y-88961190D02*
X160414819Y-88627857D01*
X161414819Y-87770714D02*
X161414819Y-88342142D01*
X161414819Y-88056428D02*
X160414819Y-88056428D01*
X160414819Y-88056428D02*
X160557676Y-88151666D01*
X160557676Y-88151666D02*
X160652914Y-88246904D01*
X160652914Y-88246904D02*
X160700533Y-88342142D01*
X102814819Y-60363333D02*
X103529104Y-60363333D01*
X103529104Y-60363333D02*
X103671961Y-60410952D01*
X103671961Y-60410952D02*
X103767200Y-60506190D01*
X103767200Y-60506190D02*
X103814819Y-60649047D01*
X103814819Y-60649047D02*
X103814819Y-60744285D01*
X102814819Y-59410952D02*
X102814819Y-59887142D01*
X102814819Y-59887142D02*
X103291009Y-59934761D01*
X103291009Y-59934761D02*
X103243390Y-59887142D01*
X103243390Y-59887142D02*
X103195771Y-59791904D01*
X103195771Y-59791904D02*
X103195771Y-59553809D01*
X103195771Y-59553809D02*
X103243390Y-59458571D01*
X103243390Y-59458571D02*
X103291009Y-59410952D01*
X103291009Y-59410952D02*
X103386247Y-59363333D01*
X103386247Y-59363333D02*
X103624342Y-59363333D01*
X103624342Y-59363333D02*
X103719580Y-59410952D01*
X103719580Y-59410952D02*
X103767200Y-59458571D01*
X103767200Y-59458571D02*
X103814819Y-59553809D01*
X103814819Y-59553809D02*
X103814819Y-59791904D01*
X103814819Y-59791904D02*
X103767200Y-59887142D01*
X103767200Y-59887142D02*
X103719580Y-59934761D01*
X136303333Y-83024819D02*
X135970000Y-82548628D01*
X135731905Y-83024819D02*
X135731905Y-82024819D01*
X135731905Y-82024819D02*
X136112857Y-82024819D01*
X136112857Y-82024819D02*
X136208095Y-82072438D01*
X136208095Y-82072438D02*
X136255714Y-82120057D01*
X136255714Y-82120057D02*
X136303333Y-82215295D01*
X136303333Y-82215295D02*
X136303333Y-82358152D01*
X136303333Y-82358152D02*
X136255714Y-82453390D01*
X136255714Y-82453390D02*
X136208095Y-82501009D01*
X136208095Y-82501009D02*
X136112857Y-82548628D01*
X136112857Y-82548628D02*
X135731905Y-82548628D01*
X137160476Y-82024819D02*
X136970000Y-82024819D01*
X136970000Y-82024819D02*
X136874762Y-82072438D01*
X136874762Y-82072438D02*
X136827143Y-82120057D01*
X136827143Y-82120057D02*
X136731905Y-82262914D01*
X136731905Y-82262914D02*
X136684286Y-82453390D01*
X136684286Y-82453390D02*
X136684286Y-82834342D01*
X136684286Y-82834342D02*
X136731905Y-82929580D01*
X136731905Y-82929580D02*
X136779524Y-82977200D01*
X136779524Y-82977200D02*
X136874762Y-83024819D01*
X136874762Y-83024819D02*
X137065238Y-83024819D01*
X137065238Y-83024819D02*
X137160476Y-82977200D01*
X137160476Y-82977200D02*
X137208095Y-82929580D01*
X137208095Y-82929580D02*
X137255714Y-82834342D01*
X137255714Y-82834342D02*
X137255714Y-82596247D01*
X137255714Y-82596247D02*
X137208095Y-82501009D01*
X137208095Y-82501009D02*
X137160476Y-82453390D01*
X137160476Y-82453390D02*
X137065238Y-82405771D01*
X137065238Y-82405771D02*
X136874762Y-82405771D01*
X136874762Y-82405771D02*
X136779524Y-82453390D01*
X136779524Y-82453390D02*
X136731905Y-82501009D01*
X136731905Y-82501009D02*
X136684286Y-82596247D01*
X161783333Y-72814819D02*
X161450000Y-72338628D01*
X161211905Y-72814819D02*
X161211905Y-71814819D01*
X161211905Y-71814819D02*
X161592857Y-71814819D01*
X161592857Y-71814819D02*
X161688095Y-71862438D01*
X161688095Y-71862438D02*
X161735714Y-71910057D01*
X161735714Y-71910057D02*
X161783333Y-72005295D01*
X161783333Y-72005295D02*
X161783333Y-72148152D01*
X161783333Y-72148152D02*
X161735714Y-72243390D01*
X161735714Y-72243390D02*
X161688095Y-72291009D01*
X161688095Y-72291009D02*
X161592857Y-72338628D01*
X161592857Y-72338628D02*
X161211905Y-72338628D01*
X162116667Y-71814819D02*
X162735714Y-71814819D01*
X162735714Y-71814819D02*
X162402381Y-72195771D01*
X162402381Y-72195771D02*
X162545238Y-72195771D01*
X162545238Y-72195771D02*
X162640476Y-72243390D01*
X162640476Y-72243390D02*
X162688095Y-72291009D01*
X162688095Y-72291009D02*
X162735714Y-72386247D01*
X162735714Y-72386247D02*
X162735714Y-72624342D01*
X162735714Y-72624342D02*
X162688095Y-72719580D01*
X162688095Y-72719580D02*
X162640476Y-72767200D01*
X162640476Y-72767200D02*
X162545238Y-72814819D01*
X162545238Y-72814819D02*
X162259524Y-72814819D01*
X162259524Y-72814819D02*
X162164286Y-72767200D01*
X162164286Y-72767200D02*
X162116667Y-72719580D01*
D12*
%TO.C,J1*%
X147050000Y-98790000D02*
X147050000Y-96130000D01*
X129210000Y-98790000D02*
X147050000Y-98790000D01*
X129210000Y-98790000D02*
X129210000Y-96130000D01*
X129210000Y-96130000D02*
X147050000Y-96130000D01*
X126610000Y-97460000D02*
X126610000Y-96130000D01*
X126610000Y-96130000D02*
X127940000Y-96130000D01*
%TO.C,J3*%
X164830000Y-98790000D02*
X164830000Y-96130000D01*
X152070000Y-98790000D02*
X164830000Y-98790000D01*
X152070000Y-98790000D02*
X152070000Y-96130000D01*
X152070000Y-96130000D02*
X164830000Y-96130000D01*
X149470000Y-97460000D02*
X149470000Y-96130000D01*
X149470000Y-96130000D02*
X150800000Y-96130000D01*
%TO.C,J2*%
X142986000Y-50530000D02*
X142986000Y-47870000D01*
X120066000Y-50530000D02*
X142986000Y-50530000D01*
X120066000Y-50530000D02*
X120066000Y-47870000D01*
X120066000Y-47870000D02*
X142986000Y-47870000D01*
X117466000Y-49200000D02*
X117466000Y-47870000D01*
X117466000Y-47870000D02*
X118796000Y-47870000D01*
%TO.C,J4*%
X164830000Y-50530000D02*
X164830000Y-47870000D01*
X146990000Y-50530000D02*
X164830000Y-50530000D01*
X146990000Y-50530000D02*
X146990000Y-47870000D01*
X146990000Y-47870000D02*
X164830000Y-47870000D01*
X144390000Y-49200000D02*
X144390000Y-47870000D01*
X144390000Y-47870000D02*
X145720000Y-47870000D01*
%TO.C,SW4*%
X152750000Y-90000000D02*
X152750000Y-88500000D01*
X151500000Y-86000000D02*
X147000000Y-86000000D01*
X147000000Y-92500000D02*
X151500000Y-92500000D01*
X145750000Y-88500000D02*
X145750000Y-90000000D01*
%TO.C,D1*%
X138000000Y-56730000D02*
G75*
G02*
X133000000Y-56730000I-2500000J0D01*
G01*
X133000000Y-56730000D02*
G75*
G02*
X138000000Y-56730000I2500000J0D01*
G01*
X135499538Y-53740000D02*
G75*
G02*
X137044830Y-59290000I462J-2990000D01*
G01*
X133955170Y-59290000D02*
G75*
G02*
X135500462Y-53740000I1544830J2560000D01*
G01*
X133955000Y-59290000D02*
X137045000Y-59290000D01*
%TO.C,SW5*%
X141000000Y-90750000D02*
X141000000Y-89250000D01*
X139750000Y-86750000D02*
X135250000Y-86750000D01*
X135250000Y-93250000D02*
X139750000Y-93250000D01*
X134000000Y-89250000D02*
X134000000Y-90750000D01*
%TO.C,SW2*%
X164000000Y-78750000D02*
X164000000Y-77250000D01*
X162750000Y-74750000D02*
X158250000Y-74750000D01*
X158250000Y-81250000D02*
X162750000Y-81250000D01*
X157000000Y-77250000D02*
X157000000Y-78750000D01*
%TO.C,R4*%
X152540000Y-68500000D02*
X151770000Y-68500000D01*
X151770000Y-69870000D02*
X151770000Y-67130000D01*
X151770000Y-67130000D02*
X145230000Y-67130000D01*
X145230000Y-69870000D02*
X151770000Y-69870000D01*
X145230000Y-67130000D02*
X145230000Y-69870000D01*
X144460000Y-68500000D02*
X145230000Y-68500000D01*
D13*
%TO.C,G\u002A\u002A\u002A*%
G36*
X105266711Y-85941673D02*
G01*
X105517693Y-85941694D01*
X105753029Y-85941732D01*
X105973229Y-85941788D01*
X106178803Y-85941865D01*
X106370261Y-85941964D01*
X106548113Y-85942089D01*
X106712870Y-85942240D01*
X106865041Y-85942421D01*
X107005138Y-85942632D01*
X107133669Y-85942877D01*
X107251146Y-85943157D01*
X107358079Y-85943475D01*
X107454976Y-85943832D01*
X107542350Y-85944230D01*
X107620710Y-85944672D01*
X107690565Y-85945160D01*
X107752427Y-85945696D01*
X107806806Y-85946281D01*
X107854211Y-85946919D01*
X107895153Y-85947610D01*
X107930141Y-85948358D01*
X107959687Y-85949164D01*
X107984301Y-85950030D01*
X108004492Y-85950959D01*
X108020770Y-85951952D01*
X108033647Y-85953011D01*
X108043323Y-85954099D01*
X108208163Y-85984094D01*
X108367611Y-86029513D01*
X108520793Y-86089736D01*
X108666838Y-86164144D01*
X108804873Y-86252119D01*
X108934025Y-86353041D01*
X109053423Y-86466292D01*
X109162195Y-86591254D01*
X109259467Y-86727306D01*
X109344367Y-86873831D01*
X109347012Y-86878961D01*
X109379166Y-86941595D01*
X110668810Y-86941631D01*
X111958454Y-86941667D01*
X111956310Y-87484359D01*
X111954166Y-88027051D01*
X111862500Y-88075750D01*
X111770833Y-88124449D01*
X111766221Y-89626808D01*
X111765652Y-89814848D01*
X111765133Y-89987017D01*
X111764643Y-90144111D01*
X111764158Y-90286923D01*
X111763658Y-90416250D01*
X111763118Y-90532887D01*
X111762518Y-90637629D01*
X111761834Y-90731272D01*
X111761043Y-90814610D01*
X111760125Y-90888439D01*
X111759055Y-90953554D01*
X111757813Y-91010750D01*
X111756374Y-91060823D01*
X111754718Y-91104568D01*
X111752821Y-91142781D01*
X111750662Y-91176256D01*
X111748217Y-91205788D01*
X111745465Y-91232174D01*
X111742382Y-91256208D01*
X111738947Y-91278685D01*
X111735138Y-91300402D01*
X111730931Y-91322152D01*
X111726304Y-91344732D01*
X111721236Y-91368936D01*
X111716504Y-91391667D01*
X111699633Y-91462242D01*
X111676600Y-91542449D01*
X111649123Y-91627232D01*
X111618922Y-91711537D01*
X111587717Y-91790310D01*
X111558884Y-91855048D01*
X111483809Y-91999014D01*
X111400953Y-92132152D01*
X111307831Y-92257951D01*
X111201956Y-92379901D01*
X111137954Y-92446034D01*
X111002816Y-92570999D01*
X110862265Y-92681211D01*
X110715208Y-92777231D01*
X110560551Y-92859623D01*
X110397199Y-92928946D01*
X110224059Y-92985763D01*
X110040036Y-93030635D01*
X109974425Y-93043338D01*
X109870833Y-93062150D01*
X108179166Y-93063397D01*
X108011511Y-93063486D01*
X107847768Y-93063506D01*
X107688760Y-93063459D01*
X107535312Y-93063348D01*
X107388247Y-93063176D01*
X107248388Y-93062945D01*
X107116561Y-93062658D01*
X106993588Y-93062317D01*
X106880293Y-93061926D01*
X106777500Y-93061488D01*
X106686033Y-93061003D01*
X106606716Y-93060477D01*
X106540371Y-93059910D01*
X106487824Y-93059307D01*
X106449898Y-93058669D01*
X106427416Y-93057999D01*
X106422330Y-93057664D01*
X106234806Y-93029376D01*
X106052406Y-92985405D01*
X105875838Y-92926089D01*
X105705815Y-92851769D01*
X105543045Y-92762784D01*
X105388239Y-92659474D01*
X105242107Y-92542178D01*
X105135950Y-92442550D01*
X105050617Y-92351786D01*
X104970057Y-92255060D01*
X104891894Y-92149279D01*
X104813757Y-92031347D01*
X104785234Y-91985417D01*
X104758487Y-91941667D01*
X103404183Y-91941667D01*
X102049879Y-91941667D01*
X102052022Y-91399335D01*
X102054166Y-90857004D01*
X102183333Y-90788032D01*
X102312500Y-90719059D01*
X102314602Y-88939802D01*
X102316704Y-87160545D01*
X102183457Y-87090689D01*
X102050210Y-87020833D01*
X102050109Y-86504167D01*
X102179166Y-86504167D01*
X102179166Y-86937500D01*
X102312500Y-87008409D01*
X102445833Y-87079318D01*
X102447934Y-88938033D01*
X102450036Y-90796749D01*
X102314601Y-90868613D01*
X102179166Y-90940476D01*
X102179166Y-91372321D01*
X102179166Y-91804167D01*
X103505343Y-91806275D01*
X104831519Y-91808384D01*
X104892095Y-91906275D01*
X104949750Y-91997320D01*
X105002427Y-92075857D01*
X105051988Y-92144579D01*
X105095170Y-92199896D01*
X105214669Y-92333998D01*
X105345571Y-92456459D01*
X105486743Y-92566577D01*
X105637054Y-92663649D01*
X105795372Y-92746973D01*
X105960563Y-92815848D01*
X106131496Y-92869572D01*
X106203562Y-92887188D01*
X106226272Y-92892319D01*
X106247252Y-92897039D01*
X106267242Y-92901366D01*
X106286985Y-92905317D01*
X106307220Y-92908910D01*
X106328689Y-92912161D01*
X106352132Y-92915089D01*
X106378289Y-92917711D01*
X106407902Y-92920044D01*
X106441712Y-92922107D01*
X106480459Y-92923915D01*
X106524883Y-92925488D01*
X106575727Y-92926842D01*
X106633729Y-92927994D01*
X106699632Y-92928963D01*
X106774177Y-92929766D01*
X106858102Y-92930420D01*
X106952151Y-92930942D01*
X107057063Y-92931351D01*
X107173579Y-92931664D01*
X107302440Y-92931897D01*
X107444386Y-92932070D01*
X107600159Y-92932198D01*
X107770500Y-92932300D01*
X107956148Y-92932393D01*
X108123245Y-92932476D01*
X108354308Y-92932550D01*
X108568742Y-92932525D01*
X108766581Y-92932400D01*
X108947863Y-92932175D01*
X109112623Y-92931849D01*
X109260898Y-92931424D01*
X109392724Y-92930898D01*
X109508137Y-92930271D01*
X109607173Y-92929543D01*
X109689869Y-92928714D01*
X109756261Y-92927784D01*
X109806384Y-92926753D01*
X109840276Y-92925620D01*
X109856578Y-92924553D01*
X110031274Y-92897307D01*
X110203271Y-92854122D01*
X110371154Y-92795676D01*
X110533509Y-92722649D01*
X110688921Y-92635718D01*
X110835978Y-92535562D01*
X110973265Y-92422858D01*
X111045740Y-92354128D01*
X111168569Y-92220324D01*
X111277088Y-92078589D01*
X111371487Y-91928541D01*
X111451959Y-91769799D01*
X111518695Y-91601983D01*
X111571886Y-91424712D01*
X111611724Y-91237605D01*
X111613872Y-91225000D01*
X111615674Y-91213419D01*
X111617327Y-91200565D01*
X111618839Y-91185693D01*
X111620219Y-91168061D01*
X111621475Y-91146924D01*
X111622613Y-91121538D01*
X111623643Y-91091160D01*
X111624571Y-91055046D01*
X111625407Y-91012451D01*
X111626158Y-90962633D01*
X111626832Y-90904847D01*
X111627437Y-90838350D01*
X111627981Y-90762397D01*
X111628472Y-90676246D01*
X111628917Y-90579151D01*
X111629326Y-90470370D01*
X111629705Y-90349158D01*
X111630062Y-90214772D01*
X111630407Y-90066467D01*
X111630746Y-89903501D01*
X111631087Y-89725129D01*
X111631330Y-89591667D01*
X111634101Y-88045833D01*
X111731634Y-87994639D01*
X111829166Y-87943445D01*
X111829166Y-87511306D01*
X111829166Y-87079167D01*
X110560245Y-87075000D01*
X109291324Y-87070833D01*
X109247082Y-86979167D01*
X109167756Y-86833087D01*
X109076354Y-86698116D01*
X108973421Y-86574735D01*
X108859502Y-86463425D01*
X108735142Y-86364668D01*
X108600885Y-86278946D01*
X108457277Y-86206739D01*
X108308361Y-86149674D01*
X108204124Y-86119401D01*
X108098440Y-86097074D01*
X107986069Y-86081736D01*
X107895833Y-86074341D01*
X107873712Y-86073506D01*
X107835124Y-86072728D01*
X107780267Y-86072006D01*
X107709339Y-86071342D01*
X107622539Y-86070735D01*
X107520066Y-86070187D01*
X107402119Y-86069697D01*
X107268896Y-86069266D01*
X107120596Y-86068895D01*
X106957418Y-86068583D01*
X106779560Y-86068331D01*
X106587221Y-86068140D01*
X106380600Y-86068010D01*
X106159895Y-86067941D01*
X105925306Y-86067934D01*
X105677031Y-86067989D01*
X105415268Y-86068106D01*
X105140216Y-86068287D01*
X104970833Y-86068424D01*
X102179166Y-86070833D01*
X102179166Y-86504167D01*
X102050109Y-86504167D01*
X102050105Y-86481250D01*
X102050025Y-86070833D01*
X102050000Y-85941667D01*
X104999573Y-85941667D01*
X105266711Y-85941673D01*
G37*
G36*
X105468753Y-86383335D02*
G01*
X105705552Y-86383342D01*
X105926786Y-86383358D01*
X106133006Y-86383387D01*
X106324763Y-86383430D01*
X106502608Y-86383491D01*
X106667091Y-86383574D01*
X106818764Y-86383682D01*
X106958178Y-86383817D01*
X107085883Y-86383983D01*
X107202430Y-86384184D01*
X107308371Y-86384422D01*
X107404255Y-86384700D01*
X107490635Y-86385021D01*
X107568060Y-86385390D01*
X107637082Y-86385808D01*
X107698252Y-86386280D01*
X107752121Y-86386808D01*
X107799239Y-86387395D01*
X107840157Y-86388045D01*
X107875426Y-86388761D01*
X107905598Y-86389545D01*
X107931223Y-86390402D01*
X107952852Y-86391334D01*
X107971035Y-86392345D01*
X107986324Y-86393437D01*
X107999270Y-86394613D01*
X108010423Y-86395878D01*
X108020335Y-86397234D01*
X108029556Y-86398684D01*
X108034588Y-86399532D01*
X108175808Y-86431728D01*
X108309394Y-86478688D01*
X108435583Y-86540534D01*
X108554610Y-86617390D01*
X108666709Y-86709379D01*
X108712803Y-86753579D01*
X108812140Y-86863994D01*
X108896051Y-86980652D01*
X108964695Y-87103896D01*
X109018232Y-87234067D01*
X109056824Y-87371510D01*
X109080631Y-87516566D01*
X109083570Y-87545833D01*
X109084569Y-87565406D01*
X109085497Y-87600482D01*
X109086353Y-87649941D01*
X109087137Y-87712668D01*
X109087851Y-87787545D01*
X109088493Y-87873454D01*
X109089064Y-87969277D01*
X109089565Y-88073898D01*
X109089994Y-88186198D01*
X109090353Y-88305060D01*
X109090642Y-88429367D01*
X109090861Y-88558001D01*
X109091009Y-88689845D01*
X109091088Y-88823781D01*
X109091097Y-88958692D01*
X109091036Y-89093459D01*
X109090906Y-89226967D01*
X109090707Y-89358097D01*
X109090438Y-89485731D01*
X109090101Y-89608752D01*
X109089694Y-89726044D01*
X109089219Y-89836487D01*
X109088676Y-89938965D01*
X109088064Y-90032361D01*
X109087383Y-90115556D01*
X109086635Y-90187433D01*
X109085819Y-90246875D01*
X109084935Y-90292764D01*
X109083983Y-90323983D01*
X109083188Y-90337500D01*
X109065277Y-90466526D01*
X109036773Y-90586387D01*
X108996352Y-90701767D01*
X108953628Y-90795833D01*
X108882412Y-90920354D01*
X108798463Y-91034824D01*
X108702883Y-91138486D01*
X108596777Y-91230579D01*
X108481248Y-91310343D01*
X108357398Y-91377021D01*
X108226333Y-91429853D01*
X108089155Y-91468078D01*
X107946967Y-91490939D01*
X107942867Y-91491356D01*
X107924867Y-91492306D01*
X107890381Y-91493200D01*
X107839397Y-91494039D01*
X107771905Y-91494823D01*
X107687893Y-91495551D01*
X107587351Y-91496224D01*
X107470268Y-91496841D01*
X107336634Y-91497404D01*
X107186438Y-91497911D01*
X107019669Y-91498363D01*
X106836316Y-91498760D01*
X106636369Y-91499102D01*
X106419816Y-91499389D01*
X106186648Y-91499620D01*
X105936853Y-91499797D01*
X105670420Y-91499919D01*
X105387340Y-91499986D01*
X105173960Y-91500000D01*
X102491353Y-91500000D01*
X102493593Y-91311298D01*
X102495833Y-91122596D01*
X102625000Y-91053628D01*
X102754166Y-90984660D01*
X102754381Y-90775000D01*
X104491666Y-90775000D01*
X105664583Y-90774877D01*
X105830433Y-90774841D01*
X105980436Y-90774766D01*
X106115413Y-90774643D01*
X106236183Y-90774464D01*
X106343566Y-90774219D01*
X106438382Y-90773901D01*
X106521451Y-90773500D01*
X106593593Y-90773010D01*
X106655628Y-90772420D01*
X106708376Y-90771722D01*
X106752657Y-90770909D01*
X106789290Y-90769971D01*
X106819097Y-90768900D01*
X106842896Y-90767687D01*
X106861507Y-90766325D01*
X106875751Y-90764804D01*
X106886448Y-90763117D01*
X106890807Y-90762188D01*
X106969585Y-90735275D01*
X107042301Y-90693978D01*
X107106635Y-90640154D01*
X107160264Y-90575661D01*
X107192228Y-90521074D01*
X107208667Y-90484303D01*
X107222818Y-90446712D01*
X107232143Y-90415197D01*
X107233385Y-90409279D01*
X107234514Y-90394668D01*
X107235566Y-90363696D01*
X107236538Y-90316667D01*
X107237430Y-90253887D01*
X107238239Y-90175661D01*
X107238963Y-90082293D01*
X107239602Y-89974088D01*
X107240153Y-89851353D01*
X107240615Y-89714391D01*
X107240986Y-89563508D01*
X107241264Y-89399008D01*
X107241448Y-89221197D01*
X107241536Y-89030381D01*
X107241543Y-88913446D01*
X107241538Y-88727625D01*
X107241540Y-88557715D01*
X107241524Y-88402959D01*
X107241467Y-88262600D01*
X107241345Y-88135883D01*
X107241134Y-88022051D01*
X107240809Y-87920348D01*
X107240348Y-87830018D01*
X107239725Y-87750304D01*
X107238918Y-87680450D01*
X107237901Y-87619699D01*
X107236651Y-87567296D01*
X107235144Y-87522484D01*
X107233356Y-87484507D01*
X107231264Y-87452608D01*
X107228842Y-87426032D01*
X107226067Y-87404021D01*
X107222915Y-87385820D01*
X107219363Y-87370673D01*
X107215385Y-87357822D01*
X107210959Y-87346512D01*
X107206060Y-87335987D01*
X107200664Y-87325490D01*
X107194747Y-87314264D01*
X107190583Y-87306164D01*
X107165186Y-87265754D01*
X107129494Y-87221970D01*
X107087907Y-87179305D01*
X107044822Y-87142252D01*
X107004639Y-87115304D01*
X107002704Y-87114259D01*
X106972302Y-87100499D01*
X106933841Y-87086382D01*
X106895580Y-87074936D01*
X106895121Y-87074818D01*
X106885765Y-87072520D01*
X106875994Y-87070447D01*
X106864951Y-87068586D01*
X106851777Y-87066926D01*
X106835615Y-87065455D01*
X106815605Y-87064162D01*
X106790891Y-87063036D01*
X106760615Y-87062065D01*
X106723917Y-87061237D01*
X106679941Y-87060542D01*
X106627828Y-87059967D01*
X106566720Y-87059502D01*
X106495759Y-87059134D01*
X106414087Y-87058852D01*
X106320847Y-87058646D01*
X106215179Y-87058502D01*
X106096227Y-87058411D01*
X105963131Y-87058360D01*
X105815034Y-87058338D01*
X105661166Y-87058333D01*
X104491666Y-87058333D01*
X104491666Y-88916667D01*
X104491666Y-90775000D01*
X102754381Y-90775000D01*
X102756266Y-88939718D01*
X102756290Y-88916667D01*
X102758366Y-86894775D01*
X102625098Y-86824471D01*
X102491830Y-86754167D01*
X102491748Y-86568750D01*
X102491666Y-86383333D01*
X105215838Y-86383333D01*
X105468753Y-86383335D01*
G37*
G36*
X111514740Y-87572157D02*
G01*
X111512500Y-87761259D01*
X111420833Y-87809460D01*
X111329166Y-87857660D01*
X111324698Y-89480913D01*
X111324167Y-89677778D01*
X111323690Y-89858722D01*
X111323242Y-90024495D01*
X111322800Y-90175842D01*
X111322341Y-90313510D01*
X111321842Y-90438247D01*
X111321279Y-90550800D01*
X111320630Y-90651915D01*
X111319870Y-90742340D01*
X111318976Y-90822821D01*
X111317926Y-90894107D01*
X111316696Y-90956943D01*
X111315262Y-91012077D01*
X111313602Y-91060255D01*
X111311692Y-91102225D01*
X111309508Y-91138734D01*
X111307028Y-91170529D01*
X111304229Y-91198357D01*
X111301086Y-91222964D01*
X111297576Y-91245099D01*
X111293677Y-91265507D01*
X111289365Y-91284936D01*
X111284617Y-91304133D01*
X111279409Y-91323845D01*
X111273719Y-91344819D01*
X111267522Y-91367802D01*
X111265648Y-91374869D01*
X111215640Y-91532649D01*
X111151314Y-91682767D01*
X111073503Y-91824508D01*
X110983039Y-91957157D01*
X110880755Y-92079998D01*
X110767483Y-92192316D01*
X110644056Y-92293396D01*
X110511305Y-92382521D01*
X110370064Y-92458978D01*
X110221166Y-92522050D01*
X110065441Y-92571022D01*
X109903724Y-92605178D01*
X109820833Y-92616482D01*
X109802436Y-92617573D01*
X109767657Y-92618585D01*
X109716782Y-92619515D01*
X109650095Y-92620365D01*
X109567881Y-92621131D01*
X109470424Y-92621813D01*
X109358010Y-92622409D01*
X109230923Y-92622918D01*
X109089449Y-92623340D01*
X108933872Y-92623671D01*
X108764477Y-92623913D01*
X108581548Y-92624062D01*
X108385372Y-92624118D01*
X108176231Y-92624080D01*
X108125000Y-92624057D01*
X107927326Y-92623944D01*
X107745625Y-92623806D01*
X107579199Y-92623638D01*
X107427354Y-92623435D01*
X107289394Y-92623191D01*
X107164624Y-92622901D01*
X107052348Y-92622561D01*
X106951871Y-92622163D01*
X106862498Y-92621704D01*
X106783534Y-92621178D01*
X106714282Y-92620579D01*
X106654049Y-92619903D01*
X106602137Y-92619144D01*
X106557853Y-92618297D01*
X106520500Y-92617356D01*
X106489383Y-92616316D01*
X106463807Y-92615172D01*
X106443076Y-92613919D01*
X106426496Y-92612551D01*
X106413370Y-92611063D01*
X106413106Y-92611027D01*
X106251540Y-92581047D01*
X106094621Y-92535427D01*
X105943345Y-92474793D01*
X105798708Y-92399768D01*
X105661708Y-92310975D01*
X105533342Y-92209039D01*
X105414607Y-92094583D01*
X105306498Y-91968230D01*
X105240663Y-91877460D01*
X105222384Y-91849982D01*
X105208364Y-91827978D01*
X105200761Y-91814875D01*
X105200000Y-91812876D01*
X105208191Y-91812392D01*
X105232202Y-91811922D01*
X105271181Y-91811469D01*
X105324282Y-91811036D01*
X105390656Y-91810625D01*
X105469454Y-91810239D01*
X105559827Y-91809881D01*
X105660928Y-91809553D01*
X105771908Y-91809258D01*
X105891917Y-91809000D01*
X106020109Y-91808779D01*
X106155634Y-91808600D01*
X106297643Y-91808464D01*
X106445289Y-91808375D01*
X106597723Y-91808335D01*
X106640783Y-91808333D01*
X106854623Y-91808279D01*
X107052697Y-91808118D01*
X107234930Y-91807849D01*
X107401246Y-91807474D01*
X107551569Y-91806992D01*
X107685823Y-91806405D01*
X107803932Y-91805712D01*
X107905821Y-91804915D01*
X107991414Y-91804013D01*
X108060635Y-91803007D01*
X108113409Y-91801897D01*
X108149658Y-91800684D01*
X108167867Y-91799528D01*
X108321859Y-91775580D01*
X108471177Y-91735980D01*
X108614753Y-91681347D01*
X108751514Y-91612302D01*
X108880392Y-91529463D01*
X109000316Y-91433451D01*
X109110216Y-91324886D01*
X109209023Y-91204387D01*
X109219022Y-91190633D01*
X109258448Y-91130776D01*
X109299231Y-91060087D01*
X109339004Y-90983362D01*
X109375402Y-90905399D01*
X109406059Y-90830997D01*
X109428102Y-90766667D01*
X109435261Y-90742976D01*
X109441818Y-90721708D01*
X109447800Y-90702082D01*
X109453236Y-90683317D01*
X109458154Y-90664634D01*
X109462582Y-90645252D01*
X109466548Y-90624391D01*
X109470082Y-90601271D01*
X109473210Y-90575112D01*
X109475962Y-90545133D01*
X109478366Y-90510554D01*
X109480449Y-90470596D01*
X109482240Y-90424477D01*
X109483768Y-90371419D01*
X109485061Y-90310640D01*
X109486147Y-90241360D01*
X109487054Y-90162799D01*
X109487810Y-90074178D01*
X109488444Y-89974715D01*
X109488985Y-89863631D01*
X109489459Y-89740145D01*
X109489897Y-89603478D01*
X109490325Y-89452849D01*
X109490773Y-89287478D01*
X109491268Y-89106584D01*
X109491523Y-89016667D01*
X109492062Y-88831275D01*
X109492569Y-88661819D01*
X109493054Y-88507567D01*
X109493527Y-88367787D01*
X109493997Y-88241749D01*
X109494474Y-88128721D01*
X109494967Y-88027971D01*
X109495485Y-87938769D01*
X109496039Y-87860383D01*
X109496637Y-87792081D01*
X109497290Y-87733133D01*
X109498006Y-87682806D01*
X109498796Y-87640371D01*
X109499669Y-87605094D01*
X109500633Y-87576246D01*
X109501700Y-87553094D01*
X109502878Y-87534908D01*
X109504177Y-87520956D01*
X109505607Y-87510506D01*
X109507176Y-87502828D01*
X109508896Y-87497189D01*
X109510774Y-87492860D01*
X109511391Y-87491667D01*
X109540085Y-87448842D01*
X109576021Y-87417301D01*
X109595833Y-87405439D01*
X109629166Y-87387500D01*
X110573073Y-87385277D01*
X111516980Y-87383055D01*
X111514740Y-87572157D01*
G37*
G36*
X105706250Y-87385278D02*
G01*
X106654166Y-87387500D01*
X106692251Y-87409890D01*
X106735678Y-87444681D01*
X106766550Y-87490023D01*
X106783203Y-87540981D01*
X106784308Y-87555157D01*
X106785339Y-87584903D01*
X106786295Y-87629124D01*
X106787176Y-87686722D01*
X106787982Y-87756603D01*
X106788713Y-87837668D01*
X106789369Y-87928823D01*
X106789951Y-88028972D01*
X106790457Y-88137017D01*
X106790889Y-88251863D01*
X106791245Y-88372413D01*
X106791527Y-88497572D01*
X106791733Y-88626244D01*
X106791864Y-88757331D01*
X106791920Y-88889738D01*
X106791901Y-89022368D01*
X106791807Y-89154126D01*
X106791638Y-89283916D01*
X106791393Y-89410640D01*
X106791073Y-89533203D01*
X106790678Y-89650509D01*
X106790207Y-89761461D01*
X106789662Y-89864964D01*
X106789040Y-89959921D01*
X106788344Y-90045235D01*
X106787571Y-90119812D01*
X106786724Y-90182553D01*
X106785801Y-90232365D01*
X106784802Y-90268149D01*
X106783728Y-90288810D01*
X106783274Y-90292612D01*
X106765624Y-90346218D01*
X106734608Y-90389871D01*
X106690281Y-90423496D01*
X106684322Y-90426722D01*
X106639763Y-90450000D01*
X105799048Y-90450000D01*
X104958333Y-90450000D01*
X104958333Y-89155620D01*
X104958333Y-87861241D01*
X104858333Y-87808677D01*
X104758333Y-87756113D01*
X104758333Y-87569584D01*
X104758333Y-87383056D01*
X105706250Y-87385278D01*
G37*
D12*
%TO.C,R1*%
X139460000Y-63500000D02*
X138690000Y-63500000D01*
X138690000Y-64870000D02*
X138690000Y-62130000D01*
X138690000Y-62130000D02*
X132150000Y-62130000D01*
X132150000Y-64870000D02*
X138690000Y-64870000D01*
X132150000Y-62130000D02*
X132150000Y-64870000D01*
X131380000Y-63500000D02*
X132150000Y-63500000D01*
%TO.C,SW3*%
X152250000Y-76000000D02*
X152250000Y-74500000D01*
X151000000Y-72000000D02*
X146500000Y-72000000D01*
X146500000Y-78500000D02*
X151000000Y-78500000D01*
X145250000Y-74500000D02*
X145250000Y-76000000D01*
%TO.C,J6*%
X120150000Y-69340000D02*
X120150000Y-66680000D01*
X112470000Y-69340000D02*
X120150000Y-69340000D01*
X112470000Y-69340000D02*
X112470000Y-66680000D01*
X112470000Y-66680000D02*
X120150000Y-66680000D01*
X109870000Y-68010000D02*
X109870000Y-66680000D01*
X109870000Y-66680000D02*
X111200000Y-66680000D01*
%TO.C,SW1*%
X166750000Y-66500000D02*
X166750000Y-65000000D01*
X165500000Y-62500000D02*
X161000000Y-62500000D01*
X161000000Y-69000000D02*
X165500000Y-69000000D01*
X159750000Y-65000000D02*
X159750000Y-66500000D01*
%TO.C,R5*%
X153540000Y-82500000D02*
X152770000Y-82500000D01*
X152770000Y-83870000D02*
X152770000Y-81130000D01*
X152770000Y-81130000D02*
X146230000Y-81130000D01*
X146230000Y-83870000D02*
X152770000Y-83870000D01*
X146230000Y-81130000D02*
X146230000Y-83870000D01*
X145460000Y-82500000D02*
X146230000Y-82500000D01*
%TO.C,J7*%
X149985000Y-64060000D02*
X149985000Y-53940000D01*
X149985000Y-53940000D02*
X144015000Y-53940000D01*
X149225000Y-63300000D02*
X149225000Y-59000000D01*
X149225000Y-54700000D02*
X149225000Y-59000000D01*
X146275000Y-64050000D02*
X146275000Y-63300000D01*
X146275000Y-63300000D02*
X149225000Y-63300000D01*
X146275000Y-54700000D02*
X149225000Y-54700000D01*
X146275000Y-53950000D02*
X146275000Y-54700000D01*
X144775000Y-64050000D02*
X144775000Y-62250000D01*
X144775000Y-62250000D02*
X144025000Y-62250000D01*
X144775000Y-60750000D02*
X144775000Y-57250000D01*
X144775000Y-57250000D02*
X144025000Y-57250000D01*
X144775000Y-55750000D02*
X144775000Y-53950000D01*
X144775000Y-53950000D02*
X144025000Y-53950000D01*
X144025000Y-64050000D02*
X144775000Y-64050000D01*
X144025000Y-62250000D02*
X144025000Y-64050000D01*
X144025000Y-60750000D02*
X144775000Y-60750000D01*
X144025000Y-57250000D02*
X144025000Y-60750000D01*
X144025000Y-55750000D02*
X144775000Y-55750000D01*
X144025000Y-53950000D02*
X144025000Y-55750000D01*
X144015000Y-64060000D02*
X149985000Y-64060000D01*
X144015000Y-53940000D02*
X144015000Y-64060000D01*
X143725000Y-64350000D02*
X144975000Y-64350000D01*
X143725000Y-63100000D02*
X143725000Y-64350000D01*
%TO.C,R2*%
X163040000Y-58500000D02*
X162270000Y-58500000D01*
X162270000Y-59870000D02*
X162270000Y-57130000D01*
X162270000Y-57130000D02*
X155730000Y-57130000D01*
X155730000Y-59870000D02*
X162270000Y-59870000D01*
X155730000Y-57130000D02*
X155730000Y-59870000D01*
X154960000Y-58500000D02*
X155730000Y-58500000D01*
%TO.C,RV1*%
X165845000Y-93870000D02*
X156075000Y-93870000D01*
X165845000Y-84100000D02*
X165845000Y-93870000D01*
X165845000Y-84100000D02*
X156075000Y-84100000D01*
X156075000Y-84100000D02*
X156075000Y-93870000D01*
%TO.C,J5*%
X122240000Y-64300000D02*
X122240000Y-61640000D01*
X104400000Y-64300000D02*
X122240000Y-64300000D01*
X104400000Y-64300000D02*
X104400000Y-61640000D01*
X104400000Y-61640000D02*
X122240000Y-61640000D01*
X101800000Y-62970000D02*
X101800000Y-61640000D01*
X101800000Y-61640000D02*
X103130000Y-61640000D01*
%TO.C,R6*%
X140540000Y-82500000D02*
X139770000Y-82500000D01*
X139770000Y-83870000D02*
X139770000Y-81130000D01*
X139770000Y-81130000D02*
X133230000Y-81130000D01*
X133230000Y-83870000D02*
X139770000Y-83870000D01*
X133230000Y-81130000D02*
X133230000Y-83870000D01*
X132460000Y-82500000D02*
X133230000Y-82500000D01*
%TO.C,R3*%
X166040000Y-72500000D02*
X165270000Y-72500000D01*
X165270000Y-73870000D02*
X165270000Y-71130000D01*
X165270000Y-71130000D02*
X158730000Y-71130000D01*
X158730000Y-73870000D02*
X165270000Y-73870000D01*
X158730000Y-71130000D02*
X158730000Y-73870000D01*
X157960000Y-72500000D02*
X158730000Y-72500000D01*
%TD*%
M02*
