%TF.GenerationSoftware,KiCad,Pcbnew,8.0.8*%
%TF.CreationDate,2025-02-03T17:03:02-07:00*%
%TF.ProjectId,Uno_Shield_ThermoPro,556e6f5f-5368-4696-956c-645f54686572,1.0*%
%TF.SameCoordinates,Original*%
%TF.FileFunction,Copper,L2,Bot*%
%TF.FilePolarity,Positive*%
%FSLAX46Y46*%
G04 Gerber Fmt 4.6, Leading zero omitted, Abs format (unit mm)*
G04 Created by KiCad (PCBNEW 8.0.8) date 2025-02-03 17:03:02*
%MOMM*%
%LPD*%
G01*
G04 APERTURE LIST*
G04 Aperture macros list*
%AMRoundRect*
0 Rectangle with rounded corners*
0 $1 Rounding radius*
0 $2 $3 $4 $5 $6 $7 $8 $9 X,Y pos of 4 corners*
0 Add a 4 corners polygon primitive as box body*
4,1,4,$2,$3,$4,$5,$6,$7,$8,$9,$2,$3,0*
0 Add four circle primitives for the rounded corners*
1,1,$1+$1,$2,$3*
1,1,$1+$1,$4,$5*
1,1,$1+$1,$6,$7*
1,1,$1+$1,$8,$9*
0 Add four rect primitives between the rounded corners*
20,1,$1+$1,$2,$3,$4,$5,0*
20,1,$1+$1,$4,$5,$6,$7,0*
20,1,$1+$1,$6,$7,$8,$9,0*
20,1,$1+$1,$8,$9,$2,$3,0*%
G04 Aperture macros list end*
%TA.AperFunction,ComponentPad*%
%ADD10O,1.700000X1.700000*%
%TD*%
%TA.AperFunction,ComponentPad*%
%ADD11R,1.700000X1.700000*%
%TD*%
%TA.AperFunction,ComponentPad*%
%ADD12C,2.000000*%
%TD*%
%TA.AperFunction,ComponentPad*%
%ADD13C,1.800000*%
%TD*%
%TA.AperFunction,ComponentPad*%
%ADD14R,1.800000X1.800000*%
%TD*%
%TA.AperFunction,ComponentPad*%
%ADD15O,1.600000X1.600000*%
%TD*%
%TA.AperFunction,ComponentPad*%
%ADD16C,1.600000*%
%TD*%
%TA.AperFunction,ComponentPad*%
%ADD17O,1.950000X1.700000*%
%TD*%
%TA.AperFunction,ComponentPad*%
%ADD18RoundRect,0.250000X0.725000X-0.600000X0.725000X0.600000X-0.725000X0.600000X-0.725000X-0.600000X0*%
%TD*%
%TA.AperFunction,ComponentPad*%
%ADD19C,1.440000*%
%TD*%
G04 APERTURE END LIST*
D10*
%TO.P,J1,8,Pin_8*%
%TO.N,VCC*%
X145720000Y-97460000D03*
%TO.P,J1,7,Pin_7*%
%TO.N,GND*%
X143180000Y-97460000D03*
%TO.P,J1,6,Pin_6*%
X140640000Y-97460000D03*
%TO.P,J1,5,Pin_5*%
%TO.N,+5V*%
X138100000Y-97460000D03*
%TO.P,J1,4,Pin_4*%
%TO.N,+3V3*%
X135560000Y-97460000D03*
%TO.P,J1,3,Pin_3*%
%TO.N,/~{RESET}*%
X133020000Y-97460000D03*
%TO.P,J1,2,Pin_2*%
%TO.N,/IOREF*%
X130480000Y-97460000D03*
D11*
%TO.P,J1,1,Pin_1*%
%TO.N,unconnected-(J1-Pin_1-Pad1)*%
X127940000Y-97460000D03*
%TD*%
D10*
%TO.P,J3,6,Pin_6*%
%TO.N,/SCL{slash}A5*%
X163500000Y-97460000D03*
%TO.P,J3,5,Pin_5*%
%TO.N,/SDA{slash}A4*%
X160960000Y-97460000D03*
%TO.P,J3,4,Pin_4*%
%TO.N,/A3*%
X158420000Y-97460000D03*
%TO.P,J3,3,Pin_3*%
%TO.N,/A2*%
X155880000Y-97460000D03*
%TO.P,J3,2,Pin_2*%
%TO.N,/A1*%
X153340000Y-97460000D03*
D11*
%TO.P,J3,1,Pin_1*%
%TO.N,/temp_sensor*%
X150800000Y-97460000D03*
%TD*%
D10*
%TO.P,J2,10,Pin_10*%
%TO.N,/temp_digital*%
X141656000Y-49200000D03*
%TO.P,J2,9,Pin_9*%
%TO.N,/led_light*%
X139116000Y-49200000D03*
%TO.P,J2,8,Pin_8*%
%TO.N,/\u002A10*%
X136576000Y-49200000D03*
%TO.P,J2,7,Pin_7*%
%TO.N,/\u002A11*%
X134036000Y-49200000D03*
%TO.P,J2,6,Pin_6*%
%TO.N,/12*%
X131496000Y-49200000D03*
%TO.P,J2,5,Pin_5*%
%TO.N,/13*%
X128956000Y-49200000D03*
%TO.P,J2,4,Pin_4*%
%TO.N,GND*%
X126416000Y-49200000D03*
%TO.P,J2,3,Pin_3*%
%TO.N,/AREF*%
X123876000Y-49200000D03*
%TO.P,J2,2,Pin_2*%
%TO.N,/I2C_SDA*%
X121336000Y-49200000D03*
D11*
%TO.P,J2,1,Pin_1*%
%TO.N,/I2C_SCL*%
X118796000Y-49200000D03*
%TD*%
D10*
%TO.P,J4,8,Pin_8*%
%TO.N,/RX{slash}0*%
X163500000Y-49200000D03*
%TO.P,J4,7,Pin_7*%
%TO.N,/TX{slash}1*%
X160960000Y-49200000D03*
%TO.P,J4,6,Pin_6*%
%TO.N,/button_onoff*%
X158420000Y-49200000D03*
%TO.P,J4,5,Pin_5*%
%TO.N,/button_lock*%
X155880000Y-49200000D03*
%TO.P,J4,4,Pin_4*%
%TO.N,/button_units*%
X153340000Y-49200000D03*
%TO.P,J4,3,Pin_3*%
%TO.N,/button_cal*%
X150800000Y-49200000D03*
%TO.P,J4,2,Pin_2*%
%TO.N,/button_light*%
X148260000Y-49200000D03*
D11*
%TO.P,J4,1,Pin_1*%
%TO.N,/7*%
X145720000Y-49200000D03*
%TD*%
D12*
%TO.P,SW4,2,B*%
%TO.N,+5V*%
X152500000Y-91500000D03*
X146000000Y-91500000D03*
%TO.P,SW4,1,A*%
%TO.N,/button_lock*%
X152500000Y-87000000D03*
X146000000Y-87000000D03*
%TD*%
D13*
%TO.P,D1,2,A*%
%TO.N,Net-(D1-A)*%
X135500000Y-55460000D03*
D14*
%TO.P,D1,1,K*%
%TO.N,GND*%
X135500000Y-58000000D03*
%TD*%
D12*
%TO.P,SW5,2,B*%
%TO.N,+5V*%
X140750000Y-92250000D03*
X134250000Y-92250000D03*
%TO.P,SW5,1,A*%
%TO.N,/button_light*%
X140750000Y-87750000D03*
X134250000Y-87750000D03*
%TD*%
%TO.P,SW2,2,B*%
%TO.N,+5V*%
X163750000Y-80250000D03*
X157250000Y-80250000D03*
%TO.P,SW2,1,A*%
%TO.N,/button_units*%
X163750000Y-75750000D03*
X157250000Y-75750000D03*
%TD*%
D15*
%TO.P,R4,2*%
%TO.N,GND*%
X143420000Y-68500000D03*
D16*
%TO.P,R4,1*%
%TO.N,/button_cal*%
X153580000Y-68500000D03*
%TD*%
D15*
%TO.P,R1,2*%
%TO.N,Net-(D1-A)*%
X130340000Y-63500000D03*
D16*
%TO.P,R1,1*%
%TO.N,/led_light*%
X140500000Y-63500000D03*
%TD*%
D12*
%TO.P,SW3,2,B*%
%TO.N,+5V*%
X152000000Y-77500000D03*
X145500000Y-77500000D03*
%TO.P,SW3,1,A*%
%TO.N,/button_cal*%
X152000000Y-73000000D03*
X145500000Y-73000000D03*
%TD*%
D10*
%TO.P,J6,4,Pin_4*%
%TO.N,/I2C_SDA*%
X118820000Y-68010000D03*
%TO.P,J6,3,Pin_3*%
%TO.N,/I2C_SCL*%
X116280000Y-68010000D03*
%TO.P,J6,2,Pin_2*%
%TO.N,+5V*%
X113740000Y-68010000D03*
D11*
%TO.P,J6,1,Pin_1*%
%TO.N,GND*%
X111200000Y-68010000D03*
%TD*%
D12*
%TO.P,SW1,2,B*%
%TO.N,+5V*%
X166500000Y-68000000D03*
X160000000Y-68000000D03*
%TO.P,SW1,1,A*%
%TO.N,/button_onoff*%
X166500000Y-63500000D03*
X160000000Y-63500000D03*
%TD*%
D15*
%TO.P,R5,2*%
%TO.N,GND*%
X144420000Y-82500000D03*
D16*
%TO.P,R5,1*%
%TO.N,/button_lock*%
X154580000Y-82500000D03*
%TD*%
D17*
%TO.P,J7,3,Pin_3*%
%TO.N,+5V*%
X146475000Y-56500000D03*
%TO.P,J7,2,Pin_2*%
%TO.N,/temp_digital*%
X146475000Y-59000000D03*
D18*
%TO.P,J7,1,Pin_1*%
%TO.N,GND*%
X146475000Y-61500000D03*
%TD*%
D15*
%TO.P,R2,2*%
%TO.N,GND*%
X153920000Y-58500000D03*
D16*
%TO.P,R2,1*%
%TO.N,/button_onoff*%
X164080000Y-58500000D03*
%TD*%
D19*
%TO.P,RV1,3,3*%
%TO.N,GND*%
X163500000Y-89000000D03*
%TO.P,RV1,2,2*%
%TO.N,/temp_sensor*%
X160960000Y-91540000D03*
%TO.P,RV1,1,1*%
%TO.N,+5V*%
X158420000Y-89000000D03*
%TD*%
D10*
%TO.P,J5,8,Pin_8*%
%TO.N,unconnected-(J5-Pin_8-Pad8)*%
X120910000Y-62970000D03*
%TO.P,J5,7,Pin_7*%
%TO.N,unconnected-(J5-Pin_7-Pad7)*%
X118370000Y-62970000D03*
%TO.P,J5,6,Pin_6*%
%TO.N,unconnected-(J5-Pin_6-Pad6)*%
X115830000Y-62970000D03*
%TO.P,J5,5,Pin_5*%
%TO.N,unconnected-(J5-Pin_5-Pad5)*%
X113290000Y-62970000D03*
%TO.P,J5,4,Pin_4*%
%TO.N,/I2C_SDA*%
X110750000Y-62970000D03*
%TO.P,J5,3,Pin_3*%
%TO.N,/I2C_SCL*%
X108210000Y-62970000D03*
%TO.P,J5,2,Pin_2*%
%TO.N,GND*%
X105670000Y-62970000D03*
D11*
%TO.P,J5,1,Pin_1*%
%TO.N,+5V*%
X103130000Y-62970000D03*
%TD*%
D15*
%TO.P,R6,2*%
%TO.N,GND*%
X131420000Y-82500000D03*
D16*
%TO.P,R6,1*%
%TO.N,/button_light*%
X141580000Y-82500000D03*
%TD*%
D15*
%TO.P,R3,2*%
%TO.N,GND*%
X156920000Y-72500000D03*
D16*
%TO.P,R3,1*%
%TO.N,/button_units*%
X167080000Y-72500000D03*
%TD*%
%TA.AperFunction,Conductor*%
%TO.N,GND*%
G36*
X142714075Y-97267007D02*
G01*
X142680000Y-97394174D01*
X142680000Y-97525826D01*
X142714075Y-97652993D01*
X142746988Y-97710000D01*
X141073012Y-97710000D01*
X141105925Y-97652993D01*
X141140000Y-97525826D01*
X141140000Y-97394174D01*
X141105925Y-97267007D01*
X141073012Y-97210000D01*
X142746988Y-97210000D01*
X142714075Y-97267007D01*
G37*
%TD.AperFunction*%
%TA.AperFunction,Conductor*%
G36*
X163484404Y-46755185D02*
G01*
X163505046Y-46771819D01*
X165928181Y-49194954D01*
X165961666Y-49256277D01*
X165964500Y-49282635D01*
X165964500Y-59344982D01*
X165964500Y-59375018D01*
X165975994Y-59402767D01*
X165975995Y-59402768D01*
X168468181Y-61894954D01*
X168501666Y-61956277D01*
X168504500Y-61982635D01*
X168504500Y-71899348D01*
X168484815Y-71966387D01*
X168432011Y-72012142D01*
X168362853Y-72022086D01*
X168299297Y-71993061D01*
X168268118Y-71951753D01*
X168217523Y-71843251D01*
X168086198Y-71655700D01*
X167924300Y-71493802D01*
X167736749Y-71362477D01*
X167736745Y-71362475D01*
X167529249Y-71265718D01*
X167529238Y-71265714D01*
X167308089Y-71206457D01*
X167308081Y-71206456D01*
X167080002Y-71186502D01*
X167079998Y-71186502D01*
X166851918Y-71206456D01*
X166851910Y-71206457D01*
X166630761Y-71265714D01*
X166630750Y-71265718D01*
X166423254Y-71362475D01*
X166423252Y-71362476D01*
X166423251Y-71362477D01*
X166235700Y-71493802D01*
X166235698Y-71493803D01*
X166235695Y-71493806D01*
X166073806Y-71655695D01*
X165942476Y-71843252D01*
X165942475Y-71843254D01*
X165845718Y-72050750D01*
X165845714Y-72050761D01*
X165786457Y-72271910D01*
X165786456Y-72271918D01*
X165766502Y-72499998D01*
X165766502Y-72500001D01*
X165786456Y-72728081D01*
X165786457Y-72728089D01*
X165845714Y-72949238D01*
X165845718Y-72949249D01*
X165869384Y-73000000D01*
X165942477Y-73156749D01*
X166073802Y-73344300D01*
X166235700Y-73506198D01*
X166423251Y-73637523D01*
X166529268Y-73686959D01*
X166630750Y-73734281D01*
X166630752Y-73734281D01*
X166630757Y-73734284D01*
X166851913Y-73793543D01*
X167014832Y-73807796D01*
X167079998Y-73813498D01*
X167080000Y-73813498D01*
X167080002Y-73813498D01*
X167137021Y-73808509D01*
X167308087Y-73793543D01*
X167529243Y-73734284D01*
X167736749Y-73637523D01*
X167924300Y-73506198D01*
X168086198Y-73344300D01*
X168217523Y-73156749D01*
X168268118Y-73048247D01*
X168314290Y-72995807D01*
X168381483Y-72976655D01*
X168448365Y-72996870D01*
X168493699Y-73050036D01*
X168504500Y-73100651D01*
X168504500Y-96107364D01*
X168484815Y-96174403D01*
X168468181Y-96195045D01*
X165997233Y-98665994D01*
X165975995Y-98687231D01*
X165964500Y-98714982D01*
X165964500Y-99231907D01*
X165963903Y-99244062D01*
X165952505Y-99359778D01*
X165947763Y-99383618D01*
X165917832Y-99482290D01*
X165915789Y-99489024D01*
X165906486Y-99511482D01*
X165854561Y-99608627D01*
X165841056Y-99628839D01*
X165771176Y-99713988D01*
X165753988Y-99731176D01*
X165668839Y-99801056D01*
X165648627Y-99814561D01*
X165551482Y-99866486D01*
X165529028Y-99875787D01*
X165487028Y-99888528D01*
X165423618Y-99907763D01*
X165399778Y-99912505D01*
X165291162Y-99923203D01*
X165284060Y-99923903D01*
X165271907Y-99924500D01*
X100768093Y-99924500D01*
X100755939Y-99923903D01*
X100747995Y-99923120D01*
X100640221Y-99912505D01*
X100616381Y-99907763D01*
X100599445Y-99902625D01*
X100510968Y-99875786D01*
X100488517Y-99866486D01*
X100391372Y-99814561D01*
X100371160Y-99801056D01*
X100286011Y-99731176D01*
X100268823Y-99713988D01*
X100198943Y-99628839D01*
X100185438Y-99608627D01*
X100133510Y-99511476D01*
X100124215Y-99489037D01*
X100092234Y-99383612D01*
X100087494Y-99359777D01*
X100076097Y-99244061D01*
X100075500Y-99231907D01*
X100075500Y-96561345D01*
X126581500Y-96561345D01*
X126581500Y-98358654D01*
X126588011Y-98419202D01*
X126588011Y-98419204D01*
X126639111Y-98556204D01*
X126726739Y-98673261D01*
X126843796Y-98760889D01*
X126980799Y-98811989D01*
X127008050Y-98814918D01*
X127041345Y-98818499D01*
X127041362Y-98818500D01*
X128838638Y-98818500D01*
X128838654Y-98818499D01*
X128865692Y-98815591D01*
X128899201Y-98811989D01*
X129036204Y-98760889D01*
X129153261Y-98673261D01*
X129240889Y-98556204D01*
X129286138Y-98434887D01*
X129328009Y-98378956D01*
X129393474Y-98354539D01*
X129461746Y-98369391D01*
X129493545Y-98394236D01*
X129556760Y-98462906D01*
X129734424Y-98601189D01*
X129734425Y-98601189D01*
X129734427Y-98601191D01*
X129861135Y-98669761D01*
X129932426Y-98708342D01*
X130145365Y-98781444D01*
X130367431Y-98818500D01*
X130592569Y-98818500D01*
X130814635Y-98781444D01*
X131027574Y-98708342D01*
X131225576Y-98601189D01*
X131403240Y-98462906D01*
X131524594Y-98331082D01*
X131555715Y-98297276D01*
X131555715Y-98297275D01*
X131555722Y-98297268D01*
X131646193Y-98158790D01*
X131699338Y-98113437D01*
X131768569Y-98104013D01*
X131831905Y-98133515D01*
X131853804Y-98158787D01*
X131944278Y-98297268D01*
X131944283Y-98297273D01*
X131944284Y-98297276D01*
X132070968Y-98434889D01*
X132096760Y-98462906D01*
X132274424Y-98601189D01*
X132274425Y-98601189D01*
X132274427Y-98601191D01*
X132401135Y-98669761D01*
X132472426Y-98708342D01*
X132685365Y-98781444D01*
X132907431Y-98818500D01*
X133132569Y-98818500D01*
X133354635Y-98781444D01*
X133567574Y-98708342D01*
X133765576Y-98601189D01*
X133943240Y-98462906D01*
X134064594Y-98331082D01*
X134095715Y-98297276D01*
X134095715Y-98297275D01*
X134095722Y-98297268D01*
X134186193Y-98158790D01*
X134239338Y-98113437D01*
X134308569Y-98104013D01*
X134371905Y-98133515D01*
X134393804Y-98158787D01*
X134484278Y-98297268D01*
X134484283Y-98297273D01*
X134484284Y-98297276D01*
X134610968Y-98434889D01*
X134636760Y-98462906D01*
X134814424Y-98601189D01*
X134814425Y-98601189D01*
X134814427Y-98601191D01*
X134941135Y-98669761D01*
X135012426Y-98708342D01*
X135225365Y-98781444D01*
X135447431Y-98818500D01*
X135672569Y-98818500D01*
X135894635Y-98781444D01*
X136107574Y-98708342D01*
X136305576Y-98601189D01*
X136483240Y-98462906D01*
X136604594Y-98331082D01*
X136635715Y-98297276D01*
X136635715Y-98297275D01*
X136635722Y-98297268D01*
X136726193Y-98158790D01*
X136779338Y-98113437D01*
X136848569Y-98104013D01*
X136911905Y-98133515D01*
X136933804Y-98158787D01*
X137024278Y-98297268D01*
X137024283Y-98297273D01*
X137024284Y-98297276D01*
X137150968Y-98434889D01*
X137176760Y-98462906D01*
X137354424Y-98601189D01*
X137354425Y-98601189D01*
X137354427Y-98601191D01*
X137481135Y-98669761D01*
X137552426Y-98708342D01*
X137765365Y-98781444D01*
X137987431Y-98818500D01*
X138212569Y-98818500D01*
X138434635Y-98781444D01*
X138647574Y-98708342D01*
X138845576Y-98601189D01*
X139023240Y-98462906D01*
X139144594Y-98331082D01*
X139175715Y-98297276D01*
X139175715Y-98297275D01*
X139175722Y-98297268D01*
X139269749Y-98153347D01*
X139322894Y-98107994D01*
X139392125Y-98098570D01*
X139455461Y-98128072D01*
X139475130Y-98150048D01*
X139601890Y-98331078D01*
X139768917Y-98498105D01*
X139962421Y-98633600D01*
X140176507Y-98733429D01*
X140176516Y-98733433D01*
X140390000Y-98790634D01*
X140390000Y-97893012D01*
X140447007Y-97925925D01*
X140574174Y-97960000D01*
X140705826Y-97960000D01*
X140832993Y-97925925D01*
X140890000Y-97893012D01*
X140890000Y-98790633D01*
X141103483Y-98733433D01*
X141103492Y-98733429D01*
X141317578Y-98633600D01*
X141511082Y-98498105D01*
X141678105Y-98331082D01*
X141808425Y-98144968D01*
X141863002Y-98101344D01*
X141932501Y-98094151D01*
X141994855Y-98125673D01*
X142011575Y-98144968D01*
X142141894Y-98331082D01*
X142308917Y-98498105D01*
X142502421Y-98633600D01*
X142716507Y-98733429D01*
X142716516Y-98733433D01*
X142930000Y-98790634D01*
X142930000Y-97893012D01*
X142987007Y-97925925D01*
X143114174Y-97960000D01*
X143245826Y-97960000D01*
X143372993Y-97925925D01*
X143430000Y-97893012D01*
X143430000Y-98790633D01*
X143643483Y-98733433D01*
X143643492Y-98733429D01*
X143857578Y-98633600D01*
X144051082Y-98498105D01*
X144218105Y-98331082D01*
X144344868Y-98150048D01*
X144399445Y-98106423D01*
X144468944Y-98099231D01*
X144531298Y-98130753D01*
X144550251Y-98153350D01*
X144644276Y-98297265D01*
X144644284Y-98297276D01*
X144770968Y-98434889D01*
X144796760Y-98462906D01*
X144974424Y-98601189D01*
X144974425Y-98601189D01*
X144974427Y-98601191D01*
X145101135Y-98669761D01*
X145172426Y-98708342D01*
X145385365Y-98781444D01*
X145607431Y-98818500D01*
X145832569Y-98818500D01*
X146054635Y-98781444D01*
X146267574Y-98708342D01*
X146465576Y-98601189D01*
X146643240Y-98462906D01*
X146764594Y-98331082D01*
X146795715Y-98297276D01*
X146795717Y-98297273D01*
X146795722Y-98297268D01*
X146918860Y-98108791D01*
X147009296Y-97902616D01*
X147064564Y-97684368D01*
X147067164Y-97652993D01*
X147083156Y-97460005D01*
X147083156Y-97459994D01*
X147064565Y-97235640D01*
X147064563Y-97235628D01*
X147009296Y-97017385D01*
X146999071Y-96994075D01*
X146918860Y-96811209D01*
X146902706Y-96786484D01*
X146795723Y-96622734D01*
X146795715Y-96622723D01*
X146739212Y-96561345D01*
X149441500Y-96561345D01*
X149441500Y-98358654D01*
X149448011Y-98419202D01*
X149448011Y-98419204D01*
X149499111Y-98556204D01*
X149586739Y-98673261D01*
X149703796Y-98760889D01*
X149840799Y-98811989D01*
X149868050Y-98814918D01*
X149901345Y-98818499D01*
X149901362Y-98818500D01*
X151698638Y-98818500D01*
X151698654Y-98818499D01*
X151725692Y-98815591D01*
X151759201Y-98811989D01*
X151896204Y-98760889D01*
X152013261Y-98673261D01*
X152100889Y-98556204D01*
X152146138Y-98434887D01*
X152188009Y-98378956D01*
X152253474Y-98354539D01*
X152321746Y-98369391D01*
X152353545Y-98394236D01*
X152416760Y-98462906D01*
X152594424Y-98601189D01*
X152594425Y-98601189D01*
X152594427Y-98601191D01*
X152721135Y-98669761D01*
X152792426Y-98708342D01*
X153005365Y-98781444D01*
X153227431Y-98818500D01*
X153452569Y-98818500D01*
X153674635Y-98781444D01*
X153887574Y-98708342D01*
X154085576Y-98601189D01*
X154263240Y-98462906D01*
X154384594Y-98331082D01*
X154415715Y-98297276D01*
X154415715Y-98297275D01*
X154415722Y-98297268D01*
X154506193Y-98158790D01*
X154559338Y-98113437D01*
X154628569Y-98104013D01*
X154691905Y-98133515D01*
X154713804Y-98158787D01*
X154804278Y-98297268D01*
X154804283Y-98297273D01*
X154804284Y-98297276D01*
X154930968Y-98434889D01*
X154956760Y-98462906D01*
X155134424Y-98601189D01*
X155134425Y-98601189D01*
X155134427Y-98601191D01*
X155261135Y-98669761D01*
X155332426Y-98708342D01*
X155545365Y-98781444D01*
X155767431Y-98818500D01*
X155992569Y-98818500D01*
X156214635Y-98781444D01*
X156427574Y-98708342D01*
X156625576Y-98601189D01*
X156803240Y-98462906D01*
X156924594Y-98331082D01*
X156955715Y-98297276D01*
X156955715Y-98297275D01*
X156955722Y-98297268D01*
X157046193Y-98158790D01*
X157099338Y-98113437D01*
X157168569Y-98104013D01*
X157231905Y-98133515D01*
X157253804Y-98158787D01*
X157344278Y-98297268D01*
X157344283Y-98297273D01*
X157344284Y-98297276D01*
X157470968Y-98434889D01*
X157496760Y-98462906D01*
X157674424Y-98601189D01*
X157674425Y-98601189D01*
X157674427Y-98601191D01*
X157801135Y-98669761D01*
X157872426Y-98708342D01*
X158085365Y-98781444D01*
X158307431Y-98818500D01*
X158532569Y-98818500D01*
X158754635Y-98781444D01*
X158967574Y-98708342D01*
X159165576Y-98601189D01*
X159343240Y-98462906D01*
X159464594Y-98331082D01*
X159495715Y-98297276D01*
X159495715Y-98297275D01*
X159495722Y-98297268D01*
X159586193Y-98158790D01*
X159639338Y-98113437D01*
X159708569Y-98104013D01*
X159771905Y-98133515D01*
X159793804Y-98158787D01*
X159884278Y-98297268D01*
X159884283Y-98297273D01*
X159884284Y-98297276D01*
X160010968Y-98434889D01*
X160036760Y-98462906D01*
X160214424Y-98601189D01*
X160214425Y-98601189D01*
X160214427Y-98601191D01*
X160341135Y-98669761D01*
X160412426Y-98708342D01*
X160625365Y-98781444D01*
X160847431Y-98818500D01*
X161072569Y-98818500D01*
X161294635Y-98781444D01*
X161507574Y-98708342D01*
X161705576Y-98601189D01*
X161883240Y-98462906D01*
X162004594Y-98331082D01*
X162035715Y-98297276D01*
X162035715Y-98297275D01*
X162035722Y-98297268D01*
X162126193Y-98158790D01*
X162179338Y-98113437D01*
X162248569Y-98104013D01*
X162311905Y-98133515D01*
X162333804Y-98158787D01*
X162424278Y-98297268D01*
X162424283Y-98297273D01*
X162424284Y-98297276D01*
X162550968Y-98434889D01*
X162576760Y-98462906D01*
X162754424Y-98601189D01*
X162754425Y-98601189D01*
X162754427Y-98601191D01*
X162881135Y-98669761D01*
X162952426Y-98708342D01*
X163165365Y-98781444D01*
X163387431Y-98818500D01*
X163612569Y-98818500D01*
X163834635Y-98781444D01*
X164047574Y-98708342D01*
X164245576Y-98601189D01*
X164423240Y-98462906D01*
X164544594Y-98331082D01*
X164575715Y-98297276D01*
X164575717Y-98297273D01*
X164575722Y-98297268D01*
X164698860Y-98108791D01*
X164789296Y-97902616D01*
X164844564Y-97684368D01*
X164847164Y-97652993D01*
X164863156Y-97460005D01*
X164863156Y-97459994D01*
X164844565Y-97235640D01*
X164844563Y-97235628D01*
X164789296Y-97017385D01*
X164779071Y-96994075D01*
X164698860Y-96811209D01*
X164682706Y-96786484D01*
X164575723Y-96622734D01*
X164575715Y-96622723D01*
X164423243Y-96457097D01*
X164423238Y-96457092D01*
X164245577Y-96318812D01*
X164245572Y-96318808D01*
X164047580Y-96211661D01*
X164047577Y-96211659D01*
X164047574Y-96211658D01*
X164047571Y-96211657D01*
X164047569Y-96211656D01*
X163834637Y-96138556D01*
X163612569Y-96101500D01*
X163387431Y-96101500D01*
X163165362Y-96138556D01*
X162952430Y-96211656D01*
X162952419Y-96211661D01*
X162754427Y-96318808D01*
X162754422Y-96318812D01*
X162576761Y-96457092D01*
X162576756Y-96457097D01*
X162424284Y-96622723D01*
X162424276Y-96622734D01*
X162333808Y-96761206D01*
X162280662Y-96806562D01*
X162211431Y-96815986D01*
X162148095Y-96786484D01*
X162126192Y-96761206D01*
X162035723Y-96622734D01*
X162035715Y-96622723D01*
X161883243Y-96457097D01*
X161883238Y-96457092D01*
X161705577Y-96318812D01*
X161705572Y-96318808D01*
X161507580Y-96211661D01*
X161507577Y-96211659D01*
X161507574Y-96211658D01*
X161507571Y-96211657D01*
X161507569Y-96211656D01*
X161294637Y-96138556D01*
X161072569Y-96101500D01*
X160847431Y-96101500D01*
X160625362Y-96138556D01*
X160412430Y-96211656D01*
X160412419Y-96211661D01*
X160214427Y-96318808D01*
X160214422Y-96318812D01*
X160036761Y-96457092D01*
X160036756Y-96457097D01*
X159884284Y-96622723D01*
X159884276Y-96622734D01*
X159793808Y-96761206D01*
X159740662Y-96806562D01*
X159671431Y-96815986D01*
X159608095Y-96786484D01*
X159586192Y-96761206D01*
X159495723Y-96622734D01*
X159495715Y-96622723D01*
X159343243Y-96457097D01*
X159343238Y-96457092D01*
X159165577Y-96318812D01*
X159165572Y-96318808D01*
X158967580Y-96211661D01*
X158967577Y-96211659D01*
X158967574Y-96211658D01*
X158967571Y-96211657D01*
X158967569Y-96211656D01*
X158754637Y-96138556D01*
X158532569Y-96101500D01*
X158307431Y-96101500D01*
X158085362Y-96138556D01*
X157872430Y-96211656D01*
X157872419Y-96211661D01*
X157674427Y-96318808D01*
X157674422Y-96318812D01*
X157496761Y-96457092D01*
X157496756Y-96457097D01*
X157344284Y-96622723D01*
X157344276Y-96622734D01*
X157253808Y-96761206D01*
X157200662Y-96806562D01*
X157131431Y-96815986D01*
X157068095Y-96786484D01*
X157046192Y-96761206D01*
X156955723Y-96622734D01*
X156955715Y-96622723D01*
X156803243Y-96457097D01*
X156803238Y-96457092D01*
X156625577Y-96318812D01*
X156625572Y-96318808D01*
X156427580Y-96211661D01*
X156427577Y-96211659D01*
X156427574Y-96211658D01*
X156427571Y-96211657D01*
X156427569Y-96211656D01*
X156214637Y-96138556D01*
X155992569Y-96101500D01*
X155767431Y-96101500D01*
X155545362Y-96138556D01*
X155332430Y-96211656D01*
X155332419Y-96211661D01*
X155134427Y-96318808D01*
X155134422Y-96318812D01*
X154956761Y-96457092D01*
X154956756Y-96457097D01*
X154804284Y-96622723D01*
X154804276Y-96622734D01*
X154713808Y-96761206D01*
X154660662Y-96806562D01*
X154591431Y-96815986D01*
X154528095Y-96786484D01*
X154506192Y-96761206D01*
X154415723Y-96622734D01*
X154415715Y-96622723D01*
X154263243Y-96457097D01*
X154263238Y-96457092D01*
X154085577Y-96318812D01*
X154085572Y-96318808D01*
X153887580Y-96211661D01*
X153887577Y-96211659D01*
X153887574Y-96211658D01*
X153887571Y-96211657D01*
X153887569Y-96211656D01*
X153674637Y-96138556D01*
X153452569Y-96101500D01*
X153227431Y-96101500D01*
X153005362Y-96138556D01*
X152792430Y-96211656D01*
X152792419Y-96211661D01*
X152594427Y-96318808D01*
X152594422Y-96318812D01*
X152416761Y-96457092D01*
X152353548Y-96525760D01*
X152293661Y-96561750D01*
X152223823Y-96559649D01*
X152166207Y-96520124D01*
X152146138Y-96485110D01*
X152100889Y-96363796D01*
X152067214Y-96318812D01*
X152013261Y-96246739D01*
X151896204Y-96159111D01*
X151895172Y-96158726D01*
X151759203Y-96108011D01*
X151698654Y-96101500D01*
X151698638Y-96101500D01*
X149901362Y-96101500D01*
X149901345Y-96101500D01*
X149840797Y-96108011D01*
X149840795Y-96108011D01*
X149703795Y-96159111D01*
X149586739Y-96246739D01*
X149499111Y-96363795D01*
X149448011Y-96500795D01*
X149448011Y-96500797D01*
X149441500Y-96561345D01*
X146739212Y-96561345D01*
X146643243Y-96457097D01*
X146643238Y-96457092D01*
X146465577Y-96318812D01*
X146465572Y-96318808D01*
X146267580Y-96211661D01*
X146267577Y-96211659D01*
X146267574Y-96211658D01*
X146267571Y-96211657D01*
X146267569Y-96211656D01*
X146054637Y-96138556D01*
X145832569Y-96101500D01*
X145607431Y-96101500D01*
X145385362Y-96138556D01*
X145172430Y-96211656D01*
X145172419Y-96211661D01*
X144974427Y-96318808D01*
X144974422Y-96318812D01*
X144796761Y-96457092D01*
X144796756Y-96457097D01*
X144644284Y-96622723D01*
X144644276Y-96622734D01*
X144550251Y-96766650D01*
X144497105Y-96812007D01*
X144427873Y-96821430D01*
X144364538Y-96791928D01*
X144344868Y-96769951D01*
X144218113Y-96588926D01*
X144218108Y-96588920D01*
X144051082Y-96421894D01*
X143857578Y-96286399D01*
X143643492Y-96186570D01*
X143643486Y-96186567D01*
X143430000Y-96129364D01*
X143430000Y-97026988D01*
X143372993Y-96994075D01*
X143245826Y-96960000D01*
X143114174Y-96960000D01*
X142987007Y-96994075D01*
X142930000Y-97026988D01*
X142930000Y-96129364D01*
X142929999Y-96129364D01*
X142716513Y-96186567D01*
X142716507Y-96186570D01*
X142502422Y-96286399D01*
X142502420Y-96286400D01*
X142308926Y-96421886D01*
X142308920Y-96421891D01*
X142141891Y-96588920D01*
X142141890Y-96588922D01*
X142011575Y-96775031D01*
X141956998Y-96818655D01*
X141887499Y-96825848D01*
X141825145Y-96794326D01*
X141808425Y-96775031D01*
X141678109Y-96588922D01*
X141678108Y-96588920D01*
X141511082Y-96421894D01*
X141317578Y-96286399D01*
X141103492Y-96186570D01*
X141103486Y-96186567D01*
X140890000Y-96129364D01*
X140890000Y-97026988D01*
X140832993Y-96994075D01*
X140705826Y-96960000D01*
X140574174Y-96960000D01*
X140447007Y-96994075D01*
X140390000Y-97026988D01*
X140390000Y-96129364D01*
X140389999Y-96129364D01*
X140176513Y-96186567D01*
X140176507Y-96186570D01*
X139962422Y-96286399D01*
X139962420Y-96286400D01*
X139768926Y-96421886D01*
X139768920Y-96421891D01*
X139601891Y-96588920D01*
X139601890Y-96588922D01*
X139475131Y-96769952D01*
X139420554Y-96813577D01*
X139351055Y-96820769D01*
X139288701Y-96789247D01*
X139269752Y-96766656D01*
X139175722Y-96622732D01*
X139175715Y-96622725D01*
X139175715Y-96622723D01*
X139023243Y-96457097D01*
X139023238Y-96457092D01*
X138845577Y-96318812D01*
X138845572Y-96318808D01*
X138647580Y-96211661D01*
X138647577Y-96211659D01*
X138647574Y-96211658D01*
X138647571Y-96211657D01*
X138647569Y-96211656D01*
X138434637Y-96138556D01*
X138212569Y-96101500D01*
X137987431Y-96101500D01*
X137765362Y-96138556D01*
X137552430Y-96211656D01*
X137552419Y-96211661D01*
X137354427Y-96318808D01*
X137354422Y-96318812D01*
X137176761Y-96457092D01*
X137176756Y-96457097D01*
X137024284Y-96622723D01*
X137024276Y-96622734D01*
X136933808Y-96761206D01*
X136880662Y-96806562D01*
X136811431Y-96815986D01*
X136748095Y-96786484D01*
X136726192Y-96761206D01*
X136635723Y-96622734D01*
X136635715Y-96622723D01*
X136483243Y-96457097D01*
X136483238Y-96457092D01*
X136305577Y-96318812D01*
X136305572Y-96318808D01*
X136107580Y-96211661D01*
X136107577Y-96211659D01*
X136107574Y-96211658D01*
X136107571Y-96211657D01*
X136107569Y-96211656D01*
X135894637Y-96138556D01*
X135672569Y-96101500D01*
X135447431Y-96101500D01*
X135225362Y-96138556D01*
X135012430Y-96211656D01*
X135012419Y-96211661D01*
X134814427Y-96318808D01*
X134814422Y-96318812D01*
X134636761Y-96457092D01*
X134636756Y-96457097D01*
X134484284Y-96622723D01*
X134484276Y-96622734D01*
X134393808Y-96761206D01*
X134340662Y-96806562D01*
X134271431Y-96815986D01*
X134208095Y-96786484D01*
X134186192Y-96761206D01*
X134095723Y-96622734D01*
X134095715Y-96622723D01*
X133943243Y-96457097D01*
X133943238Y-96457092D01*
X133765577Y-96318812D01*
X133765572Y-96318808D01*
X133567580Y-96211661D01*
X133567577Y-96211659D01*
X133567574Y-96211658D01*
X133567571Y-96211657D01*
X133567569Y-96211656D01*
X133354637Y-96138556D01*
X133132569Y-96101500D01*
X132907431Y-96101500D01*
X132685362Y-96138556D01*
X132472430Y-96211656D01*
X132472419Y-96211661D01*
X132274427Y-96318808D01*
X132274422Y-96318812D01*
X132096761Y-96457092D01*
X132096756Y-96457097D01*
X131944284Y-96622723D01*
X131944276Y-96622734D01*
X131853808Y-96761206D01*
X131800662Y-96806562D01*
X131731431Y-96815986D01*
X131668095Y-96786484D01*
X131646192Y-96761206D01*
X131555723Y-96622734D01*
X131555715Y-96622723D01*
X131403243Y-96457097D01*
X131403238Y-96457092D01*
X131225577Y-96318812D01*
X131225572Y-96318808D01*
X131027580Y-96211661D01*
X131027577Y-96211659D01*
X131027574Y-96211658D01*
X131027571Y-96211657D01*
X131027569Y-96211656D01*
X130814637Y-96138556D01*
X130592569Y-96101500D01*
X130367431Y-96101500D01*
X130145362Y-96138556D01*
X129932430Y-96211656D01*
X129932419Y-96211661D01*
X129734427Y-96318808D01*
X129734422Y-96318812D01*
X129556761Y-96457092D01*
X129493548Y-96525760D01*
X129433661Y-96561750D01*
X129363823Y-96559649D01*
X129306207Y-96520124D01*
X129286138Y-96485110D01*
X129240889Y-96363796D01*
X129207214Y-96318812D01*
X129153261Y-96246739D01*
X129036204Y-96159111D01*
X129035172Y-96158726D01*
X128899203Y-96108011D01*
X128838654Y-96101500D01*
X128838638Y-96101500D01*
X127041362Y-96101500D01*
X127041345Y-96101500D01*
X126980797Y-96108011D01*
X126980795Y-96108011D01*
X126843795Y-96159111D01*
X126726739Y-96246739D01*
X126639111Y-96363795D01*
X126588011Y-96500795D01*
X126588011Y-96500797D01*
X126581500Y-96561345D01*
X100075500Y-96561345D01*
X100075500Y-92250000D01*
X132736835Y-92250000D01*
X132755465Y-92486714D01*
X132810895Y-92717595D01*
X132810895Y-92717597D01*
X132901757Y-92936959D01*
X132901759Y-92936962D01*
X133025820Y-93139410D01*
X133025821Y-93139413D01*
X133025824Y-93139416D01*
X133180031Y-93319969D01*
X133319797Y-93439340D01*
X133360586Y-93474178D01*
X133360589Y-93474179D01*
X133563037Y-93598240D01*
X133563040Y-93598242D01*
X133782403Y-93689104D01*
X133782404Y-93689104D01*
X133782406Y-93689105D01*
X134013289Y-93744535D01*
X134250000Y-93763165D01*
X134486711Y-93744535D01*
X134717594Y-93689105D01*
X134717596Y-93689104D01*
X134717597Y-93689104D01*
X134936959Y-93598242D01*
X134936960Y-93598241D01*
X134936963Y-93598240D01*
X135139416Y-93474176D01*
X135319969Y-93319969D01*
X135474176Y-93139416D01*
X135598240Y-92936963D01*
X135666076Y-92773193D01*
X135689104Y-92717597D01*
X135689104Y-92717596D01*
X135689105Y-92717594D01*
X135744535Y-92486711D01*
X135763165Y-92250000D01*
X139236835Y-92250000D01*
X139255465Y-92486714D01*
X139310895Y-92717595D01*
X139310895Y-92717597D01*
X139401757Y-92936959D01*
X139401759Y-92936962D01*
X139525820Y-93139410D01*
X139525821Y-93139413D01*
X139525824Y-93139416D01*
X139680031Y-93319969D01*
X139819797Y-93439340D01*
X139860586Y-93474178D01*
X139860589Y-93474179D01*
X140063037Y-93598240D01*
X140063040Y-93598242D01*
X140282403Y-93689104D01*
X140282404Y-93689104D01*
X140282406Y-93689105D01*
X140513289Y-93744535D01*
X140750000Y-93763165D01*
X140986711Y-93744535D01*
X141217594Y-93689105D01*
X141217596Y-93689104D01*
X141217597Y-93689104D01*
X141436959Y-93598242D01*
X141436960Y-93598241D01*
X141436963Y-93598240D01*
X141639416Y-93474176D01*
X141819969Y-93319969D01*
X141974176Y-93139416D01*
X142098240Y-92936963D01*
X142166076Y-92773193D01*
X142189104Y-92717597D01*
X142189104Y-92717596D01*
X142189105Y-92717594D01*
X142244535Y-92486711D01*
X142263165Y-92250000D01*
X142244535Y-92013289D01*
X142189105Y-91782406D01*
X142189104Y-91782403D01*
X142189104Y-91782402D01*
X142098242Y-91563040D01*
X142098240Y-91563037D01*
X142059611Y-91500000D01*
X144486835Y-91500000D01*
X144505465Y-91736714D01*
X144560895Y-91967595D01*
X144560895Y-91967597D01*
X144651757Y-92186959D01*
X144651759Y-92186962D01*
X144775820Y-92389410D01*
X144775821Y-92389413D01*
X144775824Y-92389416D01*
X144930031Y-92569969D01*
X145069797Y-92689340D01*
X145110586Y-92724178D01*
X145110588Y-92724178D01*
X145190572Y-92773193D01*
X145313037Y-92848240D01*
X145313040Y-92848242D01*
X145532403Y-92939104D01*
X145532404Y-92939104D01*
X145532406Y-92939105D01*
X145763289Y-92994535D01*
X146000000Y-93013165D01*
X146236711Y-92994535D01*
X146467594Y-92939105D01*
X146467596Y-92939104D01*
X146467597Y-92939104D01*
X146686959Y-92848242D01*
X146686960Y-92848241D01*
X146686963Y-92848240D01*
X146889416Y-92724176D01*
X147069969Y-92569969D01*
X147224176Y-92389416D01*
X147348240Y-92186963D01*
X147360817Y-92156601D01*
X147439104Y-91967597D01*
X147439104Y-91967596D01*
X147439105Y-91967594D01*
X147494535Y-91736711D01*
X147513165Y-91500000D01*
X150986835Y-91500000D01*
X151005465Y-91736714D01*
X151060895Y-91967595D01*
X151060895Y-91967597D01*
X151151757Y-92186959D01*
X151151759Y-92186962D01*
X151275820Y-92389410D01*
X151275821Y-92389413D01*
X151275824Y-92389416D01*
X151430031Y-92569969D01*
X151569797Y-92689340D01*
X151610586Y-92724178D01*
X151610588Y-92724178D01*
X151690572Y-92773193D01*
X151813037Y-92848240D01*
X151813040Y-92848242D01*
X152032403Y-92939104D01*
X152032404Y-92939104D01*
X152032406Y-92939105D01*
X152263289Y-92994535D01*
X152500000Y-93013165D01*
X152736711Y-92994535D01*
X152967594Y-92939105D01*
X152967596Y-92939104D01*
X152967597Y-92939104D01*
X153186959Y-92848242D01*
X153186960Y-92848241D01*
X153186963Y-92848240D01*
X153389416Y-92724176D01*
X153569969Y-92569969D01*
X153724176Y-92389416D01*
X153848240Y-92186963D01*
X153860817Y-92156601D01*
X153939104Y-91967597D01*
X153939104Y-91967596D01*
X153939105Y-91967594D01*
X153994535Y-91736711D01*
X154010017Y-91539998D01*
X159726807Y-91539998D01*
X159726807Y-91540001D01*
X159745541Y-91754136D01*
X159745542Y-91754144D01*
X159801176Y-91961772D01*
X159801177Y-91961774D01*
X159801178Y-91961777D01*
X159892024Y-92156597D01*
X159892026Y-92156601D01*
X160015319Y-92332682D01*
X160167317Y-92484680D01*
X160343398Y-92607973D01*
X160343400Y-92607974D01*
X160343403Y-92607976D01*
X160538223Y-92698822D01*
X160745858Y-92754458D01*
X160898816Y-92767840D01*
X160959998Y-92773193D01*
X160960000Y-92773193D01*
X160960002Y-92773193D01*
X161013535Y-92768509D01*
X161174142Y-92754458D01*
X161381777Y-92698822D01*
X161576597Y-92607976D01*
X161752681Y-92484681D01*
X161904681Y-92332681D01*
X162027976Y-92156597D01*
X162118822Y-91961777D01*
X162174458Y-91754142D01*
X162193193Y-91540000D01*
X162189693Y-91500000D01*
X162187840Y-91478816D01*
X162174458Y-91325858D01*
X162118822Y-91118223D01*
X162027976Y-90923404D01*
X161904681Y-90747319D01*
X161904679Y-90747316D01*
X161752682Y-90595319D01*
X161576601Y-90472026D01*
X161576597Y-90472024D01*
X161576595Y-90472023D01*
X161381777Y-90381178D01*
X161381774Y-90381177D01*
X161381772Y-90381176D01*
X161174144Y-90325542D01*
X161174136Y-90325541D01*
X160960002Y-90306807D01*
X160959998Y-90306807D01*
X160745863Y-90325541D01*
X160745855Y-90325542D01*
X160538227Y-90381176D01*
X160538221Y-90381179D01*
X160343405Y-90472023D01*
X160343403Y-90472024D01*
X160167316Y-90595320D01*
X160015320Y-90747316D01*
X159892024Y-90923403D01*
X159892023Y-90923405D01*
X159801179Y-91118221D01*
X159801176Y-91118227D01*
X159745542Y-91325855D01*
X159745541Y-91325863D01*
X159726807Y-91539998D01*
X154010017Y-91539998D01*
X154013165Y-91500000D01*
X153994535Y-91263289D01*
X153939105Y-91032406D01*
X153939104Y-91032403D01*
X153939104Y-91032402D01*
X153848242Y-90813040D01*
X153848240Y-90813037D01*
X153724179Y-90610589D01*
X153724178Y-90610586D01*
X153689340Y-90569797D01*
X153569969Y-90430031D01*
X153447627Y-90325541D01*
X153389413Y-90275821D01*
X153389410Y-90275820D01*
X153186962Y-90151759D01*
X153186959Y-90151757D01*
X152967596Y-90060895D01*
X152736714Y-90005465D01*
X152500000Y-89986835D01*
X152263285Y-90005465D01*
X152032404Y-90060895D01*
X152032402Y-90060895D01*
X151813040Y-90151757D01*
X151813037Y-90151759D01*
X151610589Y-90275820D01*
X151610586Y-90275821D01*
X151430031Y-90430031D01*
X151275821Y-90610586D01*
X151275820Y-90610589D01*
X151151759Y-90813037D01*
X151151757Y-90813040D01*
X151060895Y-91032402D01*
X151060895Y-91032404D01*
X151005465Y-91263285D01*
X150986835Y-91500000D01*
X147513165Y-91500000D01*
X147494535Y-91263289D01*
X147439105Y-91032406D01*
X147439104Y-91032403D01*
X147439104Y-91032402D01*
X147348242Y-90813040D01*
X147348240Y-90813037D01*
X147224179Y-90610589D01*
X147224178Y-90610586D01*
X147189340Y-90569797D01*
X147069969Y-90430031D01*
X146947627Y-90325541D01*
X146889413Y-90275821D01*
X146889410Y-90275820D01*
X146686962Y-90151759D01*
X146686959Y-90151757D01*
X146467596Y-90060895D01*
X146236714Y-90005465D01*
X146000000Y-89986835D01*
X145763285Y-90005465D01*
X145532404Y-90060895D01*
X145532402Y-90060895D01*
X145313040Y-90151757D01*
X145313037Y-90151759D01*
X145110589Y-90275820D01*
X145110586Y-90275821D01*
X144930031Y-90430031D01*
X144775821Y-90610586D01*
X144775820Y-90610589D01*
X144651759Y-90813037D01*
X144651757Y-90813040D01*
X144560895Y-91032402D01*
X144560895Y-91032404D01*
X144505465Y-91263285D01*
X144486835Y-91500000D01*
X142059611Y-91500000D01*
X141974179Y-91360589D01*
X141974178Y-91360586D01*
X141891078Y-91263289D01*
X141819969Y-91180031D01*
X141647123Y-91032406D01*
X141639413Y-91025821D01*
X141639410Y-91025820D01*
X141436962Y-90901759D01*
X141436959Y-90901757D01*
X141217596Y-90810895D01*
X140986714Y-90755465D01*
X140750000Y-90736835D01*
X140513285Y-90755465D01*
X140282404Y-90810895D01*
X140282402Y-90810895D01*
X140063040Y-90901757D01*
X140063037Y-90901759D01*
X139860589Y-91025820D01*
X139860586Y-91025821D01*
X139680031Y-91180031D01*
X139525821Y-91360586D01*
X139525820Y-91360589D01*
X139401759Y-91563037D01*
X139401757Y-91563040D01*
X139310895Y-91782402D01*
X139310895Y-91782404D01*
X139255465Y-92013285D01*
X139236835Y-92250000D01*
X135763165Y-92250000D01*
X135744535Y-92013289D01*
X135689105Y-91782406D01*
X135689104Y-91782403D01*
X135689104Y-91782402D01*
X135598242Y-91563040D01*
X135598240Y-91563037D01*
X135474179Y-91360589D01*
X135474178Y-91360586D01*
X135391078Y-91263289D01*
X135319969Y-91180031D01*
X135147123Y-91032406D01*
X135139413Y-91025821D01*
X135139410Y-91025820D01*
X134936962Y-90901759D01*
X134936959Y-90901757D01*
X134717596Y-90810895D01*
X134486714Y-90755465D01*
X134250000Y-90736835D01*
X134013285Y-90755465D01*
X133782404Y-90810895D01*
X133782402Y-90810895D01*
X133563040Y-90901757D01*
X133563037Y-90901759D01*
X133360589Y-91025820D01*
X133360586Y-91025821D01*
X133180031Y-91180031D01*
X133025821Y-91360586D01*
X133025820Y-91360589D01*
X132901759Y-91563037D01*
X132901757Y-91563040D01*
X132810895Y-91782402D01*
X132810895Y-91782404D01*
X132755465Y-92013285D01*
X132736835Y-92250000D01*
X100075500Y-92250000D01*
X100075500Y-87750000D01*
X132736835Y-87750000D01*
X132755465Y-87986714D01*
X132810895Y-88217595D01*
X132810895Y-88217597D01*
X132901757Y-88436959D01*
X132901759Y-88436962D01*
X133025820Y-88639410D01*
X133025821Y-88639413D01*
X133025824Y-88639416D01*
X133180031Y-88819969D01*
X133319797Y-88939340D01*
X133360586Y-88974178D01*
X133360588Y-88974178D01*
X133402723Y-88999999D01*
X133563037Y-89098240D01*
X133563040Y-89098242D01*
X133782403Y-89189104D01*
X133782404Y-89189104D01*
X133782406Y-89189105D01*
X134013289Y-89244535D01*
X134250000Y-89263165D01*
X134486711Y-89244535D01*
X134717594Y-89189105D01*
X134717596Y-89189104D01*
X134717597Y-89189104D01*
X134936959Y-89098242D01*
X134936960Y-89098241D01*
X134936963Y-89098240D01*
X135139416Y-88974176D01*
X135319969Y-88819969D01*
X135474176Y-88639416D01*
X135598240Y-88436963D01*
X135618658Y-88387671D01*
X135689104Y-88217597D01*
X135689104Y-88217596D01*
X135689105Y-88217594D01*
X135744535Y-87986711D01*
X135763165Y-87750000D01*
X139236835Y-87750000D01*
X139255465Y-87986714D01*
X139310895Y-88217595D01*
X139310895Y-88217597D01*
X139401757Y-88436959D01*
X139401759Y-88436962D01*
X139525820Y-88639410D01*
X139525821Y-88639413D01*
X139525824Y-88639416D01*
X139680031Y-88819969D01*
X139819797Y-88939340D01*
X139860586Y-88974178D01*
X139860588Y-88974178D01*
X139902723Y-88999999D01*
X140063037Y-89098240D01*
X140063040Y-89098242D01*
X140282403Y-89189104D01*
X140282404Y-89189104D01*
X140282406Y-89189105D01*
X140513289Y-89244535D01*
X140750000Y-89263165D01*
X140986711Y-89244535D01*
X141217594Y-89189105D01*
X141217596Y-89189104D01*
X141217597Y-89189104D01*
X141436959Y-89098242D01*
X141436960Y-89098241D01*
X141436963Y-89098240D01*
X141597279Y-88999998D01*
X157186807Y-88999998D01*
X157186807Y-89000001D01*
X157205541Y-89214136D01*
X157205542Y-89214144D01*
X157261176Y-89421772D01*
X157261177Y-89421774D01*
X157261178Y-89421777D01*
X157350032Y-89612325D01*
X157352024Y-89616597D01*
X157352026Y-89616601D01*
X157475319Y-89792682D01*
X157627317Y-89944680D01*
X157803398Y-90067973D01*
X157803400Y-90067974D01*
X157803403Y-90067976D01*
X157998223Y-90158822D01*
X158205858Y-90214458D01*
X158358816Y-90227840D01*
X158419998Y-90233193D01*
X158420000Y-90233193D01*
X158420002Y-90233193D01*
X158473535Y-90228509D01*
X158634142Y-90214458D01*
X158841777Y-90158822D01*
X159036597Y-90067976D01*
X159212681Y-89944681D01*
X159364681Y-89792681D01*
X159487976Y-89616597D01*
X159578822Y-89421777D01*
X159634458Y-89214142D01*
X159653193Y-89000000D01*
X159653193Y-88999997D01*
X162275340Y-88999997D01*
X162275340Y-89000002D01*
X162293944Y-89212654D01*
X162293945Y-89212662D01*
X162349194Y-89418853D01*
X162349197Y-89418859D01*
X162439413Y-89612329D01*
X162478415Y-89668030D01*
X163100000Y-89046445D01*
X163100000Y-89052661D01*
X163127259Y-89154394D01*
X163179920Y-89245606D01*
X163254394Y-89320080D01*
X163345606Y-89372741D01*
X163447339Y-89400000D01*
X163453554Y-89400000D01*
X162831968Y-90021584D01*
X162887663Y-90060582D01*
X162887669Y-90060586D01*
X163081140Y-90150802D01*
X163081146Y-90150805D01*
X163287337Y-90206054D01*
X163287345Y-90206055D01*
X163499998Y-90224660D01*
X163500002Y-90224660D01*
X163712654Y-90206055D01*
X163712662Y-90206054D01*
X163918853Y-90150805D01*
X163918864Y-90150801D01*
X164112325Y-90060589D01*
X164168030Y-90021583D01*
X163546447Y-89400000D01*
X163552661Y-89400000D01*
X163654394Y-89372741D01*
X163745606Y-89320080D01*
X163820080Y-89245606D01*
X163872741Y-89154394D01*
X163900000Y-89052661D01*
X163900000Y-89046446D01*
X164521583Y-89668029D01*
X164560589Y-89612325D01*
X164650801Y-89418864D01*
X164650805Y-89418853D01*
X164706054Y-89212662D01*
X164706055Y-89212654D01*
X164724660Y-89000002D01*
X164724660Y-88999997D01*
X164706055Y-88787345D01*
X164706054Y-88787337D01*
X164650805Y-88581146D01*
X164650802Y-88581140D01*
X164560586Y-88387669D01*
X164560582Y-88387663D01*
X164521584Y-88331968D01*
X163900000Y-88953552D01*
X163900000Y-88947339D01*
X163872741Y-88845606D01*
X163820080Y-88754394D01*
X163745606Y-88679920D01*
X163654394Y-88627259D01*
X163552661Y-88600000D01*
X163546447Y-88600000D01*
X164168030Y-87978415D01*
X164112329Y-87939413D01*
X163918859Y-87849197D01*
X163918853Y-87849194D01*
X163712662Y-87793945D01*
X163712654Y-87793944D01*
X163500002Y-87775340D01*
X163499998Y-87775340D01*
X163287345Y-87793944D01*
X163287337Y-87793945D01*
X163081146Y-87849194D01*
X163081140Y-87849197D01*
X162887671Y-87939412D01*
X162887669Y-87939413D01*
X162831969Y-87978415D01*
X162831968Y-87978415D01*
X163453554Y-88600000D01*
X163447339Y-88600000D01*
X163345606Y-88627259D01*
X163254394Y-88679920D01*
X163179920Y-88754394D01*
X163127259Y-88845606D01*
X163100000Y-88947339D01*
X163100000Y-88953553D01*
X162478415Y-88331968D01*
X162478415Y-88331969D01*
X162439413Y-88387669D01*
X162439412Y-88387671D01*
X162349197Y-88581140D01*
X162349194Y-88581146D01*
X162293945Y-88787337D01*
X162293944Y-88787345D01*
X162275340Y-88999997D01*
X159653193Y-88999997D01*
X159634458Y-88785858D01*
X159578822Y-88578223D01*
X159487976Y-88383404D01*
X159364681Y-88207319D01*
X159364679Y-88207316D01*
X159212682Y-88055319D01*
X159036601Y-87932026D01*
X159036597Y-87932024D01*
X159036595Y-87932023D01*
X158841777Y-87841178D01*
X158841774Y-87841177D01*
X158841772Y-87841176D01*
X158634144Y-87785542D01*
X158634136Y-87785541D01*
X158420002Y-87766807D01*
X158419998Y-87766807D01*
X158205863Y-87785541D01*
X158205855Y-87785542D01*
X157998227Y-87841176D01*
X157998221Y-87841179D01*
X157803405Y-87932023D01*
X157803403Y-87932024D01*
X157627316Y-88055320D01*
X157475320Y-88207316D01*
X157352024Y-88383403D01*
X157352023Y-88383405D01*
X157261179Y-88578221D01*
X157261176Y-88578227D01*
X157205542Y-88785855D01*
X157205541Y-88785863D01*
X157186807Y-88999998D01*
X141597279Y-88999998D01*
X141639416Y-88974176D01*
X141819969Y-88819969D01*
X141974176Y-88639416D01*
X142098240Y-88436963D01*
X142118658Y-88387671D01*
X142189104Y-88217597D01*
X142189104Y-88217596D01*
X142189105Y-88217594D01*
X142244535Y-87986711D01*
X142263165Y-87750000D01*
X142244535Y-87513289D01*
X142189105Y-87282406D01*
X142189104Y-87282403D01*
X142189104Y-87282402D01*
X142098242Y-87063040D01*
X142098240Y-87063037D01*
X142059611Y-87000000D01*
X144486835Y-87000000D01*
X144505465Y-87236714D01*
X144560895Y-87467595D01*
X144560895Y-87467597D01*
X144651757Y-87686959D01*
X144651759Y-87686962D01*
X144775820Y-87889410D01*
X144775821Y-87889413D01*
X144828076Y-87950596D01*
X144930031Y-88069969D01*
X145069797Y-88189340D01*
X145110586Y-88224178D01*
X145110589Y-88224179D01*
X145313037Y-88348240D01*
X145313040Y-88348242D01*
X145532403Y-88439104D01*
X145532404Y-88439104D01*
X145532406Y-88439105D01*
X145763289Y-88494535D01*
X146000000Y-88513165D01*
X146236711Y-88494535D01*
X146467594Y-88439105D01*
X146467596Y-88439104D01*
X146467597Y-88439104D01*
X146686959Y-88348242D01*
X146686960Y-88348241D01*
X146686963Y-88348240D01*
X146889416Y-88224176D01*
X147069969Y-88069969D01*
X147224176Y-87889416D01*
X147348240Y-87686963D01*
X147420180Y-87513285D01*
X147439104Y-87467597D01*
X147439104Y-87467596D01*
X147439105Y-87467594D01*
X147494535Y-87236711D01*
X147513165Y-87000000D01*
X150986835Y-87000000D01*
X151005465Y-87236714D01*
X151060895Y-87467595D01*
X151060895Y-87467597D01*
X151151757Y-87686959D01*
X151151759Y-87686962D01*
X151275820Y-87889410D01*
X151275821Y-87889413D01*
X151328076Y-87950596D01*
X151430031Y-88069969D01*
X151569797Y-88189340D01*
X151610586Y-88224178D01*
X151610589Y-88224179D01*
X151813037Y-88348240D01*
X151813040Y-88348242D01*
X152032403Y-88439104D01*
X152032404Y-88439104D01*
X152032406Y-88439105D01*
X152263289Y-88494535D01*
X152500000Y-88513165D01*
X152736711Y-88494535D01*
X152967594Y-88439105D01*
X152967596Y-88439104D01*
X152967597Y-88439104D01*
X153186959Y-88348242D01*
X153186960Y-88348241D01*
X153186963Y-88348240D01*
X153389416Y-88224176D01*
X153569969Y-88069969D01*
X153724176Y-87889416D01*
X153848240Y-87686963D01*
X153920180Y-87513285D01*
X153939104Y-87467597D01*
X153939104Y-87467596D01*
X153939105Y-87467594D01*
X153994535Y-87236711D01*
X154013165Y-87000000D01*
X153994535Y-86763289D01*
X153939105Y-86532406D01*
X153939104Y-86532403D01*
X153939104Y-86532402D01*
X153848242Y-86313040D01*
X153848240Y-86313037D01*
X153724179Y-86110589D01*
X153724178Y-86110586D01*
X153689340Y-86069797D01*
X153569969Y-85930031D01*
X153450596Y-85828076D01*
X153389413Y-85775821D01*
X153389410Y-85775820D01*
X153186962Y-85651759D01*
X153186959Y-85651757D01*
X152967596Y-85560895D01*
X152736714Y-85505465D01*
X152500000Y-85486835D01*
X152263285Y-85505465D01*
X152032404Y-85560895D01*
X152032402Y-85560895D01*
X151813040Y-85651757D01*
X151813037Y-85651759D01*
X151610589Y-85775820D01*
X151610586Y-85775821D01*
X151430031Y-85930031D01*
X151275821Y-86110586D01*
X151275820Y-86110589D01*
X151151759Y-86313037D01*
X151151757Y-86313040D01*
X151060895Y-86532402D01*
X151060895Y-86532404D01*
X151005465Y-86763285D01*
X150986835Y-87000000D01*
X147513165Y-87000000D01*
X147494535Y-86763289D01*
X147439105Y-86532406D01*
X147439104Y-86532403D01*
X147439104Y-86532402D01*
X147348242Y-86313040D01*
X147348240Y-86313037D01*
X147224179Y-86110589D01*
X147224178Y-86110586D01*
X147189340Y-86069797D01*
X147069969Y-85930031D01*
X146950596Y-85828076D01*
X146889413Y-85775821D01*
X146889410Y-85775820D01*
X146686962Y-85651759D01*
X146686959Y-85651757D01*
X146467596Y-85560895D01*
X146236714Y-85505465D01*
X146000000Y-85486835D01*
X145763285Y-85505465D01*
X145532404Y-85560895D01*
X145532402Y-85560895D01*
X145313040Y-85651757D01*
X145313037Y-85651759D01*
X145110589Y-85775820D01*
X145110586Y-85775821D01*
X144930031Y-85930031D01*
X144775821Y-86110586D01*
X144775820Y-86110589D01*
X144651759Y-86313037D01*
X144651757Y-86313040D01*
X144560895Y-86532402D01*
X144560895Y-86532404D01*
X144505465Y-86763285D01*
X144486835Y-87000000D01*
X142059611Y-87000000D01*
X141974179Y-86860589D01*
X141974178Y-86860586D01*
X141891078Y-86763289D01*
X141819969Y-86680031D01*
X141647123Y-86532406D01*
X141639413Y-86525821D01*
X141639410Y-86525820D01*
X141436962Y-86401759D01*
X141436959Y-86401757D01*
X141217596Y-86310895D01*
X140986714Y-86255465D01*
X140750000Y-86236835D01*
X140513285Y-86255465D01*
X140282404Y-86310895D01*
X140282402Y-86310895D01*
X140063040Y-86401757D01*
X140063037Y-86401759D01*
X139860589Y-86525820D01*
X139860586Y-86525821D01*
X139680031Y-86680031D01*
X139525821Y-86860586D01*
X139525820Y-86860589D01*
X139401759Y-87063037D01*
X139401757Y-87063040D01*
X139310895Y-87282402D01*
X139310895Y-87282404D01*
X139255465Y-87513285D01*
X139236835Y-87750000D01*
X135763165Y-87750000D01*
X135744535Y-87513289D01*
X135689105Y-87282406D01*
X135689104Y-87282403D01*
X135689104Y-87282402D01*
X135598242Y-87063040D01*
X135598240Y-87063037D01*
X135474179Y-86860589D01*
X135474178Y-86860586D01*
X135391078Y-86763289D01*
X135319969Y-86680031D01*
X135147123Y-86532406D01*
X135139413Y-86525821D01*
X135139410Y-86525820D01*
X134936962Y-86401759D01*
X134936959Y-86401757D01*
X134717596Y-86310895D01*
X134486714Y-86255465D01*
X134250000Y-86236835D01*
X134013285Y-86255465D01*
X133782404Y-86310895D01*
X133782402Y-86310895D01*
X133563040Y-86401757D01*
X133563037Y-86401759D01*
X133360589Y-86525820D01*
X133360586Y-86525821D01*
X133180031Y-86680031D01*
X133025821Y-86860586D01*
X133025820Y-86860589D01*
X132901759Y-87063037D01*
X132901757Y-87063040D01*
X132810895Y-87282402D01*
X132810895Y-87282404D01*
X132755465Y-87513285D01*
X132736835Y-87750000D01*
X100075500Y-87750000D01*
X100075500Y-82249999D01*
X130141127Y-82249999D01*
X130141128Y-82250000D01*
X131104314Y-82250000D01*
X131099920Y-82254394D01*
X131047259Y-82345606D01*
X131020000Y-82447339D01*
X131020000Y-82552661D01*
X131047259Y-82654394D01*
X131099920Y-82745606D01*
X131104314Y-82750000D01*
X130141128Y-82750000D01*
X130193730Y-82946317D01*
X130193734Y-82946326D01*
X130289865Y-83152482D01*
X130420342Y-83338820D01*
X130581179Y-83499657D01*
X130767517Y-83630134D01*
X130973673Y-83726265D01*
X130973682Y-83726269D01*
X131169999Y-83778872D01*
X131170000Y-83778871D01*
X131170000Y-82815686D01*
X131174394Y-82820080D01*
X131265606Y-82872741D01*
X131367339Y-82900000D01*
X131472661Y-82900000D01*
X131574394Y-82872741D01*
X131665606Y-82820080D01*
X131670000Y-82815686D01*
X131670000Y-83778872D01*
X131866317Y-83726269D01*
X131866326Y-83726265D01*
X132072482Y-83630134D01*
X132258820Y-83499657D01*
X132419657Y-83338820D01*
X132550134Y-83152482D01*
X132646265Y-82946326D01*
X132646269Y-82946317D01*
X132698872Y-82750000D01*
X131735686Y-82750000D01*
X131740080Y-82745606D01*
X131792741Y-82654394D01*
X131820000Y-82552661D01*
X131820000Y-82499998D01*
X140266502Y-82499998D01*
X140266502Y-82500001D01*
X140286456Y-82728081D01*
X140286457Y-82728089D01*
X140345714Y-82949238D01*
X140345718Y-82949249D01*
X140440487Y-83152482D01*
X140442477Y-83156749D01*
X140573802Y-83344300D01*
X140735700Y-83506198D01*
X140923251Y-83637523D01*
X141048091Y-83695736D01*
X141130750Y-83734281D01*
X141130752Y-83734281D01*
X141130757Y-83734284D01*
X141351913Y-83793543D01*
X141514832Y-83807796D01*
X141579998Y-83813498D01*
X141580000Y-83813498D01*
X141580002Y-83813498D01*
X141637021Y-83808509D01*
X141808087Y-83793543D01*
X142029243Y-83734284D01*
X142236749Y-83637523D01*
X142424300Y-83506198D01*
X142586198Y-83344300D01*
X142717523Y-83156749D01*
X142814284Y-82949243D01*
X142873543Y-82728087D01*
X142880738Y-82645847D01*
X142906189Y-82580781D01*
X142962779Y-82539802D01*
X143032541Y-82535923D01*
X143093326Y-82570376D01*
X143125834Y-82632223D01*
X143127793Y-82645847D01*
X143134858Y-82726601D01*
X143134860Y-82726610D01*
X143193730Y-82946317D01*
X143193734Y-82946326D01*
X143289865Y-83152482D01*
X143420342Y-83338820D01*
X143581179Y-83499657D01*
X143767517Y-83630134D01*
X143973673Y-83726265D01*
X143973682Y-83726269D01*
X144169999Y-83778872D01*
X144170000Y-83778871D01*
X144170000Y-82815686D01*
X144174394Y-82820080D01*
X144265606Y-82872741D01*
X144367339Y-82900000D01*
X144472661Y-82900000D01*
X144574394Y-82872741D01*
X144665606Y-82820080D01*
X144670000Y-82815686D01*
X144670000Y-83778872D01*
X144866317Y-83726269D01*
X144866326Y-83726265D01*
X145072482Y-83630134D01*
X145258820Y-83499657D01*
X145419657Y-83338820D01*
X145550134Y-83152482D01*
X145646265Y-82946326D01*
X145646269Y-82946317D01*
X145698872Y-82750000D01*
X144735686Y-82750000D01*
X144740080Y-82745606D01*
X144792741Y-82654394D01*
X144820000Y-82552661D01*
X144820000Y-82499998D01*
X153266502Y-82499998D01*
X153266502Y-82500001D01*
X153286456Y-82728081D01*
X153286457Y-82728089D01*
X153345714Y-82949238D01*
X153345718Y-82949249D01*
X153440487Y-83152482D01*
X153442477Y-83156749D01*
X153573802Y-83344300D01*
X153735700Y-83506198D01*
X153923251Y-83637523D01*
X154048091Y-83695736D01*
X154130750Y-83734281D01*
X154130752Y-83734281D01*
X154130757Y-83734284D01*
X154351913Y-83793543D01*
X154514832Y-83807796D01*
X154579998Y-83813498D01*
X154580000Y-83813498D01*
X154580002Y-83813498D01*
X154637021Y-83808509D01*
X154808087Y-83793543D01*
X155029243Y-83734284D01*
X155236749Y-83637523D01*
X155424300Y-83506198D01*
X155586198Y-83344300D01*
X155717523Y-83156749D01*
X155814284Y-82949243D01*
X155873543Y-82728087D01*
X155893498Y-82500000D01*
X155873543Y-82271913D01*
X155814284Y-82050757D01*
X155717523Y-81843251D01*
X155586198Y-81655700D01*
X155424300Y-81493802D01*
X155236749Y-81362477D01*
X155236745Y-81362475D01*
X155029249Y-81265718D01*
X155029238Y-81265714D01*
X154808089Y-81206457D01*
X154808081Y-81206456D01*
X154580002Y-81186502D01*
X154579998Y-81186502D01*
X154351918Y-81206456D01*
X154351910Y-81206457D01*
X154130761Y-81265714D01*
X154130750Y-81265718D01*
X153923254Y-81362475D01*
X153923252Y-81362476D01*
X153923251Y-81362477D01*
X153735700Y-81493802D01*
X153735698Y-81493803D01*
X153735695Y-81493806D01*
X153573806Y-81655695D01*
X153573803Y-81655698D01*
X153573802Y-81655700D01*
X153550412Y-81689105D01*
X153442476Y-81843252D01*
X153442475Y-81843254D01*
X153345718Y-82050750D01*
X153345714Y-82050761D01*
X153286457Y-82271910D01*
X153286456Y-82271918D01*
X153266502Y-82499998D01*
X144820000Y-82499998D01*
X144820000Y-82447339D01*
X144792741Y-82345606D01*
X144740080Y-82254394D01*
X144735686Y-82250000D01*
X145698872Y-82250000D01*
X145698872Y-82249999D01*
X145646269Y-82053682D01*
X145646265Y-82053673D01*
X145550134Y-81847517D01*
X145419657Y-81661179D01*
X145258820Y-81500342D01*
X145072482Y-81369865D01*
X144866328Y-81273734D01*
X144670000Y-81221127D01*
X144670000Y-82184314D01*
X144665606Y-82179920D01*
X144574394Y-82127259D01*
X144472661Y-82100000D01*
X144367339Y-82100000D01*
X144265606Y-82127259D01*
X144174394Y-82179920D01*
X144170000Y-82184314D01*
X144170000Y-81221127D01*
X143973671Y-81273734D01*
X143767517Y-81369865D01*
X143581179Y-81500342D01*
X143420342Y-81661179D01*
X143289865Y-81847517D01*
X143193734Y-82053673D01*
X143193730Y-82053682D01*
X143134860Y-82273389D01*
X143134858Y-82273399D01*
X143127793Y-82354152D01*
X143102340Y-82419220D01*
X143045749Y-82460198D01*
X142975986Y-82464075D01*
X142915203Y-82429621D01*
X142882696Y-82367774D01*
X142880738Y-82354161D01*
X142873543Y-82271913D01*
X142814284Y-82050757D01*
X142717523Y-81843251D01*
X142586198Y-81655700D01*
X142424300Y-81493802D01*
X142236749Y-81362477D01*
X142236745Y-81362475D01*
X142029249Y-81265718D01*
X142029238Y-81265714D01*
X141808089Y-81206457D01*
X141808081Y-81206456D01*
X141580002Y-81186502D01*
X141579998Y-81186502D01*
X141351918Y-81206456D01*
X141351910Y-81206457D01*
X141130761Y-81265714D01*
X141130750Y-81265718D01*
X140923254Y-81362475D01*
X140923252Y-81362476D01*
X140923251Y-81362477D01*
X140735700Y-81493802D01*
X140735698Y-81493803D01*
X140735695Y-81493806D01*
X140573806Y-81655695D01*
X140573803Y-81655698D01*
X140573802Y-81655700D01*
X140550412Y-81689105D01*
X140442476Y-81843252D01*
X140442475Y-81843254D01*
X140345718Y-82050750D01*
X140345714Y-82050761D01*
X140286457Y-82271910D01*
X140286456Y-82271918D01*
X140266502Y-82499998D01*
X131820000Y-82499998D01*
X131820000Y-82447339D01*
X131792741Y-82345606D01*
X131740080Y-82254394D01*
X131735686Y-82250000D01*
X132698872Y-82250000D01*
X132698872Y-82249999D01*
X132646269Y-82053682D01*
X132646265Y-82053673D01*
X132550134Y-81847517D01*
X132419657Y-81661179D01*
X132258820Y-81500342D01*
X132072482Y-81369865D01*
X131866328Y-81273734D01*
X131670000Y-81221127D01*
X131670000Y-82184314D01*
X131665606Y-82179920D01*
X131574394Y-82127259D01*
X131472661Y-82100000D01*
X131367339Y-82100000D01*
X131265606Y-82127259D01*
X131174394Y-82179920D01*
X131170000Y-82184314D01*
X131170000Y-81221127D01*
X130973671Y-81273734D01*
X130767517Y-81369865D01*
X130581179Y-81500342D01*
X130420342Y-81661179D01*
X130289865Y-81847517D01*
X130193734Y-82053673D01*
X130193730Y-82053682D01*
X130141127Y-82249999D01*
X100075500Y-82249999D01*
X100075500Y-80250000D01*
X155736835Y-80250000D01*
X155755465Y-80486714D01*
X155810895Y-80717595D01*
X155810895Y-80717597D01*
X155901757Y-80936959D01*
X155901759Y-80936962D01*
X156025820Y-81139410D01*
X156025821Y-81139413D01*
X156025824Y-81139416D01*
X156180031Y-81319969D01*
X156238452Y-81369865D01*
X156360586Y-81474178D01*
X156360589Y-81474179D01*
X156563037Y-81598240D01*
X156563040Y-81598242D01*
X156782403Y-81689104D01*
X156782404Y-81689104D01*
X156782406Y-81689105D01*
X157013289Y-81744535D01*
X157250000Y-81763165D01*
X157486711Y-81744535D01*
X157717594Y-81689105D01*
X157717596Y-81689104D01*
X157717597Y-81689104D01*
X157936959Y-81598242D01*
X157936960Y-81598241D01*
X157936963Y-81598240D01*
X158139416Y-81474176D01*
X158319969Y-81319969D01*
X158474176Y-81139416D01*
X158598240Y-80936963D01*
X158689105Y-80717594D01*
X158744535Y-80486711D01*
X158763165Y-80250000D01*
X162236835Y-80250000D01*
X162255465Y-80486714D01*
X162310895Y-80717595D01*
X162310895Y-80717597D01*
X162401757Y-80936959D01*
X162401759Y-80936962D01*
X162525820Y-81139410D01*
X162525821Y-81139413D01*
X162525824Y-81139416D01*
X162680031Y-81319969D01*
X162738452Y-81369865D01*
X162860586Y-81474178D01*
X162860589Y-81474179D01*
X163063037Y-81598240D01*
X163063040Y-81598242D01*
X163282403Y-81689104D01*
X163282404Y-81689104D01*
X163282406Y-81689105D01*
X163513289Y-81744535D01*
X163750000Y-81763165D01*
X163986711Y-81744535D01*
X164217594Y-81689105D01*
X164217596Y-81689104D01*
X164217597Y-81689104D01*
X164436959Y-81598242D01*
X164436960Y-81598241D01*
X164436963Y-81598240D01*
X164639416Y-81474176D01*
X164819969Y-81319969D01*
X164974176Y-81139416D01*
X165098240Y-80936963D01*
X165189105Y-80717594D01*
X165244535Y-80486711D01*
X165263165Y-80250000D01*
X165244535Y-80013289D01*
X165189105Y-79782406D01*
X165189104Y-79782403D01*
X165189104Y-79782402D01*
X165098242Y-79563040D01*
X165098240Y-79563037D01*
X164974179Y-79360589D01*
X164974178Y-79360586D01*
X164939340Y-79319797D01*
X164819969Y-79180031D01*
X164700596Y-79078076D01*
X164639413Y-79025821D01*
X164639410Y-79025820D01*
X164436962Y-78901759D01*
X164436959Y-78901757D01*
X164217596Y-78810895D01*
X163986714Y-78755465D01*
X163750000Y-78736835D01*
X163513285Y-78755465D01*
X163282404Y-78810895D01*
X163282402Y-78810895D01*
X163063040Y-78901757D01*
X163063037Y-78901759D01*
X162860589Y-79025820D01*
X162860586Y-79025821D01*
X162680031Y-79180031D01*
X162525821Y-79360586D01*
X162525820Y-79360589D01*
X162401759Y-79563037D01*
X162401757Y-79563040D01*
X162310895Y-79782402D01*
X162310895Y-79782404D01*
X162255465Y-80013285D01*
X162236835Y-80250000D01*
X158763165Y-80250000D01*
X158744535Y-80013289D01*
X158689105Y-79782406D01*
X158689104Y-79782403D01*
X158689104Y-79782402D01*
X158598242Y-79563040D01*
X158598240Y-79563037D01*
X158474179Y-79360589D01*
X158474178Y-79360586D01*
X158439340Y-79319797D01*
X158319969Y-79180031D01*
X158200596Y-79078076D01*
X158139413Y-79025821D01*
X158139410Y-79025820D01*
X157936962Y-78901759D01*
X157936959Y-78901757D01*
X157717596Y-78810895D01*
X157486714Y-78755465D01*
X157250000Y-78736835D01*
X157013285Y-78755465D01*
X156782404Y-78810895D01*
X156782402Y-78810895D01*
X156563040Y-78901757D01*
X156563037Y-78901759D01*
X156360589Y-79025820D01*
X156360586Y-79025821D01*
X156180031Y-79180031D01*
X156025821Y-79360586D01*
X156025820Y-79360589D01*
X155901759Y-79563037D01*
X155901757Y-79563040D01*
X155810895Y-79782402D01*
X155810895Y-79782404D01*
X155755465Y-80013285D01*
X155736835Y-80250000D01*
X100075500Y-80250000D01*
X100075500Y-77500000D01*
X143986835Y-77500000D01*
X144005465Y-77736714D01*
X144060895Y-77967595D01*
X144060895Y-77967597D01*
X144151757Y-78186959D01*
X144151759Y-78186962D01*
X144275820Y-78389410D01*
X144275821Y-78389413D01*
X144275824Y-78389416D01*
X144430031Y-78569969D01*
X144569797Y-78689340D01*
X144610586Y-78724178D01*
X144610589Y-78724179D01*
X144813037Y-78848240D01*
X144813040Y-78848242D01*
X145032403Y-78939104D01*
X145032404Y-78939104D01*
X145032406Y-78939105D01*
X145263289Y-78994535D01*
X145500000Y-79013165D01*
X145736711Y-78994535D01*
X145967594Y-78939105D01*
X145967596Y-78939104D01*
X145967597Y-78939104D01*
X146186959Y-78848242D01*
X146186960Y-78848241D01*
X146186963Y-78848240D01*
X146389416Y-78724176D01*
X146569969Y-78569969D01*
X146724176Y-78389416D01*
X146848240Y-78186963D01*
X146939105Y-77967594D01*
X146994535Y-77736711D01*
X147013165Y-77500000D01*
X150486835Y-77500000D01*
X150505465Y-77736714D01*
X150560895Y-77967595D01*
X150560895Y-77967597D01*
X150651757Y-78186959D01*
X150651759Y-78186962D01*
X150775820Y-78389410D01*
X150775821Y-78389413D01*
X150775824Y-78389416D01*
X150930031Y-78569969D01*
X151069797Y-78689340D01*
X151110586Y-78724178D01*
X151110589Y-78724179D01*
X151313037Y-78848240D01*
X151313040Y-78848242D01*
X151532403Y-78939104D01*
X151532404Y-78939104D01*
X151532406Y-78939105D01*
X151763289Y-78994535D01*
X152000000Y-79013165D01*
X152236711Y-78994535D01*
X152467594Y-78939105D01*
X152467596Y-78939104D01*
X152467597Y-78939104D01*
X152686959Y-78848242D01*
X152686960Y-78848241D01*
X152686963Y-78848240D01*
X152889416Y-78724176D01*
X153069969Y-78569969D01*
X153224176Y-78389416D01*
X153348240Y-78186963D01*
X153439105Y-77967594D01*
X153494535Y-77736711D01*
X153513165Y-77500000D01*
X153494535Y-77263289D01*
X153439105Y-77032406D01*
X153439104Y-77032403D01*
X153439104Y-77032402D01*
X153348242Y-76813040D01*
X153348240Y-76813037D01*
X153241844Y-76639416D01*
X153224178Y-76610588D01*
X153224178Y-76610586D01*
X153075889Y-76436963D01*
X153069969Y-76430031D01*
X152950596Y-76328076D01*
X152889413Y-76275821D01*
X152889410Y-76275820D01*
X152686962Y-76151759D01*
X152686959Y-76151757D01*
X152467596Y-76060895D01*
X152236714Y-76005465D01*
X152000000Y-75986835D01*
X151763285Y-76005465D01*
X151532404Y-76060895D01*
X151532402Y-76060895D01*
X151313040Y-76151757D01*
X151313037Y-76151759D01*
X151110589Y-76275820D01*
X151110586Y-76275821D01*
X150930031Y-76430031D01*
X150775821Y-76610586D01*
X150775820Y-76610589D01*
X150651759Y-76813037D01*
X150651757Y-76813040D01*
X150560895Y-77032402D01*
X150560895Y-77032404D01*
X150505465Y-77263285D01*
X150486835Y-77500000D01*
X147013165Y-77500000D01*
X146994535Y-77263289D01*
X146939105Y-77032406D01*
X146939104Y-77032403D01*
X146939104Y-77032402D01*
X146848242Y-76813040D01*
X146848240Y-76813037D01*
X146741844Y-76639416D01*
X146724178Y-76610588D01*
X146724178Y-76610586D01*
X146575889Y-76436963D01*
X146569969Y-76430031D01*
X146450596Y-76328076D01*
X146389413Y-76275821D01*
X146389410Y-76275820D01*
X146186962Y-76151759D01*
X146186959Y-76151757D01*
X145967596Y-76060895D01*
X145736714Y-76005465D01*
X145500000Y-75986835D01*
X145263285Y-76005465D01*
X145032404Y-76060895D01*
X145032402Y-76060895D01*
X144813040Y-76151757D01*
X144813037Y-76151759D01*
X144610589Y-76275820D01*
X144610586Y-76275821D01*
X144430031Y-76430031D01*
X144275821Y-76610586D01*
X144275820Y-76610589D01*
X144151759Y-76813037D01*
X144151757Y-76813040D01*
X144060895Y-77032402D01*
X144060895Y-77032404D01*
X144005465Y-77263285D01*
X143986835Y-77500000D01*
X100075500Y-77500000D01*
X100075500Y-75750000D01*
X155736835Y-75750000D01*
X155755465Y-75986714D01*
X155810895Y-76217595D01*
X155810895Y-76217597D01*
X155901757Y-76436959D01*
X155901759Y-76436962D01*
X156025820Y-76639410D01*
X156025821Y-76639413D01*
X156025824Y-76639416D01*
X156180031Y-76819969D01*
X156319797Y-76939340D01*
X156360586Y-76974178D01*
X156360589Y-76974179D01*
X156563037Y-77098240D01*
X156563040Y-77098242D01*
X156782403Y-77189104D01*
X156782404Y-77189104D01*
X156782406Y-77189105D01*
X157013289Y-77244535D01*
X157250000Y-77263165D01*
X157486711Y-77244535D01*
X157717594Y-77189105D01*
X157717596Y-77189104D01*
X157717597Y-77189104D01*
X157936959Y-77098242D01*
X157936960Y-77098241D01*
X157936963Y-77098240D01*
X158139416Y-76974176D01*
X158319969Y-76819969D01*
X158474176Y-76639416D01*
X158598240Y-76436963D01*
X158601112Y-76430031D01*
X158689104Y-76217597D01*
X158689104Y-76217596D01*
X158689105Y-76217594D01*
X158744535Y-75986711D01*
X158763165Y-75750000D01*
X162236835Y-75750000D01*
X162255465Y-75986714D01*
X162310895Y-76217595D01*
X162310895Y-76217597D01*
X162401757Y-76436959D01*
X162401759Y-76436962D01*
X162525820Y-76639410D01*
X162525821Y-76639413D01*
X162525824Y-76639416D01*
X162680031Y-76819969D01*
X162819797Y-76939340D01*
X162860586Y-76974178D01*
X162860589Y-76974179D01*
X163063037Y-77098240D01*
X163063040Y-77098242D01*
X163282403Y-77189104D01*
X163282404Y-77189104D01*
X163282406Y-77189105D01*
X163513289Y-77244535D01*
X163750000Y-77263165D01*
X163986711Y-77244535D01*
X164217594Y-77189105D01*
X164217596Y-77189104D01*
X164217597Y-77189104D01*
X164436959Y-77098242D01*
X164436960Y-77098241D01*
X164436963Y-77098240D01*
X164639416Y-76974176D01*
X164819969Y-76819969D01*
X164974176Y-76639416D01*
X165098240Y-76436963D01*
X165101112Y-76430031D01*
X165189104Y-76217597D01*
X165189104Y-76217596D01*
X165189105Y-76217594D01*
X165244535Y-75986711D01*
X165263165Y-75750000D01*
X165244535Y-75513289D01*
X165189105Y-75282406D01*
X165189104Y-75282403D01*
X165189104Y-75282402D01*
X165098242Y-75063040D01*
X165098240Y-75063037D01*
X164974179Y-74860589D01*
X164974178Y-74860586D01*
X164939340Y-74819797D01*
X164819969Y-74680031D01*
X164700596Y-74578076D01*
X164639413Y-74525821D01*
X164639410Y-74525820D01*
X164436962Y-74401759D01*
X164436959Y-74401757D01*
X164217596Y-74310895D01*
X163986714Y-74255465D01*
X163750000Y-74236835D01*
X163513285Y-74255465D01*
X163282404Y-74310895D01*
X163282402Y-74310895D01*
X163063040Y-74401757D01*
X163063037Y-74401759D01*
X162860589Y-74525820D01*
X162860586Y-74525821D01*
X162680031Y-74680031D01*
X162525821Y-74860586D01*
X162525820Y-74860589D01*
X162401759Y-75063037D01*
X162401757Y-75063040D01*
X162310895Y-75282402D01*
X162310895Y-75282404D01*
X162255465Y-75513285D01*
X162236835Y-75750000D01*
X158763165Y-75750000D01*
X158744535Y-75513289D01*
X158689105Y-75282406D01*
X158689104Y-75282403D01*
X158689104Y-75282402D01*
X158598242Y-75063040D01*
X158598240Y-75063037D01*
X158474179Y-74860589D01*
X158474178Y-74860586D01*
X158439340Y-74819797D01*
X158319969Y-74680031D01*
X158200596Y-74578076D01*
X158139413Y-74525821D01*
X158139410Y-74525820D01*
X157936962Y-74401759D01*
X157936959Y-74401757D01*
X157717596Y-74310895D01*
X157486714Y-74255465D01*
X157250000Y-74236835D01*
X157013285Y-74255465D01*
X156782404Y-74310895D01*
X156782402Y-74310895D01*
X156563040Y-74401757D01*
X156563037Y-74401759D01*
X156360589Y-74525820D01*
X156360586Y-74525821D01*
X156180031Y-74680031D01*
X156025821Y-74860586D01*
X156025820Y-74860589D01*
X155901759Y-75063037D01*
X155901757Y-75063040D01*
X155810895Y-75282402D01*
X155810895Y-75282404D01*
X155755465Y-75513285D01*
X155736835Y-75750000D01*
X100075500Y-75750000D01*
X100075500Y-73000000D01*
X143986835Y-73000000D01*
X144005465Y-73236714D01*
X144060895Y-73467595D01*
X144060895Y-73467597D01*
X144151757Y-73686959D01*
X144151759Y-73686962D01*
X144275820Y-73889410D01*
X144275821Y-73889413D01*
X144275824Y-73889416D01*
X144430031Y-74069969D01*
X144569797Y-74189340D01*
X144610586Y-74224178D01*
X144610589Y-74224179D01*
X144813037Y-74348240D01*
X144813040Y-74348242D01*
X145032403Y-74439104D01*
X145032404Y-74439104D01*
X145032406Y-74439105D01*
X145263289Y-74494535D01*
X145500000Y-74513165D01*
X145736711Y-74494535D01*
X145967594Y-74439105D01*
X145967596Y-74439104D01*
X145967597Y-74439104D01*
X146186959Y-74348242D01*
X146186960Y-74348241D01*
X146186963Y-74348240D01*
X146389416Y-74224176D01*
X146569969Y-74069969D01*
X146724176Y-73889416D01*
X146848240Y-73686963D01*
X146871780Y-73630134D01*
X146939104Y-73467597D01*
X146939104Y-73467596D01*
X146939105Y-73467594D01*
X146994535Y-73236711D01*
X147013165Y-73000000D01*
X150486835Y-73000000D01*
X150505465Y-73236714D01*
X150560895Y-73467595D01*
X150560895Y-73467597D01*
X150651757Y-73686959D01*
X150651759Y-73686962D01*
X150775820Y-73889410D01*
X150775821Y-73889413D01*
X150775824Y-73889416D01*
X150930031Y-74069969D01*
X151069797Y-74189340D01*
X151110586Y-74224178D01*
X151110589Y-74224179D01*
X151313037Y-74348240D01*
X151313040Y-74348242D01*
X151532403Y-74439104D01*
X151532404Y-74439104D01*
X151532406Y-74439105D01*
X151763289Y-74494535D01*
X152000000Y-74513165D01*
X152236711Y-74494535D01*
X152467594Y-74439105D01*
X152467596Y-74439104D01*
X152467597Y-74439104D01*
X152686959Y-74348242D01*
X152686960Y-74348241D01*
X152686963Y-74348240D01*
X152889416Y-74224176D01*
X153069969Y-74069969D01*
X153224176Y-73889416D01*
X153348240Y-73686963D01*
X153371780Y-73630134D01*
X153439104Y-73467597D01*
X153439104Y-73467596D01*
X153439105Y-73467594D01*
X153494535Y-73236711D01*
X153513165Y-73000000D01*
X153494535Y-72763289D01*
X153439105Y-72532406D01*
X153439104Y-72532403D01*
X153439104Y-72532402D01*
X153348242Y-72313040D01*
X153348240Y-72313037D01*
X153309610Y-72249999D01*
X155641127Y-72249999D01*
X155641128Y-72250000D01*
X156604314Y-72250000D01*
X156599920Y-72254394D01*
X156547259Y-72345606D01*
X156520000Y-72447339D01*
X156520000Y-72552661D01*
X156547259Y-72654394D01*
X156599920Y-72745606D01*
X156604314Y-72750000D01*
X155641128Y-72750000D01*
X155693730Y-72946317D01*
X155693734Y-72946326D01*
X155789865Y-73152482D01*
X155920342Y-73338820D01*
X156081179Y-73499657D01*
X156267517Y-73630134D01*
X156473673Y-73726265D01*
X156473682Y-73726269D01*
X156669999Y-73778872D01*
X156670000Y-73778871D01*
X156670000Y-72815686D01*
X156674394Y-72820080D01*
X156765606Y-72872741D01*
X156867339Y-72900000D01*
X156972661Y-72900000D01*
X157074394Y-72872741D01*
X157165606Y-72820080D01*
X157170000Y-72815686D01*
X157170000Y-73778872D01*
X157366317Y-73726269D01*
X157366326Y-73726265D01*
X157572482Y-73630134D01*
X157758820Y-73499657D01*
X157919657Y-73338820D01*
X158050134Y-73152482D01*
X158146265Y-72946326D01*
X158146269Y-72946317D01*
X158198872Y-72750000D01*
X157235686Y-72750000D01*
X157240080Y-72745606D01*
X157292741Y-72654394D01*
X157320000Y-72552661D01*
X157320000Y-72447339D01*
X157292741Y-72345606D01*
X157240080Y-72254394D01*
X157235686Y-72250000D01*
X158198872Y-72250000D01*
X158198872Y-72249999D01*
X158146269Y-72053682D01*
X158146265Y-72053673D01*
X158050134Y-71847517D01*
X157919657Y-71661179D01*
X157758820Y-71500342D01*
X157572482Y-71369865D01*
X157366328Y-71273734D01*
X157170000Y-71221127D01*
X157170000Y-72184314D01*
X157165606Y-72179920D01*
X157074394Y-72127259D01*
X156972661Y-72100000D01*
X156867339Y-72100000D01*
X156765606Y-72127259D01*
X156674394Y-72179920D01*
X156670000Y-72184314D01*
X156670000Y-71221127D01*
X156473671Y-71273734D01*
X156267517Y-71369865D01*
X156081179Y-71500342D01*
X155920342Y-71661179D01*
X155789865Y-71847517D01*
X155693734Y-72053673D01*
X155693730Y-72053682D01*
X155641127Y-72249999D01*
X153309610Y-72249999D01*
X153266665Y-72179920D01*
X153224178Y-72110588D01*
X153224178Y-72110586D01*
X153140098Y-72012142D01*
X153069969Y-71930031D01*
X152950596Y-71828076D01*
X152889413Y-71775821D01*
X152889410Y-71775820D01*
X152686962Y-71651759D01*
X152686959Y-71651757D01*
X152467596Y-71560895D01*
X152236714Y-71505465D01*
X152000000Y-71486835D01*
X151763285Y-71505465D01*
X151532404Y-71560895D01*
X151532402Y-71560895D01*
X151313040Y-71651757D01*
X151313037Y-71651759D01*
X151110589Y-71775820D01*
X151110586Y-71775821D01*
X150930031Y-71930031D01*
X150775821Y-72110586D01*
X150775820Y-72110589D01*
X150651759Y-72313037D01*
X150651757Y-72313040D01*
X150560895Y-72532402D01*
X150560895Y-72532404D01*
X150505465Y-72763285D01*
X150486835Y-73000000D01*
X147013165Y-73000000D01*
X146994535Y-72763289D01*
X146939105Y-72532406D01*
X146939104Y-72532403D01*
X146939104Y-72532402D01*
X146848242Y-72313040D01*
X146848240Y-72313037D01*
X146766665Y-72179920D01*
X146724178Y-72110588D01*
X146724178Y-72110586D01*
X146640098Y-72012142D01*
X146569969Y-71930031D01*
X146450596Y-71828076D01*
X146389413Y-71775821D01*
X146389410Y-71775820D01*
X146186962Y-71651759D01*
X146186959Y-71651757D01*
X145967596Y-71560895D01*
X145736714Y-71505465D01*
X145500000Y-71486835D01*
X145263285Y-71505465D01*
X145032404Y-71560895D01*
X145032402Y-71560895D01*
X144813040Y-71651757D01*
X144813037Y-71651759D01*
X144610589Y-71775820D01*
X144610586Y-71775821D01*
X144430031Y-71930031D01*
X144275821Y-72110586D01*
X144275820Y-72110589D01*
X144151759Y-72313037D01*
X144151757Y-72313040D01*
X144060895Y-72532402D01*
X144060895Y-72532404D01*
X144005465Y-72763285D01*
X143986835Y-73000000D01*
X100075500Y-73000000D01*
X100075500Y-67112155D01*
X109850000Y-67112155D01*
X109850000Y-67760000D01*
X110766988Y-67760000D01*
X110734075Y-67817007D01*
X110700000Y-67944174D01*
X110700000Y-68075826D01*
X110734075Y-68202993D01*
X110766988Y-68260000D01*
X109850000Y-68260000D01*
X109850000Y-68907844D01*
X109856401Y-68967372D01*
X109856403Y-68967379D01*
X109906645Y-69102086D01*
X109906649Y-69102093D01*
X109992809Y-69217187D01*
X109992812Y-69217190D01*
X110107906Y-69303350D01*
X110107913Y-69303354D01*
X110242620Y-69353596D01*
X110242627Y-69353598D01*
X110302155Y-69359999D01*
X110302172Y-69360000D01*
X110950000Y-69360000D01*
X110950000Y-68443012D01*
X111007007Y-68475925D01*
X111134174Y-68510000D01*
X111265826Y-68510000D01*
X111392993Y-68475925D01*
X111450000Y-68443012D01*
X111450000Y-69360000D01*
X112097828Y-69360000D01*
X112097844Y-69359999D01*
X112157372Y-69353598D01*
X112157379Y-69353596D01*
X112292086Y-69303354D01*
X112292093Y-69303350D01*
X112407187Y-69217190D01*
X112407190Y-69217187D01*
X112493350Y-69102093D01*
X112493354Y-69102086D01*
X112539681Y-68977877D01*
X112581552Y-68921943D01*
X112647016Y-68897526D01*
X112715289Y-68912377D01*
X112747089Y-68937223D01*
X112816760Y-69012906D01*
X112994424Y-69151189D01*
X112994425Y-69151189D01*
X112994427Y-69151191D01*
X113116378Y-69217187D01*
X113192426Y-69258342D01*
X113405365Y-69331444D01*
X113627431Y-69368500D01*
X113852569Y-69368500D01*
X114074635Y-69331444D01*
X114287574Y-69258342D01*
X114485576Y-69151189D01*
X114663240Y-69012906D01*
X114776922Y-68889416D01*
X114815715Y-68847276D01*
X114815715Y-68847275D01*
X114815722Y-68847268D01*
X114906193Y-68708790D01*
X114959338Y-68663437D01*
X115028569Y-68654013D01*
X115091905Y-68683515D01*
X115113804Y-68708787D01*
X115204278Y-68847268D01*
X115204283Y-68847273D01*
X115204284Y-68847276D01*
X115324513Y-68977877D01*
X115356760Y-69012906D01*
X115534424Y-69151189D01*
X115534425Y-69151189D01*
X115534427Y-69151191D01*
X115656378Y-69217187D01*
X115732426Y-69258342D01*
X115945365Y-69331444D01*
X116167431Y-69368500D01*
X116392569Y-69368500D01*
X116614635Y-69331444D01*
X116827574Y-69258342D01*
X117025576Y-69151189D01*
X117203240Y-69012906D01*
X117316922Y-68889416D01*
X117355715Y-68847276D01*
X117355715Y-68847275D01*
X117355722Y-68847268D01*
X117446193Y-68708790D01*
X117499338Y-68663437D01*
X117568569Y-68654013D01*
X117631905Y-68683515D01*
X117653804Y-68708787D01*
X117744278Y-68847268D01*
X117744283Y-68847273D01*
X117744284Y-68847276D01*
X117864513Y-68977877D01*
X117896760Y-69012906D01*
X118074424Y-69151189D01*
X118074425Y-69151189D01*
X118074427Y-69151191D01*
X118196378Y-69217187D01*
X118272426Y-69258342D01*
X118485365Y-69331444D01*
X118707431Y-69368500D01*
X118932569Y-69368500D01*
X119154635Y-69331444D01*
X119367574Y-69258342D01*
X119565576Y-69151189D01*
X119743240Y-69012906D01*
X119856922Y-68889416D01*
X119895715Y-68847276D01*
X119895717Y-68847273D01*
X119895722Y-68847268D01*
X120018860Y-68658791D01*
X120109296Y-68452616D01*
X120160606Y-68249999D01*
X142141127Y-68249999D01*
X142141128Y-68250000D01*
X143104314Y-68250000D01*
X143099920Y-68254394D01*
X143047259Y-68345606D01*
X143020000Y-68447339D01*
X143020000Y-68552661D01*
X143047259Y-68654394D01*
X143099920Y-68745606D01*
X143104314Y-68750000D01*
X142141128Y-68750000D01*
X142193730Y-68946317D01*
X142193734Y-68946326D01*
X142289865Y-69152482D01*
X142420342Y-69338820D01*
X142581179Y-69499657D01*
X142767517Y-69630134D01*
X142973673Y-69726265D01*
X142973682Y-69726269D01*
X143169999Y-69778872D01*
X143170000Y-69778871D01*
X143170000Y-68815686D01*
X143174394Y-68820080D01*
X143265606Y-68872741D01*
X143367339Y-68900000D01*
X143472661Y-68900000D01*
X143574394Y-68872741D01*
X143665606Y-68820080D01*
X143670000Y-68815686D01*
X143670000Y-69778872D01*
X143866317Y-69726269D01*
X143866326Y-69726265D01*
X144072482Y-69630134D01*
X144258820Y-69499657D01*
X144419657Y-69338820D01*
X144550134Y-69152482D01*
X144646265Y-68946326D01*
X144646269Y-68946317D01*
X144698872Y-68750000D01*
X143735686Y-68750000D01*
X143740080Y-68745606D01*
X143792741Y-68654394D01*
X143820000Y-68552661D01*
X143820000Y-68499998D01*
X152266502Y-68499998D01*
X152266502Y-68500001D01*
X152286456Y-68728081D01*
X152286457Y-68728089D01*
X152345714Y-68949238D01*
X152345718Y-68949249D01*
X152439883Y-69151187D01*
X152442477Y-69156749D01*
X152573802Y-69344300D01*
X152735700Y-69506198D01*
X152923251Y-69637523D01*
X153048091Y-69695736D01*
X153130750Y-69734281D01*
X153130752Y-69734281D01*
X153130757Y-69734284D01*
X153351913Y-69793543D01*
X153514832Y-69807796D01*
X153579998Y-69813498D01*
X153580000Y-69813498D01*
X153580002Y-69813498D01*
X153637021Y-69808509D01*
X153808087Y-69793543D01*
X154029243Y-69734284D01*
X154236749Y-69637523D01*
X154424300Y-69506198D01*
X154586198Y-69344300D01*
X154717523Y-69156749D01*
X154814284Y-68949243D01*
X154873543Y-68728087D01*
X154893498Y-68500000D01*
X154873543Y-68271913D01*
X154814284Y-68050757D01*
X154790616Y-68000000D01*
X158486835Y-68000000D01*
X158505465Y-68236714D01*
X158560895Y-68467595D01*
X158560895Y-68467597D01*
X158651757Y-68686959D01*
X158651759Y-68686962D01*
X158775820Y-68889410D01*
X158775821Y-68889413D01*
X158803605Y-68921943D01*
X158930031Y-69069969D01*
X159069797Y-69189340D01*
X159110586Y-69224178D01*
X159110589Y-69224179D01*
X159313037Y-69348240D01*
X159313040Y-69348242D01*
X159532403Y-69439104D01*
X159532404Y-69439104D01*
X159532406Y-69439105D01*
X159763289Y-69494535D01*
X160000000Y-69513165D01*
X160236711Y-69494535D01*
X160467594Y-69439105D01*
X160467596Y-69439104D01*
X160467597Y-69439104D01*
X160686959Y-69348242D01*
X160686960Y-69348241D01*
X160686963Y-69348240D01*
X160889416Y-69224176D01*
X161069969Y-69069969D01*
X161224176Y-68889416D01*
X161348240Y-68686963D01*
X161349669Y-68683515D01*
X161439104Y-68467597D01*
X161439104Y-68467596D01*
X161439105Y-68467594D01*
X161494535Y-68236711D01*
X161513165Y-68000000D01*
X164986835Y-68000000D01*
X165005465Y-68236714D01*
X165060895Y-68467595D01*
X165060895Y-68467597D01*
X165151757Y-68686959D01*
X165151759Y-68686962D01*
X165275820Y-68889410D01*
X165275821Y-68889413D01*
X165303605Y-68921943D01*
X165430031Y-69069969D01*
X165569797Y-69189340D01*
X165610586Y-69224178D01*
X165610589Y-69224179D01*
X165813037Y-69348240D01*
X165813040Y-69348242D01*
X166032403Y-69439104D01*
X166032404Y-69439104D01*
X166032406Y-69439105D01*
X166263289Y-69494535D01*
X166500000Y-69513165D01*
X166736711Y-69494535D01*
X166967594Y-69439105D01*
X166967596Y-69439104D01*
X166967597Y-69439104D01*
X167186959Y-69348242D01*
X167186960Y-69348241D01*
X167186963Y-69348240D01*
X167389416Y-69224176D01*
X167569969Y-69069969D01*
X167724176Y-68889416D01*
X167848240Y-68686963D01*
X167849669Y-68683515D01*
X167939104Y-68467597D01*
X167939104Y-68467596D01*
X167939105Y-68467594D01*
X167994535Y-68236711D01*
X168013165Y-68000000D01*
X167994535Y-67763289D01*
X167939105Y-67532406D01*
X167939104Y-67532403D01*
X167939104Y-67532402D01*
X167848242Y-67313040D01*
X167848240Y-67313037D01*
X167819243Y-67265718D01*
X167724178Y-67110588D01*
X167724178Y-67110586D01*
X167665704Y-67042122D01*
X167569969Y-66930031D01*
X167421015Y-66802812D01*
X167389413Y-66775821D01*
X167389410Y-66775820D01*
X167186962Y-66651759D01*
X167186959Y-66651757D01*
X166967596Y-66560895D01*
X166736714Y-66505465D01*
X166500000Y-66486835D01*
X166263285Y-66505465D01*
X166032404Y-66560895D01*
X166032402Y-66560895D01*
X165813040Y-66651757D01*
X165813037Y-66651759D01*
X165610589Y-66775820D01*
X165610586Y-66775821D01*
X165430031Y-66930031D01*
X165275821Y-67110586D01*
X165275820Y-67110589D01*
X165151759Y-67313037D01*
X165151757Y-67313040D01*
X165060895Y-67532402D01*
X165060895Y-67532404D01*
X165005465Y-67763285D01*
X164986835Y-68000000D01*
X161513165Y-68000000D01*
X161494535Y-67763289D01*
X161439105Y-67532406D01*
X161439104Y-67532403D01*
X161439104Y-67532402D01*
X161348242Y-67313040D01*
X161348240Y-67313037D01*
X161319243Y-67265718D01*
X161224178Y-67110588D01*
X161224178Y-67110586D01*
X161165704Y-67042122D01*
X161069969Y-66930031D01*
X160921015Y-66802812D01*
X160889413Y-66775821D01*
X160889410Y-66775820D01*
X160686962Y-66651759D01*
X160686959Y-66651757D01*
X160467596Y-66560895D01*
X160236714Y-66505465D01*
X160000000Y-66486835D01*
X159763285Y-66505465D01*
X159532404Y-66560895D01*
X159532402Y-66560895D01*
X159313040Y-66651757D01*
X159313037Y-66651759D01*
X159110589Y-66775820D01*
X159110586Y-66775821D01*
X158930031Y-66930031D01*
X158775821Y-67110586D01*
X158775820Y-67110589D01*
X158651759Y-67313037D01*
X158651757Y-67313040D01*
X158560895Y-67532402D01*
X158560895Y-67532404D01*
X158505465Y-67763285D01*
X158486835Y-68000000D01*
X154790616Y-68000000D01*
X154717523Y-67843251D01*
X154586198Y-67655700D01*
X154424300Y-67493802D01*
X154236749Y-67362477D01*
X154234030Y-67361209D01*
X154029249Y-67265718D01*
X154029238Y-67265714D01*
X153808089Y-67206457D01*
X153808081Y-67206456D01*
X153580002Y-67186502D01*
X153579998Y-67186502D01*
X153351918Y-67206456D01*
X153351910Y-67206457D01*
X153130761Y-67265714D01*
X153130750Y-67265718D01*
X152923254Y-67362475D01*
X152923252Y-67362476D01*
X152912700Y-67369865D01*
X152735700Y-67493802D01*
X152735698Y-67493803D01*
X152735695Y-67493806D01*
X152573806Y-67655695D01*
X152442476Y-67843252D01*
X152442475Y-67843254D01*
X152345718Y-68050750D01*
X152345714Y-68050761D01*
X152286457Y-68271910D01*
X152286456Y-68271918D01*
X152266502Y-68499998D01*
X143820000Y-68499998D01*
X143820000Y-68447339D01*
X143792741Y-68345606D01*
X143740080Y-68254394D01*
X143735686Y-68250000D01*
X144698872Y-68250000D01*
X144698872Y-68249999D01*
X144646269Y-68053682D01*
X144646265Y-68053673D01*
X144550134Y-67847517D01*
X144419657Y-67661179D01*
X144258820Y-67500342D01*
X144072482Y-67369865D01*
X143866328Y-67273734D01*
X143670000Y-67221127D01*
X143670000Y-68184314D01*
X143665606Y-68179920D01*
X143574394Y-68127259D01*
X143472661Y-68100000D01*
X143367339Y-68100000D01*
X143265606Y-68127259D01*
X143174394Y-68179920D01*
X143170000Y-68184314D01*
X143170000Y-67221127D01*
X142973671Y-67273734D01*
X142767517Y-67369865D01*
X142581179Y-67500342D01*
X142420342Y-67661179D01*
X142289865Y-67847517D01*
X142193734Y-68053673D01*
X142193730Y-68053682D01*
X142141127Y-68249999D01*
X120160606Y-68249999D01*
X120164564Y-68234368D01*
X120169076Y-68179920D01*
X120183156Y-68010005D01*
X120183156Y-68009994D01*
X120164565Y-67785640D01*
X120164563Y-67785628D01*
X120109296Y-67567385D01*
X120099071Y-67544075D01*
X120018860Y-67361209D01*
X120002706Y-67336484D01*
X119927340Y-67221127D01*
X119895722Y-67172732D01*
X119895719Y-67172729D01*
X119895715Y-67172723D01*
X119743243Y-67007097D01*
X119743238Y-67007092D01*
X119565577Y-66868812D01*
X119565572Y-66868808D01*
X119367580Y-66761661D01*
X119367577Y-66761659D01*
X119367574Y-66761658D01*
X119367571Y-66761657D01*
X119367569Y-66761656D01*
X119154637Y-66688556D01*
X118932569Y-66651500D01*
X118707431Y-66651500D01*
X118485362Y-66688556D01*
X118272430Y-66761656D01*
X118272419Y-66761661D01*
X118074427Y-66868808D01*
X118074422Y-66868812D01*
X117896761Y-67007092D01*
X117896756Y-67007097D01*
X117744284Y-67172723D01*
X117744276Y-67172734D01*
X117653808Y-67311206D01*
X117600662Y-67356562D01*
X117531431Y-67365986D01*
X117468095Y-67336484D01*
X117446192Y-67311206D01*
X117355723Y-67172734D01*
X117355715Y-67172723D01*
X117203243Y-67007097D01*
X117203238Y-67007092D01*
X117025577Y-66868812D01*
X117025572Y-66868808D01*
X116827580Y-66761661D01*
X116827577Y-66761659D01*
X116827574Y-66761658D01*
X116827571Y-66761657D01*
X116827569Y-66761656D01*
X116614637Y-66688556D01*
X116392569Y-66651500D01*
X116167431Y-66651500D01*
X115945362Y-66688556D01*
X115732430Y-66761656D01*
X115732419Y-66761661D01*
X115534427Y-66868808D01*
X115534422Y-66868812D01*
X115356761Y-67007092D01*
X115356756Y-67007097D01*
X115204284Y-67172723D01*
X115204276Y-67172734D01*
X115113808Y-67311206D01*
X115060662Y-67356562D01*
X114991431Y-67365986D01*
X114928095Y-67336484D01*
X114906192Y-67311206D01*
X114815723Y-67172734D01*
X114815715Y-67172723D01*
X114663243Y-67007097D01*
X114663238Y-67007092D01*
X114485577Y-66868812D01*
X114485572Y-66868808D01*
X114287580Y-66761661D01*
X114287577Y-66761659D01*
X114287574Y-66761658D01*
X114287571Y-66761657D01*
X114287569Y-66761656D01*
X114074637Y-66688556D01*
X113852569Y-66651500D01*
X113627431Y-66651500D01*
X113405362Y-66688556D01*
X113192430Y-66761656D01*
X113192419Y-66761661D01*
X112994427Y-66868808D01*
X112994422Y-66868812D01*
X112816761Y-67007092D01*
X112747092Y-67082773D01*
X112687205Y-67118763D01*
X112617367Y-67116662D01*
X112559751Y-67077137D01*
X112539681Y-67042122D01*
X112493354Y-66917913D01*
X112493350Y-66917906D01*
X112407190Y-66802812D01*
X112407187Y-66802809D01*
X112292093Y-66716649D01*
X112292086Y-66716645D01*
X112157379Y-66666403D01*
X112157372Y-66666401D01*
X112097844Y-66660000D01*
X111450000Y-66660000D01*
X111450000Y-67576988D01*
X111392993Y-67544075D01*
X111265826Y-67510000D01*
X111134174Y-67510000D01*
X111007007Y-67544075D01*
X110950000Y-67576988D01*
X110950000Y-66660000D01*
X110302155Y-66660000D01*
X110242627Y-66666401D01*
X110242620Y-66666403D01*
X110107913Y-66716645D01*
X110107906Y-66716649D01*
X109992812Y-66802809D01*
X109992809Y-66802812D01*
X109906649Y-66917906D01*
X109906645Y-66917913D01*
X109856403Y-67052620D01*
X109856401Y-67052627D01*
X109850000Y-67112155D01*
X100075500Y-67112155D01*
X100075500Y-62071345D01*
X101771500Y-62071345D01*
X101771500Y-63868654D01*
X101778011Y-63929202D01*
X101778011Y-63929204D01*
X101829111Y-64066204D01*
X101916739Y-64183261D01*
X102033796Y-64270889D01*
X102170799Y-64321989D01*
X102198050Y-64324918D01*
X102231345Y-64328499D01*
X102231362Y-64328500D01*
X104028638Y-64328500D01*
X104028654Y-64328499D01*
X104055692Y-64325591D01*
X104089201Y-64321989D01*
X104226204Y-64270889D01*
X104343261Y-64183261D01*
X104430889Y-64066204D01*
X104479223Y-63936615D01*
X104521093Y-63880686D01*
X104586557Y-63856269D01*
X104654830Y-63871121D01*
X104683084Y-63892272D01*
X104798917Y-64008105D01*
X104992421Y-64143600D01*
X105206507Y-64243429D01*
X105206516Y-64243433D01*
X105420000Y-64300634D01*
X105420000Y-63403012D01*
X105477007Y-63435925D01*
X105604174Y-63470000D01*
X105735826Y-63470000D01*
X105862993Y-63435925D01*
X105920000Y-63403012D01*
X105920000Y-64300633D01*
X106133483Y-64243433D01*
X106133492Y-64243429D01*
X106347578Y-64143600D01*
X106541082Y-64008105D01*
X106708105Y-63841082D01*
X106834868Y-63660048D01*
X106889445Y-63616423D01*
X106958944Y-63609231D01*
X107021298Y-63640753D01*
X107040251Y-63663350D01*
X107134276Y-63807265D01*
X107134284Y-63807276D01*
X107286756Y-63972902D01*
X107286760Y-63972906D01*
X107464424Y-64111189D01*
X107464425Y-64111189D01*
X107464427Y-64111191D01*
X107524314Y-64143600D01*
X107662426Y-64218342D01*
X107875365Y-64291444D01*
X108097431Y-64328500D01*
X108322569Y-64328500D01*
X108544635Y-64291444D01*
X108757574Y-64218342D01*
X108955576Y-64111189D01*
X109133240Y-63972906D01*
X109285722Y-63807268D01*
X109376193Y-63668790D01*
X109429338Y-63623437D01*
X109498569Y-63614013D01*
X109561905Y-63643515D01*
X109583804Y-63668787D01*
X109674278Y-63807268D01*
X109674283Y-63807273D01*
X109674284Y-63807276D01*
X109826756Y-63972902D01*
X109826760Y-63972906D01*
X110004424Y-64111189D01*
X110004425Y-64111189D01*
X110004427Y-64111191D01*
X110064314Y-64143600D01*
X110202426Y-64218342D01*
X110415365Y-64291444D01*
X110637431Y-64328500D01*
X110862569Y-64328500D01*
X111084635Y-64291444D01*
X111297574Y-64218342D01*
X111495576Y-64111189D01*
X111673240Y-63972906D01*
X111825722Y-63807268D01*
X111916193Y-63668790D01*
X111969338Y-63623437D01*
X112038569Y-63614013D01*
X112101905Y-63643515D01*
X112123804Y-63668787D01*
X112214278Y-63807268D01*
X112214283Y-63807273D01*
X112214284Y-63807276D01*
X112366756Y-63972902D01*
X112366760Y-63972906D01*
X112544424Y-64111189D01*
X112544425Y-64111189D01*
X112544427Y-64111191D01*
X112604314Y-64143600D01*
X112742426Y-64218342D01*
X112955365Y-64291444D01*
X113177431Y-64328500D01*
X113402569Y-64328500D01*
X113624635Y-64291444D01*
X113837574Y-64218342D01*
X114035576Y-64111189D01*
X114213240Y-63972906D01*
X114365722Y-63807268D01*
X114456193Y-63668790D01*
X114509338Y-63623437D01*
X114578569Y-63614013D01*
X114641905Y-63643515D01*
X114663804Y-63668787D01*
X114754278Y-63807268D01*
X114754283Y-63807273D01*
X114754284Y-63807276D01*
X114906756Y-63972902D01*
X114906760Y-63972906D01*
X115084424Y-64111189D01*
X115084425Y-64111189D01*
X115084427Y-64111191D01*
X115144314Y-64143600D01*
X115282426Y-64218342D01*
X115495365Y-64291444D01*
X115717431Y-64328500D01*
X115942569Y-64328500D01*
X116164635Y-64291444D01*
X116377574Y-64218342D01*
X116575576Y-64111189D01*
X116753240Y-63972906D01*
X116905722Y-63807268D01*
X116996193Y-63668790D01*
X117049338Y-63623437D01*
X117118569Y-63614013D01*
X117181905Y-63643515D01*
X117203804Y-63668787D01*
X117294278Y-63807268D01*
X117294283Y-63807273D01*
X117294284Y-63807276D01*
X117446756Y-63972902D01*
X117446760Y-63972906D01*
X117624424Y-64111189D01*
X117624425Y-64111189D01*
X117624427Y-64111191D01*
X117684314Y-64143600D01*
X117822426Y-64218342D01*
X118035365Y-64291444D01*
X118257431Y-64328500D01*
X118482569Y-64328500D01*
X118704635Y-64291444D01*
X118917574Y-64218342D01*
X119115576Y-64111189D01*
X119293240Y-63972906D01*
X119445722Y-63807268D01*
X119536193Y-63668790D01*
X119589338Y-63623437D01*
X119658569Y-63614013D01*
X119721905Y-63643515D01*
X119743804Y-63668787D01*
X119834278Y-63807268D01*
X119834283Y-63807273D01*
X119834284Y-63807276D01*
X119986756Y-63972902D01*
X119986760Y-63972906D01*
X120164424Y-64111189D01*
X120164425Y-64111189D01*
X120164427Y-64111191D01*
X120224314Y-64143600D01*
X120362426Y-64218342D01*
X120575365Y-64291444D01*
X120797431Y-64328500D01*
X121022569Y-64328500D01*
X121244635Y-64291444D01*
X121457574Y-64218342D01*
X121655576Y-64111189D01*
X121833240Y-63972906D01*
X121985722Y-63807268D01*
X122108860Y-63618791D01*
X122160967Y-63499998D01*
X129026502Y-63499998D01*
X129026502Y-63500001D01*
X129046456Y-63728081D01*
X129046457Y-63728089D01*
X129105714Y-63949238D01*
X129105718Y-63949249D01*
X129202475Y-64156745D01*
X129202477Y-64156749D01*
X129333802Y-64344300D01*
X129495700Y-64506198D01*
X129683251Y-64637523D01*
X129808091Y-64695736D01*
X129890750Y-64734281D01*
X129890752Y-64734281D01*
X129890757Y-64734284D01*
X130111913Y-64793543D01*
X130274832Y-64807796D01*
X130339998Y-64813498D01*
X130340000Y-64813498D01*
X130340002Y-64813498D01*
X130397021Y-64808509D01*
X130568087Y-64793543D01*
X130789243Y-64734284D01*
X130996749Y-64637523D01*
X131184300Y-64506198D01*
X131346198Y-64344300D01*
X131477523Y-64156749D01*
X131574284Y-63949243D01*
X131633543Y-63728087D01*
X131653498Y-63500000D01*
X131653498Y-63499998D01*
X139186502Y-63499998D01*
X139186502Y-63500001D01*
X139206456Y-63728081D01*
X139206457Y-63728089D01*
X139265714Y-63949238D01*
X139265718Y-63949249D01*
X139362475Y-64156745D01*
X139362477Y-64156749D01*
X139493802Y-64344300D01*
X139655700Y-64506198D01*
X139843251Y-64637523D01*
X139968091Y-64695736D01*
X140050750Y-64734281D01*
X140050752Y-64734281D01*
X140050757Y-64734284D01*
X140271913Y-64793543D01*
X140434832Y-64807796D01*
X140499998Y-64813498D01*
X140500000Y-64813498D01*
X140500002Y-64813498D01*
X140557021Y-64808509D01*
X140728087Y-64793543D01*
X140949243Y-64734284D01*
X141156749Y-64637523D01*
X141344300Y-64506198D01*
X141506198Y-64344300D01*
X141637523Y-64156749D01*
X141734284Y-63949243D01*
X141793543Y-63728087D01*
X141813498Y-63500000D01*
X158486835Y-63500000D01*
X158505465Y-63736714D01*
X158560895Y-63967595D01*
X158560895Y-63967597D01*
X158651757Y-64186959D01*
X158651759Y-64186962D01*
X158775820Y-64389410D01*
X158775821Y-64389413D01*
X158775824Y-64389416D01*
X158930031Y-64569969D01*
X159009128Y-64637524D01*
X159110586Y-64724178D01*
X159110589Y-64724179D01*
X159313037Y-64848240D01*
X159313040Y-64848242D01*
X159532403Y-64939104D01*
X159532404Y-64939104D01*
X159532406Y-64939105D01*
X159763289Y-64994535D01*
X160000000Y-65013165D01*
X160236711Y-64994535D01*
X160467594Y-64939105D01*
X160467596Y-64939104D01*
X160467597Y-64939104D01*
X160686959Y-64848242D01*
X160686960Y-64848241D01*
X160686963Y-64848240D01*
X160889416Y-64724176D01*
X161069969Y-64569969D01*
X161224176Y-64389416D01*
X161348240Y-64186963D01*
X161349774Y-64183261D01*
X161439104Y-63967597D01*
X161439104Y-63967596D01*
X161439105Y-63967594D01*
X161494535Y-63736711D01*
X161513165Y-63500000D01*
X164986835Y-63500000D01*
X165005465Y-63736714D01*
X165060895Y-63967595D01*
X165060895Y-63967597D01*
X165151757Y-64186959D01*
X165151759Y-64186962D01*
X165275820Y-64389410D01*
X165275821Y-64389413D01*
X165275824Y-64389416D01*
X165430031Y-64569969D01*
X165509128Y-64637524D01*
X165610586Y-64724178D01*
X165610589Y-64724179D01*
X165813037Y-64848240D01*
X165813040Y-64848242D01*
X166032403Y-64939104D01*
X166032404Y-64939104D01*
X166032406Y-64939105D01*
X166263289Y-64994535D01*
X166500000Y-65013165D01*
X166736711Y-64994535D01*
X166967594Y-64939105D01*
X166967596Y-64939104D01*
X166967597Y-64939104D01*
X167186959Y-64848242D01*
X167186960Y-64848241D01*
X167186963Y-64848240D01*
X167389416Y-64724176D01*
X167569969Y-64569969D01*
X167724176Y-64389416D01*
X167848240Y-64186963D01*
X167849774Y-64183261D01*
X167939104Y-63967597D01*
X167939104Y-63967596D01*
X167939105Y-63967594D01*
X167994535Y-63736711D01*
X168013165Y-63500000D01*
X167994535Y-63263289D01*
X167939105Y-63032406D01*
X167939104Y-63032403D01*
X167939104Y-63032402D01*
X167848242Y-62813040D01*
X167848240Y-62813037D01*
X167724179Y-62610589D01*
X167724178Y-62610586D01*
X167653116Y-62527384D01*
X167569969Y-62430031D01*
X167413606Y-62296484D01*
X167389413Y-62275821D01*
X167389410Y-62275820D01*
X167186962Y-62151759D01*
X167186959Y-62151757D01*
X166967596Y-62060895D01*
X166736714Y-62005465D01*
X166500000Y-61986835D01*
X166263285Y-62005465D01*
X166032404Y-62060895D01*
X166032402Y-62060895D01*
X165813040Y-62151757D01*
X165813037Y-62151759D01*
X165610589Y-62275820D01*
X165610586Y-62275821D01*
X165430031Y-62430031D01*
X165275821Y-62610586D01*
X165275820Y-62610589D01*
X165151759Y-62813037D01*
X165151757Y-62813040D01*
X165060895Y-63032402D01*
X165060895Y-63032404D01*
X165005465Y-63263285D01*
X164986835Y-63500000D01*
X161513165Y-63500000D01*
X161494535Y-63263289D01*
X161439105Y-63032406D01*
X161439104Y-63032403D01*
X161439104Y-63032402D01*
X161348242Y-62813040D01*
X161348240Y-62813037D01*
X161224179Y-62610589D01*
X161224178Y-62610586D01*
X161153116Y-62527384D01*
X161069969Y-62430031D01*
X160913606Y-62296484D01*
X160889413Y-62275821D01*
X160889410Y-62275820D01*
X160686962Y-62151759D01*
X160686959Y-62151757D01*
X160467596Y-62060895D01*
X160236714Y-62005465D01*
X160000000Y-61986835D01*
X159763285Y-62005465D01*
X159532404Y-62060895D01*
X159532402Y-62060895D01*
X159313040Y-62151757D01*
X159313037Y-62151759D01*
X159110589Y-62275820D01*
X159110586Y-62275821D01*
X158930031Y-62430031D01*
X158775821Y-62610586D01*
X158775820Y-62610589D01*
X158651759Y-62813037D01*
X158651757Y-62813040D01*
X158560895Y-63032402D01*
X158560895Y-63032404D01*
X158505465Y-63263285D01*
X158486835Y-63500000D01*
X141813498Y-63500000D01*
X141793543Y-63271913D01*
X141734284Y-63050757D01*
X141637523Y-62843251D01*
X141506198Y-62655700D01*
X141344300Y-62493802D01*
X141156749Y-62362477D01*
X141156745Y-62362475D01*
X140949249Y-62265718D01*
X140949238Y-62265714D01*
X140728089Y-62206457D01*
X140728081Y-62206456D01*
X140500002Y-62186502D01*
X140499998Y-62186502D01*
X140271918Y-62206456D01*
X140271910Y-62206457D01*
X140050761Y-62265714D01*
X140050750Y-62265718D01*
X139843254Y-62362475D01*
X139843252Y-62362476D01*
X139843251Y-62362477D01*
X139655700Y-62493802D01*
X139655698Y-62493803D01*
X139655695Y-62493806D01*
X139493806Y-62655695D01*
X139493803Y-62655698D01*
X139493802Y-62655700D01*
X139468164Y-62692315D01*
X139362476Y-62843252D01*
X139362475Y-62843254D01*
X139265718Y-63050750D01*
X139265714Y-63050761D01*
X139206457Y-63271910D01*
X139206456Y-63271918D01*
X139186502Y-63499998D01*
X131653498Y-63499998D01*
X131633543Y-63271913D01*
X131574284Y-63050757D01*
X131477523Y-62843251D01*
X131346198Y-62655700D01*
X131184300Y-62493802D01*
X130996749Y-62362477D01*
X130996745Y-62362475D01*
X130789249Y-62265718D01*
X130789238Y-62265714D01*
X130568089Y-62206457D01*
X130568081Y-62206456D01*
X130340002Y-62186502D01*
X130339998Y-62186502D01*
X130111918Y-62206456D01*
X130111910Y-62206457D01*
X129890761Y-62265714D01*
X129890750Y-62265718D01*
X129683254Y-62362475D01*
X129683252Y-62362476D01*
X129683251Y-62362477D01*
X129495700Y-62493802D01*
X129495698Y-62493803D01*
X129495695Y-62493806D01*
X129333806Y-62655695D01*
X129333803Y-62655698D01*
X129333802Y-62655700D01*
X129308164Y-62692315D01*
X129202476Y-62843252D01*
X129202475Y-62843254D01*
X129105718Y-63050750D01*
X129105714Y-63050761D01*
X129046457Y-63271910D01*
X129046456Y-63271918D01*
X129026502Y-63499998D01*
X122160967Y-63499998D01*
X122199296Y-63412616D01*
X122254564Y-63194368D01*
X122266464Y-63050761D01*
X122273156Y-62970005D01*
X122273156Y-62969994D01*
X122254565Y-62745640D01*
X122254563Y-62745628D01*
X122220366Y-62610589D01*
X122199296Y-62527384D01*
X122108860Y-62321209D01*
X122092706Y-62296484D01*
X122020852Y-62186502D01*
X121985722Y-62132732D01*
X121985719Y-62132729D01*
X121985715Y-62132723D01*
X121833243Y-61967097D01*
X121833238Y-61967092D01*
X121655577Y-61828812D01*
X121655572Y-61828808D01*
X121457580Y-61721661D01*
X121457577Y-61721659D01*
X121457574Y-61721658D01*
X121457571Y-61721657D01*
X121457569Y-61721656D01*
X121244637Y-61648556D01*
X121022569Y-61611500D01*
X120797431Y-61611500D01*
X120575362Y-61648556D01*
X120362430Y-61721656D01*
X120362419Y-61721661D01*
X120164427Y-61828808D01*
X120164422Y-61828812D01*
X119986761Y-61967092D01*
X119986756Y-61967097D01*
X119834284Y-62132723D01*
X119834276Y-62132734D01*
X119743808Y-62271206D01*
X119690662Y-62316562D01*
X119621431Y-62325986D01*
X119558095Y-62296484D01*
X119536192Y-62271206D01*
X119478286Y-62182576D01*
X119445722Y-62132732D01*
X119445719Y-62132729D01*
X119445715Y-62132723D01*
X119293243Y-61967097D01*
X119293238Y-61967092D01*
X119115577Y-61828812D01*
X119115572Y-61828808D01*
X118917580Y-61721661D01*
X118917577Y-61721659D01*
X118917574Y-61721658D01*
X118917571Y-61721657D01*
X118917569Y-61721656D01*
X118704637Y-61648556D01*
X118482569Y-61611500D01*
X118257431Y-61611500D01*
X118035362Y-61648556D01*
X117822430Y-61721656D01*
X117822419Y-61721661D01*
X117624427Y-61828808D01*
X117624422Y-61828812D01*
X117446761Y-61967092D01*
X117446756Y-61967097D01*
X117294284Y-62132723D01*
X117294276Y-62132734D01*
X117203808Y-62271206D01*
X117150662Y-62316562D01*
X117081431Y-62325986D01*
X117018095Y-62296484D01*
X116996192Y-62271206D01*
X116938286Y-62182576D01*
X116905722Y-62132732D01*
X116905719Y-62132729D01*
X116905715Y-62132723D01*
X116753243Y-61967097D01*
X116753238Y-61967092D01*
X116575577Y-61828812D01*
X116575572Y-61828808D01*
X116377580Y-61721661D01*
X116377577Y-61721659D01*
X116377574Y-61721658D01*
X116377571Y-61721657D01*
X116377569Y-61721656D01*
X116164637Y-61648556D01*
X115942569Y-61611500D01*
X115717431Y-61611500D01*
X115495362Y-61648556D01*
X115282430Y-61721656D01*
X115282419Y-61721661D01*
X115084427Y-61828808D01*
X115084422Y-61828812D01*
X114906761Y-61967092D01*
X114906756Y-61967097D01*
X114754284Y-62132723D01*
X114754276Y-62132734D01*
X114663808Y-62271206D01*
X114610662Y-62316562D01*
X114541431Y-62325986D01*
X114478095Y-62296484D01*
X114456192Y-62271206D01*
X114398286Y-62182576D01*
X114365722Y-62132732D01*
X114365719Y-62132729D01*
X114365715Y-62132723D01*
X114213243Y-61967097D01*
X114213238Y-61967092D01*
X114035577Y-61828812D01*
X114035572Y-61828808D01*
X113837580Y-61721661D01*
X113837577Y-61721659D01*
X113837574Y-61721658D01*
X113837571Y-61721657D01*
X113837569Y-61721656D01*
X113624637Y-61648556D01*
X113402569Y-61611500D01*
X113177431Y-61611500D01*
X112955362Y-61648556D01*
X112742430Y-61721656D01*
X112742419Y-61721661D01*
X112544427Y-61828808D01*
X112544422Y-61828812D01*
X112366761Y-61967092D01*
X112366756Y-61967097D01*
X112214284Y-62132723D01*
X112214276Y-62132734D01*
X112123808Y-62271206D01*
X112070662Y-62316562D01*
X112001431Y-62325986D01*
X111938095Y-62296484D01*
X111916192Y-62271206D01*
X111858286Y-62182576D01*
X111825722Y-62132732D01*
X111825719Y-62132729D01*
X111825715Y-62132723D01*
X111673243Y-61967097D01*
X111673238Y-61967092D01*
X111495577Y-61828812D01*
X111495572Y-61828808D01*
X111297580Y-61721661D01*
X111297577Y-61721659D01*
X111297574Y-61721658D01*
X111297571Y-61721657D01*
X111297569Y-61721656D01*
X111084637Y-61648556D01*
X110862569Y-61611500D01*
X110637431Y-61611500D01*
X110415362Y-61648556D01*
X110202430Y-61721656D01*
X110202419Y-61721661D01*
X110004427Y-61828808D01*
X110004422Y-61828812D01*
X109826761Y-61967092D01*
X109826756Y-61967097D01*
X109674284Y-62132723D01*
X109674276Y-62132734D01*
X109583808Y-62271206D01*
X109530662Y-62316562D01*
X109461431Y-62325986D01*
X109398095Y-62296484D01*
X109376192Y-62271206D01*
X109318286Y-62182576D01*
X109285722Y-62132732D01*
X109285719Y-62132729D01*
X109285715Y-62132723D01*
X109133243Y-61967097D01*
X109133238Y-61967092D01*
X108955577Y-61828812D01*
X108955572Y-61828808D01*
X108757580Y-61721661D01*
X108757577Y-61721659D01*
X108757574Y-61721658D01*
X108757571Y-61721657D01*
X108757569Y-61721656D01*
X108544637Y-61648556D01*
X108322569Y-61611500D01*
X108097431Y-61611500D01*
X107875362Y-61648556D01*
X107662430Y-61721656D01*
X107662419Y-61721661D01*
X107464427Y-61828808D01*
X107464422Y-61828812D01*
X107286761Y-61967092D01*
X107286756Y-61967097D01*
X107134284Y-62132723D01*
X107134276Y-62132734D01*
X107040251Y-62276650D01*
X106987105Y-62322007D01*
X106917873Y-62331430D01*
X106854538Y-62301928D01*
X106834868Y-62279951D01*
X106708113Y-62098926D01*
X106708108Y-62098920D01*
X106541082Y-61931894D01*
X106347578Y-61796399D01*
X106133492Y-61696570D01*
X106133486Y-61696567D01*
X105920000Y-61639364D01*
X105920000Y-62536988D01*
X105862993Y-62504075D01*
X105735826Y-62470000D01*
X105604174Y-62470000D01*
X105477007Y-62504075D01*
X105420000Y-62536988D01*
X105420000Y-61639364D01*
X105419999Y-61639364D01*
X105206513Y-61696567D01*
X105206507Y-61696570D01*
X104992422Y-61796399D01*
X104992420Y-61796400D01*
X104798926Y-61931886D01*
X104683084Y-62047728D01*
X104621761Y-62081212D01*
X104552069Y-62076228D01*
X104496136Y-62034356D01*
X104479223Y-62003384D01*
X104430889Y-61873796D01*
X104343261Y-61756739D01*
X104226204Y-61669111D01*
X104089203Y-61618011D01*
X104028654Y-61611500D01*
X104028638Y-61611500D01*
X102231362Y-61611500D01*
X102231345Y-61611500D01*
X102170797Y-61618011D01*
X102170795Y-61618011D01*
X102033795Y-61669111D01*
X101916739Y-61756739D01*
X101829111Y-61873795D01*
X101778011Y-62010795D01*
X101778011Y-62010797D01*
X101771500Y-62071345D01*
X100075500Y-62071345D01*
X100075500Y-55459994D01*
X134086673Y-55459994D01*
X134086673Y-55460005D01*
X134105948Y-55692622D01*
X134163251Y-55918907D01*
X134257015Y-56132668D01*
X134384683Y-56328080D01*
X134478073Y-56429528D01*
X134508995Y-56492183D01*
X134501135Y-56561609D01*
X134456988Y-56615764D01*
X134430177Y-56629693D01*
X134357911Y-56656646D01*
X134357906Y-56656649D01*
X134242812Y-56742809D01*
X134242809Y-56742812D01*
X134156649Y-56857906D01*
X134156645Y-56857913D01*
X134106403Y-56992620D01*
X134106401Y-56992627D01*
X134100000Y-57052155D01*
X134100000Y-57750000D01*
X135124722Y-57750000D01*
X135080667Y-57826306D01*
X135050000Y-57940756D01*
X135050000Y-58059244D01*
X135080667Y-58173694D01*
X135124722Y-58250000D01*
X134100000Y-58250000D01*
X134100000Y-58947844D01*
X134106401Y-59007372D01*
X134106403Y-59007379D01*
X134156645Y-59142086D01*
X134156649Y-59142093D01*
X134242809Y-59257187D01*
X134242812Y-59257190D01*
X134357906Y-59343350D01*
X134357913Y-59343354D01*
X134492620Y-59393596D01*
X134492627Y-59393598D01*
X134552155Y-59399999D01*
X134552172Y-59400000D01*
X135250000Y-59400000D01*
X135250000Y-58375277D01*
X135326306Y-58419333D01*
X135440756Y-58450000D01*
X135559244Y-58450000D01*
X135673694Y-58419333D01*
X135750000Y-58375277D01*
X135750000Y-59400000D01*
X136447828Y-59400000D01*
X136447844Y-59399999D01*
X136507372Y-59393598D01*
X136507379Y-59393596D01*
X136642086Y-59343354D01*
X136642093Y-59343350D01*
X136757187Y-59257190D01*
X136757190Y-59257187D01*
X136843350Y-59142093D01*
X136843354Y-59142086D01*
X136893596Y-59007379D01*
X136893598Y-59007372D01*
X136899999Y-58947844D01*
X136900000Y-58947827D01*
X136900000Y-58250000D01*
X135875278Y-58250000D01*
X135919333Y-58173694D01*
X135950000Y-58059244D01*
X135950000Y-57940756D01*
X135919333Y-57826306D01*
X135875278Y-57750000D01*
X136900000Y-57750000D01*
X136900000Y-57052172D01*
X136899999Y-57052155D01*
X136893598Y-56992627D01*
X136893596Y-56992620D01*
X136843354Y-56857913D01*
X136843350Y-56857906D01*
X136757190Y-56742812D01*
X136757187Y-56742809D01*
X136642093Y-56656649D01*
X136642086Y-56656645D01*
X136569823Y-56629693D01*
X136513889Y-56587822D01*
X136489472Y-56522357D01*
X136504324Y-56454084D01*
X136521927Y-56429528D01*
X136555476Y-56393084D01*
X144991500Y-56393084D01*
X144991500Y-56606916D01*
X144995108Y-56629693D01*
X145024951Y-56818117D01*
X145091026Y-57021480D01*
X145091027Y-57021483D01*
X145185277Y-57206456D01*
X145188106Y-57212009D01*
X145313794Y-57385004D01*
X145464996Y-57536206D01*
X145567344Y-57610566D01*
X145621182Y-57649682D01*
X145663847Y-57705012D01*
X145669826Y-57774626D01*
X145637220Y-57836421D01*
X145621182Y-57850318D01*
X145552297Y-57900365D01*
X145464996Y-57963794D01*
X145464994Y-57963796D01*
X145464993Y-57963796D01*
X145313796Y-58114993D01*
X145188106Y-58287990D01*
X145091027Y-58478516D01*
X145091026Y-58478519D01*
X145024951Y-58681882D01*
X145024951Y-58681884D01*
X144991500Y-58893084D01*
X144991500Y-59106916D01*
X144997072Y-59142093D01*
X145024951Y-59318117D01*
X145091026Y-59521480D01*
X145091027Y-59521483D01*
X145150153Y-59637523D01*
X145188106Y-59712009D01*
X145313794Y-59885004D01*
X145313796Y-59885006D01*
X145452070Y-60023280D01*
X145485555Y-60084603D01*
X145480571Y-60154295D01*
X145438699Y-60210228D01*
X145429486Y-60216499D01*
X145281659Y-60307680D01*
X145281655Y-60307683D01*
X145157684Y-60431654D01*
X145065643Y-60580875D01*
X145065641Y-60580880D01*
X145010494Y-60747302D01*
X145010493Y-60747309D01*
X145000000Y-60850013D01*
X145000000Y-61250000D01*
X146070854Y-61250000D01*
X146032370Y-61316657D01*
X146000000Y-61437465D01*
X146000000Y-61562535D01*
X146032370Y-61683343D01*
X146070854Y-61750000D01*
X145000001Y-61750000D01*
X145000001Y-62149986D01*
X145010494Y-62252697D01*
X145065641Y-62419119D01*
X145065643Y-62419124D01*
X145157684Y-62568345D01*
X145281654Y-62692315D01*
X145430875Y-62784356D01*
X145430880Y-62784358D01*
X145597302Y-62839505D01*
X145597309Y-62839506D01*
X145700019Y-62849999D01*
X146224999Y-62849999D01*
X146225000Y-62849998D01*
X146225000Y-61904145D01*
X146291657Y-61942630D01*
X146412465Y-61975000D01*
X146537535Y-61975000D01*
X146658343Y-61942630D01*
X146725000Y-61904145D01*
X146725000Y-62849999D01*
X147249972Y-62849999D01*
X147249986Y-62849998D01*
X147352697Y-62839505D01*
X147519119Y-62784358D01*
X147519124Y-62784356D01*
X147668345Y-62692315D01*
X147792315Y-62568345D01*
X147884356Y-62419124D01*
X147884358Y-62419119D01*
X147939505Y-62252697D01*
X147939506Y-62252690D01*
X147949999Y-62149986D01*
X147950000Y-62149973D01*
X147950000Y-61750000D01*
X146879146Y-61750000D01*
X146917630Y-61683343D01*
X146950000Y-61562535D01*
X146950000Y-61437465D01*
X146917630Y-61316657D01*
X146879146Y-61250000D01*
X147949999Y-61250000D01*
X147949999Y-60850028D01*
X147949998Y-60850013D01*
X147939505Y-60747302D01*
X147884358Y-60580880D01*
X147884356Y-60580875D01*
X147792315Y-60431654D01*
X147668344Y-60307683D01*
X147668340Y-60307680D01*
X147520513Y-60216499D01*
X147473788Y-60164551D01*
X147462567Y-60095589D01*
X147490410Y-60031507D01*
X147497907Y-60023302D01*
X147636206Y-59885004D01*
X147761894Y-59712009D01*
X147858972Y-59521483D01*
X147925049Y-59318116D01*
X147958500Y-59106916D01*
X147958500Y-58893084D01*
X147925049Y-58681884D01*
X147883063Y-58552661D01*
X147858973Y-58478519D01*
X147858972Y-58478516D01*
X147761893Y-58287990D01*
X147750216Y-58271918D01*
X147734291Y-58249999D01*
X152641127Y-58249999D01*
X152641128Y-58250000D01*
X153604314Y-58250000D01*
X153599920Y-58254394D01*
X153547259Y-58345606D01*
X153520000Y-58447339D01*
X153520000Y-58552661D01*
X153547259Y-58654394D01*
X153599920Y-58745606D01*
X153604314Y-58750000D01*
X152641128Y-58750000D01*
X152693730Y-58946317D01*
X152693734Y-58946326D01*
X152789865Y-59152482D01*
X152920342Y-59338820D01*
X153081179Y-59499657D01*
X153267517Y-59630134D01*
X153473673Y-59726265D01*
X153473682Y-59726269D01*
X153669999Y-59778872D01*
X153670000Y-59778871D01*
X153670000Y-58815686D01*
X153674394Y-58820080D01*
X153765606Y-58872741D01*
X153867339Y-58900000D01*
X153972661Y-58900000D01*
X154074394Y-58872741D01*
X154165606Y-58820080D01*
X154170000Y-58815686D01*
X154170000Y-59778872D01*
X154366317Y-59726269D01*
X154366326Y-59726265D01*
X154572482Y-59630134D01*
X154758820Y-59499657D01*
X154919657Y-59338820D01*
X155050134Y-59152482D01*
X155146265Y-58946326D01*
X155146269Y-58946317D01*
X155198872Y-58750000D01*
X154235686Y-58750000D01*
X154240080Y-58745606D01*
X154292741Y-58654394D01*
X154320000Y-58552661D01*
X154320000Y-58499998D01*
X162766502Y-58499998D01*
X162766502Y-58500001D01*
X162786456Y-58728081D01*
X162786457Y-58728089D01*
X162845714Y-58949238D01*
X162845718Y-58949249D01*
X162935643Y-59142093D01*
X162942477Y-59156749D01*
X163073802Y-59344300D01*
X163235700Y-59506198D01*
X163423251Y-59637523D01*
X163548091Y-59695736D01*
X163630750Y-59734281D01*
X163630752Y-59734281D01*
X163630757Y-59734284D01*
X163851913Y-59793543D01*
X164014832Y-59807796D01*
X164079998Y-59813498D01*
X164080000Y-59813498D01*
X164080002Y-59813498D01*
X164137021Y-59808509D01*
X164308087Y-59793543D01*
X164529243Y-59734284D01*
X164736749Y-59637523D01*
X164924300Y-59506198D01*
X165086198Y-59344300D01*
X165217523Y-59156749D01*
X165314284Y-58949243D01*
X165373543Y-58728087D01*
X165393498Y-58500000D01*
X165391618Y-58478517D01*
X165379990Y-58345606D01*
X165373543Y-58271913D01*
X165314284Y-58050757D01*
X165217523Y-57843251D01*
X165086198Y-57655700D01*
X164924300Y-57493802D01*
X164736749Y-57362477D01*
X164736745Y-57362475D01*
X164529249Y-57265718D01*
X164529238Y-57265714D01*
X164308089Y-57206457D01*
X164308081Y-57206456D01*
X164080002Y-57186502D01*
X164079998Y-57186502D01*
X163851918Y-57206456D01*
X163851910Y-57206457D01*
X163630761Y-57265714D01*
X163630750Y-57265718D01*
X163423254Y-57362475D01*
X163423252Y-57362476D01*
X163423251Y-57362477D01*
X163235700Y-57493802D01*
X163235698Y-57493803D01*
X163235695Y-57493806D01*
X163073806Y-57655695D01*
X163073803Y-57655698D01*
X163073802Y-57655700D01*
X163026192Y-57723694D01*
X162942476Y-57843252D01*
X162942475Y-57843254D01*
X162845718Y-58050750D01*
X162845714Y-58050761D01*
X162786457Y-58271910D01*
X162786456Y-58271918D01*
X162766502Y-58499998D01*
X154320000Y-58499998D01*
X154320000Y-58447339D01*
X154292741Y-58345606D01*
X154240080Y-58254394D01*
X154235686Y-58250000D01*
X155198872Y-58250000D01*
X155198872Y-58249999D01*
X155146269Y-58053682D01*
X155146265Y-58053673D01*
X155050134Y-57847517D01*
X154919657Y-57661179D01*
X154758820Y-57500342D01*
X154572482Y-57369865D01*
X154366328Y-57273734D01*
X154170000Y-57221127D01*
X154170000Y-58184314D01*
X154165606Y-58179920D01*
X154074394Y-58127259D01*
X153972661Y-58100000D01*
X153867339Y-58100000D01*
X153765606Y-58127259D01*
X153674394Y-58179920D01*
X153670000Y-58184314D01*
X153670000Y-57221127D01*
X153473671Y-57273734D01*
X153267517Y-57369865D01*
X153081179Y-57500342D01*
X152920342Y-57661179D01*
X152789865Y-57847517D01*
X152693734Y-58053673D01*
X152693730Y-58053682D01*
X152641127Y-58249999D01*
X147734291Y-58249999D01*
X147636206Y-58114996D01*
X147485004Y-57963794D01*
X147453295Y-57940756D01*
X147328818Y-57850318D01*
X147286152Y-57794988D01*
X147280173Y-57725375D01*
X147312779Y-57663580D01*
X147328818Y-57649682D01*
X147379200Y-57613076D01*
X147485004Y-57536206D01*
X147636206Y-57385004D01*
X147761894Y-57212009D01*
X147858972Y-57021483D01*
X147925049Y-56818116D01*
X147958500Y-56606916D01*
X147958500Y-56393084D01*
X147925049Y-56181884D01*
X147858972Y-55978517D01*
X147858972Y-55978516D01*
X147761893Y-55787990D01*
X147692604Y-55692622D01*
X147636206Y-55614996D01*
X147485004Y-55463794D01*
X147312009Y-55338106D01*
X147121483Y-55241027D01*
X147121480Y-55241026D01*
X146918117Y-55174951D01*
X146812516Y-55158225D01*
X146706916Y-55141500D01*
X146243084Y-55141500D01*
X146172684Y-55152650D01*
X146031882Y-55174951D01*
X145828519Y-55241026D01*
X145828516Y-55241027D01*
X145637990Y-55338106D01*
X145464993Y-55463796D01*
X145313796Y-55614993D01*
X145188106Y-55787990D01*
X145091027Y-55978516D01*
X145091026Y-55978519D01*
X145024951Y-56181882D01*
X145024951Y-56181884D01*
X144991500Y-56393084D01*
X136555476Y-56393084D01*
X136615313Y-56328084D01*
X136710830Y-56181884D01*
X136742984Y-56132669D01*
X136836749Y-55918907D01*
X136894051Y-55692626D01*
X136902618Y-55589236D01*
X136913327Y-55460005D01*
X136913327Y-55459994D01*
X136894051Y-55227377D01*
X136894051Y-55227374D01*
X136836749Y-55001093D01*
X136742984Y-54787331D01*
X136615314Y-54591917D01*
X136615313Y-54591915D01*
X136457223Y-54420185D01*
X136457222Y-54420184D01*
X136457220Y-54420182D01*
X136273017Y-54276810D01*
X136273015Y-54276809D01*
X136273014Y-54276808D01*
X136273011Y-54276806D01*
X136067733Y-54165716D01*
X136067730Y-54165715D01*
X136067727Y-54165713D01*
X136067721Y-54165711D01*
X136067719Y-54165710D01*
X135846954Y-54089920D01*
X135674271Y-54061105D01*
X135616712Y-54051500D01*
X135383288Y-54051500D01*
X135337240Y-54059184D01*
X135153045Y-54089920D01*
X134932280Y-54165710D01*
X134932266Y-54165716D01*
X134726988Y-54276806D01*
X134726985Y-54276808D01*
X134542781Y-54420181D01*
X134542776Y-54420185D01*
X134384686Y-54591915D01*
X134257015Y-54787331D01*
X134163251Y-55001092D01*
X134105948Y-55227377D01*
X134086673Y-55459994D01*
X100075500Y-55459994D01*
X100075500Y-48301345D01*
X117437500Y-48301345D01*
X117437500Y-50098654D01*
X117444011Y-50159202D01*
X117444011Y-50159204D01*
X117495111Y-50296204D01*
X117582739Y-50413261D01*
X117699796Y-50500889D01*
X117836799Y-50551989D01*
X117864050Y-50554918D01*
X117897345Y-50558499D01*
X117897362Y-50558500D01*
X119694638Y-50558500D01*
X119694654Y-50558499D01*
X119721692Y-50555591D01*
X119755201Y-50551989D01*
X119892204Y-50500889D01*
X120009261Y-50413261D01*
X120096889Y-50296204D01*
X120142138Y-50174887D01*
X120184009Y-50118956D01*
X120249474Y-50094539D01*
X120317746Y-50109391D01*
X120349545Y-50134236D01*
X120412760Y-50202906D01*
X120590424Y-50341189D01*
X120590425Y-50341189D01*
X120590427Y-50341191D01*
X120650314Y-50373600D01*
X120788426Y-50448342D01*
X121001365Y-50521444D01*
X121223431Y-50558500D01*
X121448569Y-50558500D01*
X121670635Y-50521444D01*
X121883574Y-50448342D01*
X122081576Y-50341189D01*
X122259240Y-50202906D01*
X122380594Y-50071082D01*
X122411715Y-50037276D01*
X122411715Y-50037275D01*
X122411722Y-50037268D01*
X122502193Y-49898790D01*
X122555338Y-49853437D01*
X122624569Y-49844013D01*
X122687905Y-49873515D01*
X122709804Y-49898787D01*
X122800278Y-50037268D01*
X122800283Y-50037273D01*
X122800284Y-50037276D01*
X122926968Y-50174889D01*
X122952760Y-50202906D01*
X123130424Y-50341189D01*
X123130425Y-50341189D01*
X123130427Y-50341191D01*
X123190314Y-50373600D01*
X123328426Y-50448342D01*
X123541365Y-50521444D01*
X123763431Y-50558500D01*
X123988569Y-50558500D01*
X124210635Y-50521444D01*
X124423574Y-50448342D01*
X124621576Y-50341189D01*
X124799240Y-50202906D01*
X124920594Y-50071082D01*
X124951715Y-50037276D01*
X124951715Y-50037275D01*
X124951722Y-50037268D01*
X125045749Y-49893347D01*
X125098894Y-49847994D01*
X125168125Y-49838570D01*
X125231461Y-49868072D01*
X125251130Y-49890048D01*
X125377890Y-50071078D01*
X125544917Y-50238105D01*
X125738421Y-50373600D01*
X125952507Y-50473429D01*
X125952516Y-50473433D01*
X126166000Y-50530634D01*
X126166000Y-49633012D01*
X126223007Y-49665925D01*
X126350174Y-49700000D01*
X126481826Y-49700000D01*
X126608993Y-49665925D01*
X126666000Y-49633012D01*
X126666000Y-50530633D01*
X126879483Y-50473433D01*
X126879492Y-50473429D01*
X127093578Y-50373600D01*
X127287082Y-50238105D01*
X127454105Y-50071082D01*
X127580868Y-49890048D01*
X127635445Y-49846423D01*
X127704944Y-49839231D01*
X127767298Y-49870753D01*
X127786251Y-49893350D01*
X127880276Y-50037265D01*
X127880284Y-50037276D01*
X128006968Y-50174889D01*
X128032760Y-50202906D01*
X128210424Y-50341189D01*
X128210425Y-50341189D01*
X128210427Y-50341191D01*
X128270314Y-50373600D01*
X128408426Y-50448342D01*
X128621365Y-50521444D01*
X128843431Y-50558500D01*
X129068569Y-50558500D01*
X129290635Y-50521444D01*
X129503574Y-50448342D01*
X129701576Y-50341189D01*
X129879240Y-50202906D01*
X130000594Y-50071082D01*
X130031715Y-50037276D01*
X130031715Y-50037275D01*
X130031722Y-50037268D01*
X130122193Y-49898790D01*
X130175338Y-49853437D01*
X130244569Y-49844013D01*
X130307905Y-49873515D01*
X130329804Y-49898787D01*
X130420278Y-50037268D01*
X130420283Y-50037273D01*
X130420284Y-50037276D01*
X130546968Y-50174889D01*
X130572760Y-50202906D01*
X130750424Y-50341189D01*
X130750425Y-50341189D01*
X130750427Y-50341191D01*
X130810314Y-50373600D01*
X130948426Y-50448342D01*
X131161365Y-50521444D01*
X131383431Y-50558500D01*
X131608569Y-50558500D01*
X131830635Y-50521444D01*
X132043574Y-50448342D01*
X132241576Y-50341189D01*
X132419240Y-50202906D01*
X132540594Y-50071082D01*
X132571715Y-50037276D01*
X132571715Y-50037275D01*
X132571722Y-50037268D01*
X132662193Y-49898790D01*
X132715338Y-49853437D01*
X132784569Y-49844013D01*
X132847905Y-49873515D01*
X132869804Y-49898787D01*
X132960278Y-50037268D01*
X132960283Y-50037273D01*
X132960284Y-50037276D01*
X133086968Y-50174889D01*
X133112760Y-50202906D01*
X133290424Y-50341189D01*
X133290425Y-50341189D01*
X133290427Y-50341191D01*
X133350314Y-50373600D01*
X133488426Y-50448342D01*
X133701365Y-50521444D01*
X133923431Y-50558500D01*
X134148569Y-50558500D01*
X134370635Y-50521444D01*
X134583574Y-50448342D01*
X134781576Y-50341189D01*
X134959240Y-50202906D01*
X135080594Y-50071082D01*
X135111715Y-50037276D01*
X135111715Y-50037275D01*
X135111722Y-50037268D01*
X135202193Y-49898790D01*
X135255338Y-49853437D01*
X135324569Y-49844013D01*
X135387905Y-49873515D01*
X135409804Y-49898787D01*
X135500278Y-50037268D01*
X135500283Y-50037273D01*
X135500284Y-50037276D01*
X135626968Y-50174889D01*
X135652760Y-50202906D01*
X135830424Y-50341189D01*
X135830425Y-50341189D01*
X135830427Y-50341191D01*
X135890314Y-50373600D01*
X136028426Y-50448342D01*
X136241365Y-50521444D01*
X136463431Y-50558500D01*
X136688569Y-50558500D01*
X136910635Y-50521444D01*
X137123574Y-50448342D01*
X137321576Y-50341189D01*
X137499240Y-50202906D01*
X137620594Y-50071082D01*
X137651715Y-50037276D01*
X137651715Y-50037275D01*
X137651722Y-50037268D01*
X137742193Y-49898790D01*
X137795338Y-49853437D01*
X137864569Y-49844013D01*
X137927905Y-49873515D01*
X137949804Y-49898787D01*
X138040278Y-50037268D01*
X138040283Y-50037273D01*
X138040284Y-50037276D01*
X138166968Y-50174889D01*
X138192760Y-50202906D01*
X138370424Y-50341189D01*
X138370425Y-50341189D01*
X138370427Y-50341191D01*
X138430314Y-50373600D01*
X138568426Y-50448342D01*
X138781365Y-50521444D01*
X139003431Y-50558500D01*
X139228569Y-50558500D01*
X139450635Y-50521444D01*
X139663574Y-50448342D01*
X139861576Y-50341189D01*
X140039240Y-50202906D01*
X140160594Y-50071082D01*
X140191715Y-50037276D01*
X140191715Y-50037275D01*
X140191722Y-50037268D01*
X140282193Y-49898790D01*
X140335338Y-49853437D01*
X140404569Y-49844013D01*
X140467905Y-49873515D01*
X140489804Y-49898787D01*
X140580278Y-50037268D01*
X140580283Y-50037273D01*
X140580284Y-50037276D01*
X140706968Y-50174889D01*
X140732760Y-50202906D01*
X140910424Y-50341189D01*
X140910425Y-50341189D01*
X140910427Y-50341191D01*
X140970314Y-50373600D01*
X141108426Y-50448342D01*
X141321365Y-50521444D01*
X141543431Y-50558500D01*
X141768569Y-50558500D01*
X141990635Y-50521444D01*
X142203574Y-50448342D01*
X142401576Y-50341189D01*
X142579240Y-50202906D01*
X142700594Y-50071082D01*
X142731715Y-50037276D01*
X142731717Y-50037273D01*
X142731722Y-50037268D01*
X142854860Y-49848791D01*
X142945296Y-49642616D01*
X143000564Y-49424368D01*
X143012309Y-49282635D01*
X143019156Y-49200005D01*
X143019156Y-49199994D01*
X143000565Y-48975640D01*
X143000563Y-48975628D01*
X142945296Y-48757385D01*
X142935071Y-48734075D01*
X142854860Y-48551209D01*
X142838706Y-48526484D01*
X142731723Y-48362734D01*
X142731715Y-48362723D01*
X142675212Y-48301345D01*
X144361500Y-48301345D01*
X144361500Y-50098654D01*
X144368011Y-50159202D01*
X144368011Y-50159204D01*
X144419111Y-50296204D01*
X144506739Y-50413261D01*
X144623796Y-50500889D01*
X144760799Y-50551989D01*
X144788050Y-50554918D01*
X144821345Y-50558499D01*
X144821362Y-50558500D01*
X146618638Y-50558500D01*
X146618654Y-50558499D01*
X146645692Y-50555591D01*
X146679201Y-50551989D01*
X146816204Y-50500889D01*
X146933261Y-50413261D01*
X147020889Y-50296204D01*
X147066138Y-50174887D01*
X147108009Y-50118956D01*
X147173474Y-50094539D01*
X147241746Y-50109391D01*
X147273545Y-50134236D01*
X147336760Y-50202906D01*
X147514424Y-50341189D01*
X147514425Y-50341189D01*
X147514427Y-50341191D01*
X147574314Y-50373600D01*
X147712426Y-50448342D01*
X147925365Y-50521444D01*
X148147431Y-50558500D01*
X148372569Y-50558500D01*
X148594635Y-50521444D01*
X148807574Y-50448342D01*
X149005576Y-50341189D01*
X149183240Y-50202906D01*
X149304594Y-50071082D01*
X149335715Y-50037276D01*
X149335715Y-50037275D01*
X149335722Y-50037268D01*
X149426193Y-49898790D01*
X149479338Y-49853437D01*
X149548569Y-49844013D01*
X149611905Y-49873515D01*
X149633804Y-49898787D01*
X149724278Y-50037268D01*
X149724283Y-50037273D01*
X149724284Y-50037276D01*
X149850968Y-50174889D01*
X149876760Y-50202906D01*
X150054424Y-50341189D01*
X150054425Y-50341189D01*
X150054427Y-50341191D01*
X150114314Y-50373600D01*
X150252426Y-50448342D01*
X150465365Y-50521444D01*
X150687431Y-50558500D01*
X150912569Y-50558500D01*
X151134635Y-50521444D01*
X151347574Y-50448342D01*
X151545576Y-50341189D01*
X151723240Y-50202906D01*
X151844594Y-50071082D01*
X151875715Y-50037276D01*
X151875715Y-50037275D01*
X151875722Y-50037268D01*
X151966193Y-49898790D01*
X152019338Y-49853437D01*
X152088569Y-49844013D01*
X152151905Y-49873515D01*
X152173804Y-49898787D01*
X152264278Y-50037268D01*
X152264283Y-50037273D01*
X152264284Y-50037276D01*
X152390968Y-50174889D01*
X152416760Y-50202906D01*
X152594424Y-50341189D01*
X152594425Y-50341189D01*
X152594427Y-50341191D01*
X152654314Y-50373600D01*
X152792426Y-50448342D01*
X153005365Y-50521444D01*
X153227431Y-50558500D01*
X153452569Y-50558500D01*
X153674635Y-50521444D01*
X153887574Y-50448342D01*
X154085576Y-50341189D01*
X154263240Y-50202906D01*
X154384594Y-50071082D01*
X154415715Y-50037276D01*
X154415715Y-50037275D01*
X154415722Y-50037268D01*
X154506193Y-49898790D01*
X154559338Y-49853437D01*
X154628569Y-49844013D01*
X154691905Y-49873515D01*
X154713804Y-49898787D01*
X154804278Y-50037268D01*
X154804283Y-50037273D01*
X154804284Y-50037276D01*
X154930968Y-50174889D01*
X154956760Y-50202906D01*
X155134424Y-50341189D01*
X155134425Y-50341189D01*
X155134427Y-50341191D01*
X155194314Y-50373600D01*
X155332426Y-50448342D01*
X155545365Y-50521444D01*
X155767431Y-50558500D01*
X155992569Y-50558500D01*
X156214635Y-50521444D01*
X156427574Y-50448342D01*
X156625576Y-50341189D01*
X156803240Y-50202906D01*
X156924594Y-50071082D01*
X156955715Y-50037276D01*
X156955715Y-50037275D01*
X156955722Y-50037268D01*
X157046193Y-49898790D01*
X157099338Y-49853437D01*
X157168569Y-49844013D01*
X157231905Y-49873515D01*
X157253804Y-49898787D01*
X157344278Y-50037268D01*
X157344283Y-50037273D01*
X157344284Y-50037276D01*
X157470968Y-50174889D01*
X157496760Y-50202906D01*
X157674424Y-50341189D01*
X157674425Y-50341189D01*
X157674427Y-50341191D01*
X157734314Y-50373600D01*
X157872426Y-50448342D01*
X158085365Y-50521444D01*
X158307431Y-50558500D01*
X158532569Y-50558500D01*
X158754635Y-50521444D01*
X158967574Y-50448342D01*
X159165576Y-50341189D01*
X159343240Y-50202906D01*
X159464594Y-50071082D01*
X159495715Y-50037276D01*
X159495715Y-50037275D01*
X159495722Y-50037268D01*
X159586193Y-49898790D01*
X159639338Y-49853437D01*
X159708569Y-49844013D01*
X159771905Y-49873515D01*
X159793804Y-49898787D01*
X159884278Y-50037268D01*
X159884283Y-50037273D01*
X159884284Y-50037276D01*
X160010968Y-50174889D01*
X160036760Y-50202906D01*
X160214424Y-50341189D01*
X160214425Y-50341189D01*
X160214427Y-50341191D01*
X160274314Y-50373600D01*
X160412426Y-50448342D01*
X160625365Y-50521444D01*
X160847431Y-50558500D01*
X161072569Y-50558500D01*
X161294635Y-50521444D01*
X161507574Y-50448342D01*
X161705576Y-50341189D01*
X161883240Y-50202906D01*
X162004594Y-50071082D01*
X162035715Y-50037276D01*
X162035715Y-50037275D01*
X162035722Y-50037268D01*
X162126193Y-49898790D01*
X162179338Y-49853437D01*
X162248569Y-49844013D01*
X162311905Y-49873515D01*
X162333804Y-49898787D01*
X162424278Y-50037268D01*
X162424283Y-50037273D01*
X162424284Y-50037276D01*
X162550968Y-50174889D01*
X162576760Y-50202906D01*
X162754424Y-50341189D01*
X162754425Y-50341189D01*
X162754427Y-50341191D01*
X162814314Y-50373600D01*
X162952426Y-50448342D01*
X163165365Y-50521444D01*
X163387431Y-50558500D01*
X163612569Y-50558500D01*
X163834635Y-50521444D01*
X164047574Y-50448342D01*
X164245576Y-50341189D01*
X164423240Y-50202906D01*
X164544594Y-50071082D01*
X164575715Y-50037276D01*
X164575717Y-50037273D01*
X164575722Y-50037268D01*
X164698860Y-49848791D01*
X164789296Y-49642616D01*
X164844564Y-49424368D01*
X164856309Y-49282635D01*
X164863156Y-49200005D01*
X164863156Y-49199994D01*
X164844565Y-48975640D01*
X164844563Y-48975628D01*
X164789296Y-48757385D01*
X164779071Y-48734075D01*
X164698860Y-48551209D01*
X164682706Y-48526484D01*
X164575723Y-48362734D01*
X164575715Y-48362723D01*
X164423243Y-48197097D01*
X164423238Y-48197092D01*
X164245577Y-48058812D01*
X164245572Y-48058808D01*
X164047580Y-47951661D01*
X164047577Y-47951659D01*
X164047574Y-47951658D01*
X164047571Y-47951657D01*
X164047569Y-47951656D01*
X163834637Y-47878556D01*
X163612569Y-47841500D01*
X163387431Y-47841500D01*
X163165362Y-47878556D01*
X162952430Y-47951656D01*
X162952419Y-47951661D01*
X162754427Y-48058808D01*
X162754422Y-48058812D01*
X162576761Y-48197092D01*
X162576756Y-48197097D01*
X162424284Y-48362723D01*
X162424276Y-48362734D01*
X162333808Y-48501206D01*
X162280662Y-48546562D01*
X162211431Y-48555986D01*
X162148095Y-48526484D01*
X162126192Y-48501206D01*
X162035723Y-48362734D01*
X162035715Y-48362723D01*
X161883243Y-48197097D01*
X161883238Y-48197092D01*
X161705577Y-48058812D01*
X161705572Y-48058808D01*
X161507580Y-47951661D01*
X161507577Y-47951659D01*
X161507574Y-47951658D01*
X161507571Y-47951657D01*
X161507569Y-47951656D01*
X161294637Y-47878556D01*
X161072569Y-47841500D01*
X160847431Y-47841500D01*
X160625362Y-47878556D01*
X160412430Y-47951656D01*
X160412419Y-47951661D01*
X160214427Y-48058808D01*
X160214422Y-48058812D01*
X160036761Y-48197092D01*
X160036756Y-48197097D01*
X159884284Y-48362723D01*
X159884276Y-48362734D01*
X159793808Y-48501206D01*
X159740662Y-48546562D01*
X159671431Y-48555986D01*
X159608095Y-48526484D01*
X159586192Y-48501206D01*
X159495723Y-48362734D01*
X159495715Y-48362723D01*
X159343243Y-48197097D01*
X159343238Y-48197092D01*
X159165577Y-48058812D01*
X159165572Y-48058808D01*
X158967580Y-47951661D01*
X158967577Y-47951659D01*
X158967574Y-47951658D01*
X158967571Y-47951657D01*
X158967569Y-47951656D01*
X158754637Y-47878556D01*
X158532569Y-47841500D01*
X158307431Y-47841500D01*
X158085362Y-47878556D01*
X157872430Y-47951656D01*
X157872419Y-47951661D01*
X157674427Y-48058808D01*
X157674422Y-48058812D01*
X157496761Y-48197092D01*
X157496756Y-48197097D01*
X157344284Y-48362723D01*
X157344276Y-48362734D01*
X157253808Y-48501206D01*
X157200662Y-48546562D01*
X157131431Y-48555986D01*
X157068095Y-48526484D01*
X157046192Y-48501206D01*
X156955723Y-48362734D01*
X156955715Y-48362723D01*
X156803243Y-48197097D01*
X156803238Y-48197092D01*
X156625577Y-48058812D01*
X156625572Y-48058808D01*
X156427580Y-47951661D01*
X156427577Y-47951659D01*
X156427574Y-47951658D01*
X156427571Y-47951657D01*
X156427569Y-47951656D01*
X156214637Y-47878556D01*
X155992569Y-47841500D01*
X155767431Y-47841500D01*
X155545362Y-47878556D01*
X155332430Y-47951656D01*
X155332419Y-47951661D01*
X155134427Y-48058808D01*
X155134422Y-48058812D01*
X154956761Y-48197092D01*
X154956756Y-48197097D01*
X154804284Y-48362723D01*
X154804276Y-48362734D01*
X154713808Y-48501206D01*
X154660662Y-48546562D01*
X154591431Y-48555986D01*
X154528095Y-48526484D01*
X154506192Y-48501206D01*
X154415723Y-48362734D01*
X154415715Y-48362723D01*
X154263243Y-48197097D01*
X154263238Y-48197092D01*
X154085577Y-48058812D01*
X154085572Y-48058808D01*
X153887580Y-47951661D01*
X153887577Y-47951659D01*
X153887574Y-47951658D01*
X153887571Y-47951657D01*
X153887569Y-47951656D01*
X153674637Y-47878556D01*
X153452569Y-47841500D01*
X153227431Y-47841500D01*
X153005362Y-47878556D01*
X152792430Y-47951656D01*
X152792419Y-47951661D01*
X152594427Y-48058808D01*
X152594422Y-48058812D01*
X152416761Y-48197092D01*
X152416756Y-48197097D01*
X152264284Y-48362723D01*
X152264276Y-48362734D01*
X152173808Y-48501206D01*
X152120662Y-48546562D01*
X152051431Y-48555986D01*
X151988095Y-48526484D01*
X151966192Y-48501206D01*
X151875723Y-48362734D01*
X151875715Y-48362723D01*
X151723243Y-48197097D01*
X151723238Y-48197092D01*
X151545577Y-48058812D01*
X151545572Y-48058808D01*
X151347580Y-47951661D01*
X151347577Y-47951659D01*
X151347574Y-47951658D01*
X151347571Y-47951657D01*
X151347569Y-47951656D01*
X151134637Y-47878556D01*
X150912569Y-47841500D01*
X150687431Y-47841500D01*
X150465362Y-47878556D01*
X150252430Y-47951656D01*
X150252419Y-47951661D01*
X150054427Y-48058808D01*
X150054422Y-48058812D01*
X149876761Y-48197092D01*
X149876756Y-48197097D01*
X149724284Y-48362723D01*
X149724276Y-48362734D01*
X149633808Y-48501206D01*
X149580662Y-48546562D01*
X149511431Y-48555986D01*
X149448095Y-48526484D01*
X149426192Y-48501206D01*
X149335723Y-48362734D01*
X149335715Y-48362723D01*
X149183243Y-48197097D01*
X149183238Y-48197092D01*
X149005577Y-48058812D01*
X149005572Y-48058808D01*
X148807580Y-47951661D01*
X148807577Y-47951659D01*
X148807574Y-47951658D01*
X148807571Y-47951657D01*
X148807569Y-47951656D01*
X148594637Y-47878556D01*
X148372569Y-47841500D01*
X148147431Y-47841500D01*
X147925362Y-47878556D01*
X147712430Y-47951656D01*
X147712419Y-47951661D01*
X147514427Y-48058808D01*
X147514422Y-48058812D01*
X147336761Y-48197092D01*
X147273548Y-48265760D01*
X147213661Y-48301750D01*
X147143823Y-48299649D01*
X147086207Y-48260124D01*
X147066138Y-48225110D01*
X147020889Y-48103796D01*
X146987214Y-48058812D01*
X146933261Y-47986739D01*
X146816204Y-47899111D01*
X146679203Y-47848011D01*
X146618654Y-47841500D01*
X146618638Y-47841500D01*
X144821362Y-47841500D01*
X144821345Y-47841500D01*
X144760797Y-47848011D01*
X144760795Y-47848011D01*
X144623795Y-47899111D01*
X144506739Y-47986739D01*
X144419111Y-48103795D01*
X144368011Y-48240795D01*
X144368011Y-48240797D01*
X144361500Y-48301345D01*
X142675212Y-48301345D01*
X142579243Y-48197097D01*
X142579238Y-48197092D01*
X142401577Y-48058812D01*
X142401572Y-48058808D01*
X142203580Y-47951661D01*
X142203577Y-47951659D01*
X142203574Y-47951658D01*
X142203571Y-47951657D01*
X142203569Y-47951656D01*
X141990637Y-47878556D01*
X141768569Y-47841500D01*
X141543431Y-47841500D01*
X141321362Y-47878556D01*
X141108430Y-47951656D01*
X141108419Y-47951661D01*
X140910427Y-48058808D01*
X140910422Y-48058812D01*
X140732761Y-48197092D01*
X140732756Y-48197097D01*
X140580284Y-48362723D01*
X140580276Y-48362734D01*
X140489808Y-48501206D01*
X140436662Y-48546562D01*
X140367431Y-48555986D01*
X140304095Y-48526484D01*
X140282192Y-48501206D01*
X140191723Y-48362734D01*
X140191715Y-48362723D01*
X140039243Y-48197097D01*
X140039238Y-48197092D01*
X139861577Y-48058812D01*
X139861572Y-48058808D01*
X139663580Y-47951661D01*
X139663577Y-47951659D01*
X139663574Y-47951658D01*
X139663571Y-47951657D01*
X139663569Y-47951656D01*
X139450637Y-47878556D01*
X139228569Y-47841500D01*
X139003431Y-47841500D01*
X138781362Y-47878556D01*
X138568430Y-47951656D01*
X138568419Y-47951661D01*
X138370427Y-48058808D01*
X138370422Y-48058812D01*
X138192761Y-48197092D01*
X138192756Y-48197097D01*
X138040284Y-48362723D01*
X138040276Y-48362734D01*
X137949808Y-48501206D01*
X137896662Y-48546562D01*
X137827431Y-48555986D01*
X137764095Y-48526484D01*
X137742192Y-48501206D01*
X137651723Y-48362734D01*
X137651715Y-48362723D01*
X137499243Y-48197097D01*
X137499238Y-48197092D01*
X137321577Y-48058812D01*
X137321572Y-48058808D01*
X137123580Y-47951661D01*
X137123577Y-47951659D01*
X137123574Y-47951658D01*
X137123571Y-47951657D01*
X137123569Y-47951656D01*
X136910637Y-47878556D01*
X136688569Y-47841500D01*
X136463431Y-47841500D01*
X136241362Y-47878556D01*
X136028430Y-47951656D01*
X136028419Y-47951661D01*
X135830427Y-48058808D01*
X135830422Y-48058812D01*
X135652761Y-48197092D01*
X135652756Y-48197097D01*
X135500284Y-48362723D01*
X135500276Y-48362734D01*
X135409808Y-48501206D01*
X135356662Y-48546562D01*
X135287431Y-48555986D01*
X135224095Y-48526484D01*
X135202192Y-48501206D01*
X135111723Y-48362734D01*
X135111715Y-48362723D01*
X134959243Y-48197097D01*
X134959238Y-48197092D01*
X134781577Y-48058812D01*
X134781572Y-48058808D01*
X134583580Y-47951661D01*
X134583577Y-47951659D01*
X134583574Y-47951658D01*
X134583571Y-47951657D01*
X134583569Y-47951656D01*
X134370637Y-47878556D01*
X134148569Y-47841500D01*
X133923431Y-47841500D01*
X133701362Y-47878556D01*
X133488430Y-47951656D01*
X133488419Y-47951661D01*
X133290427Y-48058808D01*
X133290422Y-48058812D01*
X133112761Y-48197092D01*
X133112756Y-48197097D01*
X132960284Y-48362723D01*
X132960276Y-48362734D01*
X132869808Y-48501206D01*
X132816662Y-48546562D01*
X132747431Y-48555986D01*
X132684095Y-48526484D01*
X132662192Y-48501206D01*
X132571723Y-48362734D01*
X132571715Y-48362723D01*
X132419243Y-48197097D01*
X132419238Y-48197092D01*
X132241577Y-48058812D01*
X132241572Y-48058808D01*
X132043580Y-47951661D01*
X132043577Y-47951659D01*
X132043574Y-47951658D01*
X132043571Y-47951657D01*
X132043569Y-47951656D01*
X131830637Y-47878556D01*
X131608569Y-47841500D01*
X131383431Y-47841500D01*
X131161362Y-47878556D01*
X130948430Y-47951656D01*
X130948419Y-47951661D01*
X130750427Y-48058808D01*
X130750422Y-48058812D01*
X130572761Y-48197092D01*
X130572756Y-48197097D01*
X130420284Y-48362723D01*
X130420276Y-48362734D01*
X130329808Y-48501206D01*
X130276662Y-48546562D01*
X130207431Y-48555986D01*
X130144095Y-48526484D01*
X130122192Y-48501206D01*
X130031723Y-48362734D01*
X130031715Y-48362723D01*
X129879243Y-48197097D01*
X129879238Y-48197092D01*
X129701577Y-48058812D01*
X129701572Y-48058808D01*
X129503580Y-47951661D01*
X129503577Y-47951659D01*
X129503574Y-47951658D01*
X129503571Y-47951657D01*
X129503569Y-47951656D01*
X129290637Y-47878556D01*
X129068569Y-47841500D01*
X128843431Y-47841500D01*
X128621362Y-47878556D01*
X128408430Y-47951656D01*
X128408419Y-47951661D01*
X128210427Y-48058808D01*
X128210422Y-48058812D01*
X128032761Y-48197092D01*
X128032756Y-48197097D01*
X127880284Y-48362723D01*
X127880276Y-48362734D01*
X127786251Y-48506650D01*
X127733105Y-48552007D01*
X127663873Y-48561430D01*
X127600538Y-48531928D01*
X127580868Y-48509951D01*
X127454113Y-48328926D01*
X127454108Y-48328920D01*
X127287082Y-48161894D01*
X127093578Y-48026399D01*
X126879492Y-47926570D01*
X126879486Y-47926567D01*
X126666000Y-47869364D01*
X126666000Y-48766988D01*
X126608993Y-48734075D01*
X126481826Y-48700000D01*
X126350174Y-48700000D01*
X126223007Y-48734075D01*
X126166000Y-48766988D01*
X126166000Y-47869364D01*
X126165999Y-47869364D01*
X125952513Y-47926567D01*
X125952507Y-47926570D01*
X125738422Y-48026399D01*
X125738420Y-48026400D01*
X125544926Y-48161886D01*
X125544920Y-48161891D01*
X125377891Y-48328920D01*
X125377890Y-48328922D01*
X125251131Y-48509952D01*
X125196554Y-48553577D01*
X125127055Y-48560769D01*
X125064701Y-48529247D01*
X125045752Y-48506656D01*
X124951722Y-48362732D01*
X124951715Y-48362725D01*
X124951715Y-48362723D01*
X124799243Y-48197097D01*
X124799238Y-48197092D01*
X124621577Y-48058812D01*
X124621572Y-48058808D01*
X124423580Y-47951661D01*
X124423577Y-47951659D01*
X124423574Y-47951658D01*
X124423571Y-47951657D01*
X124423569Y-47951656D01*
X124210637Y-47878556D01*
X123988569Y-47841500D01*
X123763431Y-47841500D01*
X123541362Y-47878556D01*
X123328430Y-47951656D01*
X123328419Y-47951661D01*
X123130427Y-48058808D01*
X123130422Y-48058812D01*
X122952761Y-48197092D01*
X122952756Y-48197097D01*
X122800284Y-48362723D01*
X122800276Y-48362734D01*
X122709808Y-48501206D01*
X122656662Y-48546562D01*
X122587431Y-48555986D01*
X122524095Y-48526484D01*
X122502192Y-48501206D01*
X122411723Y-48362734D01*
X122411715Y-48362723D01*
X122259243Y-48197097D01*
X122259238Y-48197092D01*
X122081577Y-48058812D01*
X122081572Y-48058808D01*
X121883580Y-47951661D01*
X121883577Y-47951659D01*
X121883574Y-47951658D01*
X121883571Y-47951657D01*
X121883569Y-47951656D01*
X121670637Y-47878556D01*
X121448569Y-47841500D01*
X121223431Y-47841500D01*
X121001362Y-47878556D01*
X120788430Y-47951656D01*
X120788419Y-47951661D01*
X120590427Y-48058808D01*
X120590422Y-48058812D01*
X120412761Y-48197092D01*
X120349548Y-48265760D01*
X120289661Y-48301750D01*
X120219823Y-48299649D01*
X120162207Y-48260124D01*
X120142138Y-48225110D01*
X120096889Y-48103796D01*
X120063214Y-48058812D01*
X120009261Y-47986739D01*
X119892204Y-47899111D01*
X119755203Y-47848011D01*
X119694654Y-47841500D01*
X119694638Y-47841500D01*
X117897362Y-47841500D01*
X117897345Y-47841500D01*
X117836797Y-47848011D01*
X117836795Y-47848011D01*
X117699795Y-47899111D01*
X117582739Y-47986739D01*
X117495111Y-48103795D01*
X117444011Y-48240795D01*
X117444011Y-48240797D01*
X117437500Y-48301345D01*
X100075500Y-48301345D01*
X100075500Y-47428092D01*
X100076097Y-47415938D01*
X100087494Y-47300222D01*
X100092234Y-47276389D01*
X100124216Y-47170959D01*
X100133508Y-47148526D01*
X100185442Y-47051365D01*
X100198938Y-47031166D01*
X100268827Y-46946006D01*
X100286006Y-46928827D01*
X100371166Y-46858938D01*
X100391365Y-46845442D01*
X100488526Y-46793508D01*
X100510959Y-46784216D01*
X100616389Y-46752234D01*
X100640220Y-46747494D01*
X100755939Y-46736097D01*
X100768093Y-46735500D01*
X100786531Y-46735500D01*
X163417365Y-46735500D01*
X163484404Y-46755185D01*
G37*
%TD.AperFunction*%
%TD*%
M02*
