%TF.GenerationSoftware,KiCad,Pcbnew,8.0.8*%
%TF.CreationDate,2025-03-13T23:14:19-06:00*%
%TF.ProjectId,final_project_payload,66696e61-6c5f-4707-926f-6a6563745f70,rev?*%
%TF.SameCoordinates,Original*%
%TF.FileFunction,Soldermask,Bot*%
%TF.FilePolarity,Negative*%
%FSLAX46Y46*%
G04 Gerber Fmt 4.6, Leading zero omitted, Abs format (unit mm)*
G04 Created by KiCad (PCBNEW 8.0.8) date 2025-03-13 23:14:19*
%MOMM*%
%LPD*%
G01*
G04 APERTURE LIST*
G04 Aperture macros list*
%AMRoundRect*
0 Rectangle with rounded corners*
0 $1 Rounding radius*
0 $2 $3 $4 $5 $6 $7 $8 $9 X,Y pos of 4 corners*
0 Add a 4 corners polygon primitive as box body*
4,1,4,$2,$3,$4,$5,$6,$7,$8,$9,$2,$3,0*
0 Add four circle primitives for the rounded corners*
1,1,$1+$1,$2,$3*
1,1,$1+$1,$4,$5*
1,1,$1+$1,$6,$7*
1,1,$1+$1,$8,$9*
0 Add four rect primitives between the rounded corners*
20,1,$1+$1,$2,$3,$4,$5,0*
20,1,$1+$1,$4,$5,$6,$7,0*
20,1,$1+$1,$6,$7,$8,$9,0*
20,1,$1+$1,$8,$9,$2,$3,0*%
G04 Aperture macros list end*
%ADD10R,1.700000X1.700000*%
%ADD11O,1.700000X1.700000*%
%ADD12C,1.500000*%
%ADD13R,1.500000X1.500000*%
%ADD14C,1.800000*%
%ADD15R,1.800000X1.800000*%
%ADD16O,1.600000X1.600000*%
%ADD17C,1.600000*%
%ADD18C,2.083600*%
%ADD19RoundRect,0.102000X0.939800X0.939800X-0.939800X0.939800X-0.939800X-0.939800X0.939800X-0.939800X0*%
G04 APERTURE END LIST*
D10*
%TO.C,J1*%
X127940000Y-97460000D03*
D11*
X130480000Y-97460000D03*
X133020000Y-97460000D03*
X135560000Y-97460000D03*
X138100000Y-97460000D03*
X140640000Y-97460000D03*
X143180000Y-97460000D03*
X145720000Y-97460000D03*
%TD*%
D10*
%TO.C,J3*%
X150800000Y-97460000D03*
D11*
X153340000Y-97460000D03*
X155880000Y-97460000D03*
X158420000Y-97460000D03*
X160960000Y-97460000D03*
X163500000Y-97460000D03*
%TD*%
D10*
%TO.C,J2*%
X118796000Y-49200000D03*
D11*
X121336000Y-49200000D03*
X123876000Y-49200000D03*
X126416000Y-49200000D03*
X128956000Y-49200000D03*
X131496000Y-49200000D03*
X134036000Y-49200000D03*
X136576000Y-49200000D03*
X139116000Y-49200000D03*
X141656000Y-49200000D03*
%TD*%
D10*
%TO.C,J4*%
X145720000Y-49200000D03*
D11*
X148260000Y-49200000D03*
X150800000Y-49200000D03*
X153340000Y-49200000D03*
X155880000Y-49200000D03*
X158420000Y-49200000D03*
X160960000Y-49200000D03*
X163500000Y-49200000D03*
%TD*%
D12*
%TO.C,U2*%
X104880000Y-94000000D03*
X107420000Y-94000000D03*
X109960000Y-94000000D03*
D13*
X112500000Y-94000000D03*
%TD*%
D14*
%TO.C,D6*%
X159765000Y-85000000D03*
D15*
X157225000Y-85000000D03*
%TD*%
D14*
%TO.C,D5*%
X152040000Y-89500000D03*
D15*
X149500000Y-89500000D03*
%TD*%
D14*
%TO.C,D3*%
X138000000Y-89500000D03*
D15*
X135460000Y-89500000D03*
%TD*%
D11*
%TO.C,J6*%
X163500000Y-58000000D03*
X163500000Y-60540000D03*
X163500000Y-63080000D03*
X163500000Y-65620000D03*
X163500000Y-68160000D03*
X163500000Y-70700000D03*
X163500000Y-73240000D03*
D10*
X163500000Y-75780000D03*
%TD*%
D11*
%TO.C,J5*%
X120120000Y-63000000D03*
X117580000Y-63000000D03*
X115040000Y-63000000D03*
X112500000Y-63000000D03*
X109960000Y-63000000D03*
X107420000Y-63000000D03*
X104880000Y-63000000D03*
D10*
X102340000Y-63000000D03*
%TD*%
D16*
%TO.C,R3*%
X148000000Y-72580000D03*
D17*
X148000000Y-62420000D03*
%TD*%
D14*
%TO.C,D4*%
X145000000Y-89500000D03*
D15*
X142460000Y-89500000D03*
%TD*%
D10*
%TO.C,J7*%
X120000000Y-67880000D03*
D11*
X120000000Y-70420000D03*
X120000000Y-72960000D03*
X120000000Y-75500000D03*
X120000000Y-78040000D03*
X120000000Y-80580000D03*
%TD*%
D18*
%TO.C,U3*%
X115200000Y-68000000D03*
X112660000Y-68000000D03*
X110120000Y-68000000D03*
X107580000Y-68000000D03*
X105040000Y-68000000D03*
D19*
X102500000Y-68000000D03*
%TD*%
D14*
%TO.C,D1*%
X123265000Y-89500000D03*
D15*
X120725000Y-89500000D03*
%TD*%
D16*
%TO.C,R6*%
X159500000Y-72580000D03*
D17*
X159500000Y-62420000D03*
%TD*%
D16*
%TO.C,R2*%
X144000000Y-72500000D03*
D17*
X144000000Y-62340000D03*
%TD*%
D14*
%TO.C,D2*%
X131000000Y-89500000D03*
D15*
X128460000Y-89500000D03*
%TD*%
D16*
%TO.C,R4*%
X152000000Y-72580000D03*
D17*
X152000000Y-62420000D03*
%TD*%
D16*
%TO.C,R1*%
X139500000Y-72580000D03*
D17*
X139500000Y-62420000D03*
%TD*%
D16*
%TO.C,R5*%
X156000000Y-72580000D03*
D17*
X156000000Y-62420000D03*
%TD*%
M02*
