M48
; DRILL file {KiCad 8.0.8} date 2025-03-13T23:14:07-0600
; FORMAT={-:-/ absolute / inch / decimal}
; #@! TF.CreationDate,2025-03-13T23:14:07-06:00
; #@! TF.GenerationSoftware,Kicad,Pcbnew,8.0.8
; #@! TF.FileFunction,Plated,1,2,PTH
FMAT,2
INCH
; #@! TA.AperFunction,Plated,PTH,ComponentDrill
T1C0.0315
; #@! TA.AperFunction,Plated,PTH,ComponentDrill
T2C0.0354
; #@! TA.AperFunction,Plated,PTH,ComponentDrill
T3C0.0394
; #@! TA.AperFunction,Plated,PTH,ComponentDrill
T4C0.0400
%
G90
G05
T1
X4.1291Y-3.7008
X4.2291Y-3.7008
X4.3291Y-3.7008
X4.4291Y-3.7008
X5.4921Y-2.4575
X5.4921Y-2.8575
X5.6693Y-2.4543
X5.6693Y-2.8543
X5.8268Y-2.4575
X5.8268Y-2.8575
X5.9843Y-2.4575
X5.9843Y-2.8575
X6.1417Y-2.4575
X6.1417Y-2.8575
X6.2795Y-2.4575
X6.2795Y-2.8575
T2
X4.753Y-3.5236
X4.853Y-3.5236
X5.0575Y-3.5236
X5.1575Y-3.5236
X5.3331Y-3.5236
X5.4331Y-3.5236
X5.6087Y-3.5236
X5.7087Y-3.5236
X5.8858Y-3.5236
X5.9858Y-3.5236
X6.19Y-3.3465
X6.29Y-3.3465
T3
X4.0291Y-2.4803
X4.1291Y-2.4803
X4.2291Y-2.4803
X4.3291Y-2.4803
X4.4291Y-2.4803
X4.5291Y-2.4803
X4.6291Y-2.4803
X4.677Y-1.937
X4.7244Y-2.6724
X4.7244Y-2.7724
X4.7244Y-2.8724
X4.7244Y-2.9724
X4.7244Y-3.0724
X4.7244Y-3.1724
X4.7291Y-2.4803
X4.777Y-1.937
X4.877Y-1.937
X4.977Y-1.937
X5.037Y-3.837
X5.077Y-1.937
X5.137Y-3.837
X5.177Y-1.937
X5.237Y-3.837
X5.277Y-1.937
X5.337Y-3.837
X5.377Y-1.937
X5.437Y-3.837
X5.477Y-1.937
X5.537Y-3.837
X5.577Y-1.937
X5.637Y-3.837
X5.737Y-1.937
X5.737Y-3.837
X5.837Y-1.937
X5.937Y-1.937
X5.937Y-3.837
X6.037Y-1.937
X6.037Y-3.837
X6.137Y-1.937
X6.137Y-3.837
X6.237Y-1.937
X6.237Y-3.837
X6.337Y-1.937
X6.337Y-3.837
X6.437Y-1.937
X6.437Y-2.2835
X6.437Y-2.3835
X6.437Y-2.4835
X6.437Y-2.5835
X6.437Y-2.6835
X6.437Y-2.7835
X6.437Y-2.8835
X6.437Y-2.9835
X6.437Y-3.837
T4
X4.0354Y-2.6772
X4.1354Y-2.6772
X4.2354Y-2.6772
X4.3354Y-2.6772
X4.4354Y-2.6772
X4.5354Y-2.6772
M30
