%TF.GenerationSoftware,KiCad,Pcbnew,8.0.8*%
%TF.CreationDate,2025-03-13T23:14:18-06:00*%
%TF.ProjectId,final_project_payload,66696e61-6c5f-4707-926f-6a6563745f70,rev?*%
%TF.SameCoordinates,Original*%
%TF.FileFunction,Copper,L1,Top*%
%TF.FilePolarity,Positive*%
%FSLAX46Y46*%
G04 Gerber Fmt 4.6, Leading zero omitted, Abs format (unit mm)*
G04 Created by KiCad (PCBNEW 8.0.8) date 2025-03-13 23:14:18*
%MOMM*%
%LPD*%
G01*
G04 APERTURE LIST*
G04 Aperture macros list*
%AMRoundRect*
0 Rectangle with rounded corners*
0 $1 Rounding radius*
0 $2 $3 $4 $5 $6 $7 $8 $9 X,Y pos of 4 corners*
0 Add a 4 corners polygon primitive as box body*
4,1,4,$2,$3,$4,$5,$6,$7,$8,$9,$2,$3,0*
0 Add four circle primitives for the rounded corners*
1,1,$1+$1,$2,$3*
1,1,$1+$1,$4,$5*
1,1,$1+$1,$6,$7*
1,1,$1+$1,$8,$9*
0 Add four rect primitives between the rounded corners*
20,1,$1+$1,$2,$3,$4,$5,0*
20,1,$1+$1,$4,$5,$6,$7,0*
20,1,$1+$1,$6,$7,$8,$9,0*
20,1,$1+$1,$8,$9,$2,$3,0*%
G04 Aperture macros list end*
%TA.AperFunction,ComponentPad*%
%ADD10R,1.700000X1.700000*%
%TD*%
%TA.AperFunction,ComponentPad*%
%ADD11O,1.700000X1.700000*%
%TD*%
%TA.AperFunction,ComponentPad*%
%ADD12C,1.500000*%
%TD*%
%TA.AperFunction,ComponentPad*%
%ADD13R,1.500000X1.500000*%
%TD*%
%TA.AperFunction,ComponentPad*%
%ADD14C,1.800000*%
%TD*%
%TA.AperFunction,ComponentPad*%
%ADD15R,1.800000X1.800000*%
%TD*%
%TA.AperFunction,SMDPad,CuDef*%
%ADD16RoundRect,0.150000X-0.825000X-0.150000X0.825000X-0.150000X0.825000X0.150000X-0.825000X0.150000X0*%
%TD*%
%TA.AperFunction,ComponentPad*%
%ADD17O,1.600000X1.600000*%
%TD*%
%TA.AperFunction,ComponentPad*%
%ADD18C,1.600000*%
%TD*%
%TA.AperFunction,ComponentPad*%
%ADD19C,1.879600*%
%TD*%
%TA.AperFunction,ComponentPad*%
%ADD20R,1.879600X1.879600*%
%TD*%
%TA.AperFunction,Conductor*%
%ADD21C,0.200000*%
%TD*%
%TA.AperFunction,Conductor*%
%ADD22C,0.250000*%
%TD*%
G04 APERTURE END LIST*
D10*
%TO.P,J1,1,Pin_1*%
%TO.N,unconnected-(J1-Pin_1-Pad1)*%
X127940000Y-97460000D03*
D11*
%TO.P,J1,2,Pin_2*%
%TO.N,/IOREF*%
X130480000Y-97460000D03*
%TO.P,J1,3,Pin_3*%
%TO.N,/~{RESET}*%
X133020000Y-97460000D03*
%TO.P,J1,4,Pin_4*%
%TO.N,+3V3*%
X135560000Y-97460000D03*
%TO.P,J1,5,Pin_5*%
%TO.N,+5V*%
X138100000Y-97460000D03*
%TO.P,J1,6,Pin_6*%
%TO.N,GND*%
X140640000Y-97460000D03*
%TO.P,J1,7,Pin_7*%
X143180000Y-97460000D03*
%TO.P,J1,8,Pin_8*%
%TO.N,VCC*%
X145720000Y-97460000D03*
%TD*%
D10*
%TO.P,J3,1,Pin_1*%
%TO.N,/INTERNAL_TEMP*%
X150800000Y-97460000D03*
D11*
%TO.P,J3,2,Pin_2*%
%TO.N,/A1*%
X153340000Y-97460000D03*
%TO.P,J3,3,Pin_3*%
%TO.N,/A2*%
X155880000Y-97460000D03*
%TO.P,J3,4,Pin_4*%
%TO.N,/A3*%
X158420000Y-97460000D03*
%TO.P,J3,5,Pin_5*%
%TO.N,/SDA{slash}A4*%
X160960000Y-97460000D03*
%TO.P,J3,6,Pin_6*%
%TO.N,/SCL{slash}A5*%
X163500000Y-97460000D03*
%TD*%
D10*
%TO.P,J2,1,Pin_1*%
%TO.N,/I2C_SCL*%
X118796000Y-49200000D03*
D11*
%TO.P,J2,2,Pin_2*%
%TO.N,/I2C_SDA*%
X121336000Y-49200000D03*
%TO.P,J2,3,Pin_3*%
%TO.N,/AREF*%
X123876000Y-49200000D03*
%TO.P,J2,4,Pin_4*%
%TO.N,GND*%
X126416000Y-49200000D03*
%TO.P,J2,5,Pin_5*%
%TO.N,/RTD_CLK*%
X128956000Y-49200000D03*
%TO.P,J2,6,Pin_6*%
%TO.N,/RTD_SDO*%
X131496000Y-49200000D03*
%TO.P,J2,7,Pin_7*%
%TO.N,/RTD_SDI*%
X134036000Y-49200000D03*
%TO.P,J2,8,Pin_8*%
%TO.N,/RTD_CS*%
X136576000Y-49200000D03*
%TO.P,J2,9,Pin_9*%
%TO.N,/led_red*%
X139116000Y-49200000D03*
%TO.P,J2,10,Pin_10*%
%TO.N,/led_blue_1*%
X141656000Y-49200000D03*
%TD*%
D10*
%TO.P,J4,1,Pin_1*%
%TO.N,/led_green*%
X145720000Y-49200000D03*
D11*
%TO.P,J4,2,Pin_2*%
%TO.N,/led_yellow*%
X148260000Y-49200000D03*
%TO.P,J4,3,Pin_3*%
%TO.N,/led_orange*%
X150800000Y-49200000D03*
%TO.P,J4,4,Pin_4*%
%TO.N,/led_blue_2*%
X153340000Y-49200000D03*
%TO.P,J4,5,Pin_5*%
%TO.N,/INT_PIN_2*%
X155880000Y-49200000D03*
%TO.P,J4,6,Pin_6*%
%TO.N,/INT_PIN_1*%
X158420000Y-49200000D03*
%TO.P,J4,7,Pin_7*%
%TO.N,/RX*%
X160960000Y-49200000D03*
%TO.P,J4,8,Pin_8*%
%TO.N,/TX*%
X163500000Y-49200000D03*
%TD*%
D12*
%TO.P,U2,4,GND*%
%TO.N,GND*%
X104880000Y-94000000D03*
%TO.P,U2,3,GND*%
X107420000Y-94000000D03*
%TO.P,U2,2,SDA*%
%TO.N,/I2C_SDA*%
X109960000Y-94000000D03*
D13*
%TO.P,U2,1,VDD*%
%TO.N,+5V*%
X112500000Y-94000000D03*
%TD*%
D14*
%TO.P,D6,2,A*%
%TO.N,Net-(D6-A)*%
X159765000Y-85000000D03*
D15*
%TO.P,D6,1,K*%
%TO.N,GND*%
X157225000Y-85000000D03*
%TD*%
D16*
%TO.P,U4,8,+Vs*%
%TO.N,+5V*%
X166000000Y-90190000D03*
%TO.P,U4,5,~{SHUTDOWN}*%
%TO.N,GND*%
X166000000Y-94000000D03*
%TO.P,U4,4,GND*%
X161050000Y-94000000D03*
%TO.P,U4,1,V_{OUT}*%
%TO.N,/INTERNAL_TEMP*%
X161050000Y-90190000D03*
%TD*%
D14*
%TO.P,D5,2,A*%
%TO.N,Net-(D5-A)*%
X152040000Y-89500000D03*
D15*
%TO.P,D5,1,K*%
%TO.N,GND*%
X149500000Y-89500000D03*
%TD*%
D14*
%TO.P,D3,2,A*%
%TO.N,Net-(D3-A)*%
X138000000Y-89500000D03*
D15*
%TO.P,D3,1,K*%
%TO.N,GND*%
X135460000Y-89500000D03*
%TD*%
D11*
%TO.P,J6,8,Pin_8*%
%TO.N,unconnected-(J6-Pin_8-Pad8)*%
X163500000Y-58000000D03*
%TO.P,J6,7,Pin_7*%
%TO.N,/RTD_CS*%
X163500000Y-60540000D03*
%TO.P,J6,6,Pin_6*%
%TO.N,/RTD_SDI*%
X163500000Y-63080000D03*
%TO.P,J6,5,Pin_5*%
%TO.N,/RTD_SDO*%
X163500000Y-65620000D03*
%TO.P,J6,4,Pin_4*%
%TO.N,/RTD_CLK*%
X163500000Y-68160000D03*
%TO.P,J6,3,Pin_3*%
%TO.N,unconnected-(J6-Pin_3-Pad3)*%
X163500000Y-70700000D03*
%TO.P,J6,2,Pin_2*%
%TO.N,GND*%
X163500000Y-73240000D03*
D10*
%TO.P,J6,1,Pin_1*%
%TO.N,+5V*%
X163500000Y-75780000D03*
%TD*%
D11*
%TO.P,J5,8,Pin_8*%
%TO.N,unconnected-(J5-Pin_8-Pad8)*%
X120120000Y-63000000D03*
%TO.P,J5,7,Pin_7*%
%TO.N,unconnected-(J5-Pin_7-Pad7)*%
X117580000Y-63000000D03*
%TO.P,J5,6,Pin_6*%
%TO.N,unconnected-(J5-Pin_6-Pad6)*%
X115040000Y-63000000D03*
%TO.P,J5,5,Pin_5*%
%TO.N,/I2C_SDA*%
X112500000Y-63000000D03*
%TO.P,J5,4,Pin_4*%
%TO.N,/I2C_SCL*%
X109960000Y-63000000D03*
%TO.P,J5,3,Pin_3*%
%TO.N,GND*%
X107420000Y-63000000D03*
%TO.P,J5,2,Pin_2*%
%TO.N,unconnected-(J5-Pin_2-Pad2)*%
X104880000Y-63000000D03*
D10*
%TO.P,J5,1,Pin_1*%
%TO.N,+5V*%
X102340000Y-63000000D03*
%TD*%
D17*
%TO.P,R3,2*%
%TO.N,Net-(D3-A)*%
X148000000Y-72580000D03*
D18*
%TO.P,R3,1*%
%TO.N,/led_green*%
X148000000Y-62420000D03*
%TD*%
D14*
%TO.P,D4,2,A*%
%TO.N,Net-(D4-A)*%
X145000000Y-89500000D03*
D15*
%TO.P,D4,1,K*%
%TO.N,GND*%
X142460000Y-89500000D03*
%TD*%
D10*
%TO.P,J7,1,Pin_1*%
%TO.N,+5V*%
X120000000Y-67880000D03*
D11*
%TO.P,J7,2,Pin_2*%
%TO.N,unconnected-(J7-Pin_2-Pad2)*%
X120000000Y-70420000D03*
%TO.P,J7,3,Pin_3*%
%TO.N,GND*%
X120000000Y-72960000D03*
%TO.P,J7,4,Pin_4*%
%TO.N,/I2C_SCL*%
X120000000Y-75500000D03*
%TO.P,J7,5,Pin_5*%
%TO.N,/I2C_SDA*%
X120000000Y-78040000D03*
%TO.P,J7,6,Pin_6*%
%TO.N,GND*%
X120000000Y-80580000D03*
%TD*%
D19*
%TO.P,U3,6,GRN*%
%TO.N,unconnected-(U3-GRN-Pad6)*%
X115200000Y-68000000D03*
%TO.P,U3,5,RXI*%
%TO.N,/RX*%
X112660000Y-68000000D03*
%TO.P,U3,4,TXO*%
%TO.N,/TX*%
X110120000Y-68000000D03*
%TO.P,U3,3,VCC*%
%TO.N,+5V*%
X107580000Y-68000000D03*
%TO.P,U3,2,GND*%
%TO.N,GND*%
X105040000Y-68000000D03*
D20*
%TO.P,U3,1,BLK*%
%TO.N,unconnected-(U3-BLK-Pad1)*%
X102500000Y-68000000D03*
%TD*%
D14*
%TO.P,D1,2,A*%
%TO.N,Net-(D1-A)*%
X123265000Y-89500000D03*
D15*
%TO.P,D1,1,K*%
%TO.N,GND*%
X120725000Y-89500000D03*
%TD*%
D17*
%TO.P,R6,2*%
%TO.N,Net-(D6-A)*%
X159500000Y-72580000D03*
D18*
%TO.P,R6,1*%
%TO.N,/led_blue_2*%
X159500000Y-62420000D03*
%TD*%
D17*
%TO.P,R2,2*%
%TO.N,Net-(D2-A)*%
X144000000Y-72500000D03*
D18*
%TO.P,R2,1*%
%TO.N,/led_blue_1*%
X144000000Y-62340000D03*
%TD*%
D14*
%TO.P,D2,2,A*%
%TO.N,Net-(D2-A)*%
X131000000Y-89500000D03*
D15*
%TO.P,D2,1,K*%
%TO.N,GND*%
X128460000Y-89500000D03*
%TD*%
D17*
%TO.P,R4,2*%
%TO.N,Net-(D4-A)*%
X152000000Y-72580000D03*
D18*
%TO.P,R4,1*%
%TO.N,/led_yellow*%
X152000000Y-62420000D03*
%TD*%
D17*
%TO.P,R1,2*%
%TO.N,Net-(D1-A)*%
X139500000Y-72580000D03*
D18*
%TO.P,R1,1*%
%TO.N,/led_red*%
X139500000Y-62420000D03*
%TD*%
D17*
%TO.P,R5,2*%
%TO.N,Net-(D5-A)*%
X156000000Y-72580000D03*
D18*
%TO.P,R5,1*%
%TO.N,/led_orange*%
X156000000Y-62420000D03*
%TD*%
D21*
%TO.N,/I2C_SCL*%
X117500000Y-73000000D02*
X120000000Y-75500000D01*
X118850000Y-66730000D02*
X117500000Y-68080000D01*
X121230000Y-66730000D02*
X118850000Y-66730000D01*
X122425000Y-79781346D02*
X122425000Y-67925000D01*
X122425000Y-67925000D02*
X121230000Y-66730000D01*
X120206346Y-82000000D02*
X122425000Y-79781346D01*
X119793654Y-82000000D02*
X120206346Y-82000000D01*
X106340200Y-68546546D02*
X119793654Y-82000000D01*
X106340200Y-67361240D02*
X106340200Y-68546546D01*
X103128960Y-64150000D02*
X106340200Y-67361240D01*
X101190000Y-61850000D02*
X101190000Y-64150000D01*
X101190000Y-64150000D02*
X103128960Y-64150000D01*
X108810000Y-61850000D02*
X101190000Y-61850000D01*
X109960000Y-63000000D02*
X108810000Y-61850000D01*
X117500000Y-68080000D02*
X117500000Y-73000000D01*
D22*
%TO.N,+5V*%
X120486701Y-79215000D02*
X122000000Y-77701701D01*
X118078604Y-79215000D02*
X120486701Y-79215000D01*
X107580000Y-68000000D02*
X107580000Y-68716396D01*
X107580000Y-68716396D02*
X118078604Y-79215000D01*
X122000000Y-77701701D02*
X122000000Y-75500000D01*
X122000000Y-69880000D02*
X120000000Y-67880000D01*
X122000000Y-75500000D02*
X122000000Y-69880000D01*
X120635000Y-76865000D02*
X122000000Y-75500000D01*
X119461396Y-76865000D02*
X120635000Y-76865000D01*
X116500000Y-73903604D02*
X119461396Y-76865000D01*
X116500000Y-67155000D02*
X116500000Y-73903604D01*
X118500000Y-65155000D02*
X116500000Y-67155000D01*
X120655000Y-65155000D02*
X118500000Y-65155000D01*
X131000000Y-75500000D02*
X120655000Y-65155000D01*
X122500000Y-84000000D02*
X131000000Y-75500000D01*
X122500000Y-85000000D02*
X122500000Y-84000000D01*
X122000000Y-85500000D02*
X122500000Y-85000000D01*
X122000000Y-93000000D02*
X122000000Y-85500000D01*
X121000000Y-94000000D02*
X122000000Y-93000000D01*
X121000000Y-94000000D02*
X131000000Y-94000000D01*
X112500000Y-94000000D02*
X121000000Y-94000000D01*
X131000000Y-94000000D02*
X133000000Y-96000000D01*
D21*
X133000000Y-96000000D02*
X136640000Y-96000000D01*
X132567943Y-96000000D02*
X133000000Y-96000000D01*
D22*
%TO.N,/I2C_SDA*%
X119000000Y-77040000D02*
X120000000Y-78040000D01*
X108855200Y-69355200D02*
X116540000Y-77040000D01*
X108855200Y-67476102D02*
X108855200Y-69355200D01*
X112500000Y-63831302D02*
X108855200Y-67476102D01*
X116540000Y-77040000D02*
X119000000Y-77040000D01*
X112500000Y-63000000D02*
X112500000Y-63831302D01*
%TO.N,Net-(D5-A)*%
X152040000Y-76540000D02*
X156000000Y-72580000D01*
X152040000Y-89500000D02*
X152040000Y-76540000D01*
%TO.N,Net-(D4-A)*%
X145000000Y-79580000D02*
X152000000Y-72580000D01*
X145000000Y-89500000D02*
X145000000Y-79580000D01*
%TO.N,Net-(D3-A)*%
X138000000Y-82580000D02*
X148000000Y-72580000D01*
X138000000Y-89500000D02*
X138000000Y-82580000D01*
%TO.N,Net-(D2-A)*%
X131000000Y-89500000D02*
X131000000Y-85500000D01*
X131000000Y-85500000D02*
X144000000Y-72500000D01*
%TO.N,Net-(D1-A)*%
X139500000Y-73265000D02*
X139500000Y-72580000D01*
X123265000Y-89500000D02*
X139500000Y-73265000D01*
%TO.N,*%
X161040000Y-91460000D02*
X161050000Y-91460000D01*
X161040000Y-91460000D02*
X161000000Y-91500000D01*
D21*
%TO.N,GND*%
X166000000Y-94000000D02*
X161050000Y-94000000D01*
X161050000Y-94000000D02*
X160075001Y-94000000D01*
D22*
X161050000Y-94000000D02*
X161000000Y-94000000D01*
D21*
X157030000Y-97045001D02*
X157030000Y-98295000D01*
X156715000Y-98610000D02*
X144330000Y-98610000D01*
X157030000Y-98295000D02*
X156715000Y-98610000D01*
X160075001Y-94000000D02*
X157030000Y-97045001D01*
X144330000Y-98610000D02*
X143180000Y-97460000D01*
D22*
%TO.N,+5V*%
X102580000Y-63000000D02*
X107580000Y-68000000D01*
X143060000Y-92500000D02*
X154000000Y-92500000D01*
X163500000Y-87690000D02*
X163500000Y-75780000D01*
X154000000Y-92500000D02*
X158810000Y-87690000D01*
X158810000Y-87690000D02*
X163500000Y-87690000D01*
X138100000Y-97460000D02*
X143060000Y-92500000D01*
D21*
X136640000Y-96000000D02*
X138100000Y-97460000D01*
D22*
X166000000Y-90190000D02*
X163500000Y-87690000D01*
X102340000Y-63000000D02*
X102580000Y-63000000D01*
%TO.N,/I2C_SCL*%
X109960000Y-63000000D02*
X109960000Y-58036000D01*
X109960000Y-58036000D02*
X118796000Y-49200000D01*
D21*
%TO.N,/I2C_SDA*%
X114474315Y-48000000D02*
X120136000Y-48000000D01*
X120136000Y-48000000D02*
X121336000Y-49200000D01*
X100790000Y-61684315D02*
X114474315Y-48000000D01*
X109960000Y-94000000D02*
X100790000Y-84830000D01*
D22*
X112500000Y-63000000D02*
X112500000Y-58036000D01*
X112500000Y-58036000D02*
X121336000Y-49200000D01*
D21*
X100790000Y-84830000D02*
X100790000Y-61684315D01*
D22*
%TO.N,Net-(D6-A)*%
X159500000Y-84735000D02*
X159765000Y-85000000D01*
X159500000Y-72580000D02*
X159500000Y-84735000D01*
%TO.N,/RTD_SDI*%
X134036000Y-62172396D02*
X134036000Y-49200000D01*
X137313604Y-65450000D02*
X134036000Y-62172396D01*
X161130000Y-65450000D02*
X137313604Y-65450000D01*
X163500000Y-63080000D02*
X161130000Y-65450000D01*
%TO.N,/RTD_SDO*%
X162650000Y-66470000D02*
X137470000Y-66470000D01*
X131496000Y-60496000D02*
X131496000Y-49200000D01*
X137470000Y-66470000D02*
X131496000Y-60496000D01*
X163500000Y-65620000D02*
X162650000Y-66470000D01*
%TO.N,/RTD_CLK*%
X128956000Y-58592396D02*
X128956000Y-49200000D01*
X163500000Y-68160000D02*
X138523604Y-68160000D01*
X138523604Y-68160000D02*
X128956000Y-58592396D01*
%TO.N,/RTD_CS*%
X137500000Y-65000000D02*
X137500000Y-50124000D01*
X137500000Y-50124000D02*
X136576000Y-49200000D01*
X163500000Y-60540000D02*
X159040000Y-65000000D01*
X159040000Y-65000000D02*
X137500000Y-65000000D01*
%TO.N,/led_blue_1*%
X144000000Y-51544000D02*
X141656000Y-49200000D01*
X144000000Y-62340000D02*
X144000000Y-51544000D01*
%TO.N,/led_red*%
X139500000Y-62420000D02*
X139500000Y-49584000D01*
X139500000Y-49584000D02*
X139116000Y-49200000D01*
%TO.N,/INTERNAL_TEMP*%
X161050000Y-90190000D02*
X158070000Y-90190000D01*
X158070000Y-90190000D02*
X150800000Y-97460000D01*
%TO.N,/RX*%
X159785000Y-48025000D02*
X160960000Y-49200000D01*
X112660000Y-68000000D02*
X115955000Y-64705000D01*
X121762396Y-64705000D02*
X127781000Y-58686396D01*
X128469299Y-48025000D02*
X159785000Y-48025000D01*
X115955000Y-64705000D02*
X121762396Y-64705000D01*
X127781000Y-48713299D02*
X128469299Y-48025000D01*
X127781000Y-58686396D02*
X127781000Y-48713299D01*
%TO.N,/led_green*%
X148000000Y-62420000D02*
X148000000Y-51480000D01*
X148000000Y-51480000D02*
X145720000Y-49200000D01*
%TO.N,/TX*%
X125241000Y-60590000D02*
X125241000Y-48713299D01*
X121576000Y-64255000D02*
X125241000Y-60590000D01*
X161875000Y-47575000D02*
X163500000Y-49200000D01*
X125241000Y-48713299D02*
X126379299Y-47575000D01*
X126379299Y-47575000D02*
X161875000Y-47575000D01*
X110120000Y-68000000D02*
X113865000Y-64255000D01*
X113865000Y-64255000D02*
X121576000Y-64255000D01*
%TO.N,/led_yellow*%
X152000000Y-62420000D02*
X152000000Y-52940000D01*
X152000000Y-52940000D02*
X148260000Y-49200000D01*
%TO.N,/led_blue_2*%
X159500000Y-55360000D02*
X153340000Y-49200000D01*
X159500000Y-62420000D02*
X159500000Y-55360000D01*
%TO.N,/led_orange*%
X156000000Y-54400000D02*
X150800000Y-49200000D01*
X156000000Y-62420000D02*
X156000000Y-54400000D01*
%TO.N,unconnected-(J6-Pin_3-Pad3)*%
X163500000Y-71000000D02*
X163500000Y-70700000D01*
%TD*%
M02*
