%TF.GenerationSoftware,KiCad,Pcbnew,8.0.8*%
%TF.CreationDate,2025-03-13T23:14:19-06:00*%
%TF.ProjectId,final_project_payload,66696e61-6c5f-4707-926f-6a6563745f70,rev?*%
%TF.SameCoordinates,Original*%
%TF.FileFunction,Legend,Top*%
%TF.FilePolarity,Positive*%
%FSLAX46Y46*%
G04 Gerber Fmt 4.6, Leading zero omitted, Abs format (unit mm)*
G04 Created by KiCad (PCBNEW 8.0.8) date 2025-03-13 23:14:19*
%MOMM*%
%LPD*%
G01*
G04 APERTURE LIST*
%ADD10C,0.150000*%
%ADD11C,0.120000*%
%ADD12C,0.200000*%
%ADD13C,0.127000*%
G04 APERTURE END LIST*
D10*
X119000000Y-53000000D02*
X119000000Y-51500000D01*
X119000000Y-59000000D02*
X119000000Y-53000000D01*
X137500000Y-54500000D02*
X165500000Y-54500000D01*
X165500000Y-79500000D01*
X137500000Y-79500000D01*
X137500000Y-54500000D01*
X101000000Y-47500000D02*
X101000000Y-55850000D01*
X101000000Y-47500000D02*
X115000000Y-47500000D01*
X119000000Y-59000000D02*
X119000000Y-60500000D01*
X107478095Y-96854819D02*
X107478095Y-97664342D01*
X107478095Y-97664342D02*
X107525714Y-97759580D01*
X107525714Y-97759580D02*
X107573333Y-97807200D01*
X107573333Y-97807200D02*
X107668571Y-97854819D01*
X107668571Y-97854819D02*
X107859047Y-97854819D01*
X107859047Y-97854819D02*
X107954285Y-97807200D01*
X107954285Y-97807200D02*
X108001904Y-97759580D01*
X108001904Y-97759580D02*
X108049523Y-97664342D01*
X108049523Y-97664342D02*
X108049523Y-96854819D01*
X108478095Y-96950057D02*
X108525714Y-96902438D01*
X108525714Y-96902438D02*
X108620952Y-96854819D01*
X108620952Y-96854819D02*
X108859047Y-96854819D01*
X108859047Y-96854819D02*
X108954285Y-96902438D01*
X108954285Y-96902438D02*
X109001904Y-96950057D01*
X109001904Y-96950057D02*
X109049523Y-97045295D01*
X109049523Y-97045295D02*
X109049523Y-97140533D01*
X109049523Y-97140533D02*
X109001904Y-97283390D01*
X109001904Y-97283390D02*
X108430476Y-97854819D01*
X108430476Y-97854819D02*
X109049523Y-97854819D01*
X157756905Y-81494819D02*
X157756905Y-80494819D01*
X157756905Y-80494819D02*
X157995000Y-80494819D01*
X157995000Y-80494819D02*
X158137857Y-80542438D01*
X158137857Y-80542438D02*
X158233095Y-80637676D01*
X158233095Y-80637676D02*
X158280714Y-80732914D01*
X158280714Y-80732914D02*
X158328333Y-80923390D01*
X158328333Y-80923390D02*
X158328333Y-81066247D01*
X158328333Y-81066247D02*
X158280714Y-81256723D01*
X158280714Y-81256723D02*
X158233095Y-81351961D01*
X158233095Y-81351961D02*
X158137857Y-81447200D01*
X158137857Y-81447200D02*
X157995000Y-81494819D01*
X157995000Y-81494819D02*
X157756905Y-81494819D01*
X159185476Y-80494819D02*
X158995000Y-80494819D01*
X158995000Y-80494819D02*
X158899762Y-80542438D01*
X158899762Y-80542438D02*
X158852143Y-80590057D01*
X158852143Y-80590057D02*
X158756905Y-80732914D01*
X158756905Y-80732914D02*
X158709286Y-80923390D01*
X158709286Y-80923390D02*
X158709286Y-81304342D01*
X158709286Y-81304342D02*
X158756905Y-81399580D01*
X158756905Y-81399580D02*
X158804524Y-81447200D01*
X158804524Y-81447200D02*
X158899762Y-81494819D01*
X158899762Y-81494819D02*
X159090238Y-81494819D01*
X159090238Y-81494819D02*
X159185476Y-81447200D01*
X159185476Y-81447200D02*
X159233095Y-81399580D01*
X159233095Y-81399580D02*
X159280714Y-81304342D01*
X159280714Y-81304342D02*
X159280714Y-81066247D01*
X159280714Y-81066247D02*
X159233095Y-80971009D01*
X159233095Y-80971009D02*
X159185476Y-80923390D01*
X159185476Y-80923390D02*
X159090238Y-80875771D01*
X159090238Y-80875771D02*
X158899762Y-80875771D01*
X158899762Y-80875771D02*
X158804524Y-80923390D01*
X158804524Y-80923390D02*
X158756905Y-80971009D01*
X158756905Y-80971009D02*
X158709286Y-81066247D01*
X162763095Y-88149819D02*
X162763095Y-88959342D01*
X162763095Y-88959342D02*
X162810714Y-89054580D01*
X162810714Y-89054580D02*
X162858333Y-89102200D01*
X162858333Y-89102200D02*
X162953571Y-89149819D01*
X162953571Y-89149819D02*
X163144047Y-89149819D01*
X163144047Y-89149819D02*
X163239285Y-89102200D01*
X163239285Y-89102200D02*
X163286904Y-89054580D01*
X163286904Y-89054580D02*
X163334523Y-88959342D01*
X163334523Y-88959342D02*
X163334523Y-88149819D01*
X164239285Y-88483152D02*
X164239285Y-89149819D01*
X164001190Y-88102200D02*
X163763095Y-88816485D01*
X163763095Y-88816485D02*
X164382142Y-88816485D01*
X150031905Y-85994819D02*
X150031905Y-84994819D01*
X150031905Y-84994819D02*
X150270000Y-84994819D01*
X150270000Y-84994819D02*
X150412857Y-85042438D01*
X150412857Y-85042438D02*
X150508095Y-85137676D01*
X150508095Y-85137676D02*
X150555714Y-85232914D01*
X150555714Y-85232914D02*
X150603333Y-85423390D01*
X150603333Y-85423390D02*
X150603333Y-85566247D01*
X150603333Y-85566247D02*
X150555714Y-85756723D01*
X150555714Y-85756723D02*
X150508095Y-85851961D01*
X150508095Y-85851961D02*
X150412857Y-85947200D01*
X150412857Y-85947200D02*
X150270000Y-85994819D01*
X150270000Y-85994819D02*
X150031905Y-85994819D01*
X151508095Y-84994819D02*
X151031905Y-84994819D01*
X151031905Y-84994819D02*
X150984286Y-85471009D01*
X150984286Y-85471009D02*
X151031905Y-85423390D01*
X151031905Y-85423390D02*
X151127143Y-85375771D01*
X151127143Y-85375771D02*
X151365238Y-85375771D01*
X151365238Y-85375771D02*
X151460476Y-85423390D01*
X151460476Y-85423390D02*
X151508095Y-85471009D01*
X151508095Y-85471009D02*
X151555714Y-85566247D01*
X151555714Y-85566247D02*
X151555714Y-85804342D01*
X151555714Y-85804342D02*
X151508095Y-85899580D01*
X151508095Y-85899580D02*
X151460476Y-85947200D01*
X151460476Y-85947200D02*
X151365238Y-85994819D01*
X151365238Y-85994819D02*
X151127143Y-85994819D01*
X151127143Y-85994819D02*
X151031905Y-85947200D01*
X151031905Y-85947200D02*
X150984286Y-85899580D01*
X135991905Y-85994819D02*
X135991905Y-84994819D01*
X135991905Y-84994819D02*
X136230000Y-84994819D01*
X136230000Y-84994819D02*
X136372857Y-85042438D01*
X136372857Y-85042438D02*
X136468095Y-85137676D01*
X136468095Y-85137676D02*
X136515714Y-85232914D01*
X136515714Y-85232914D02*
X136563333Y-85423390D01*
X136563333Y-85423390D02*
X136563333Y-85566247D01*
X136563333Y-85566247D02*
X136515714Y-85756723D01*
X136515714Y-85756723D02*
X136468095Y-85851961D01*
X136468095Y-85851961D02*
X136372857Y-85947200D01*
X136372857Y-85947200D02*
X136230000Y-85994819D01*
X136230000Y-85994819D02*
X135991905Y-85994819D01*
X136896667Y-84994819D02*
X137515714Y-84994819D01*
X137515714Y-84994819D02*
X137182381Y-85375771D01*
X137182381Y-85375771D02*
X137325238Y-85375771D01*
X137325238Y-85375771D02*
X137420476Y-85423390D01*
X137420476Y-85423390D02*
X137468095Y-85471009D01*
X137468095Y-85471009D02*
X137515714Y-85566247D01*
X137515714Y-85566247D02*
X137515714Y-85804342D01*
X137515714Y-85804342D02*
X137468095Y-85899580D01*
X137468095Y-85899580D02*
X137420476Y-85947200D01*
X137420476Y-85947200D02*
X137325238Y-85994819D01*
X137325238Y-85994819D02*
X137039524Y-85994819D01*
X137039524Y-85994819D02*
X136944286Y-85947200D01*
X136944286Y-85947200D02*
X136896667Y-85899580D01*
X163166666Y-78004819D02*
X163166666Y-78719104D01*
X163166666Y-78719104D02*
X163119047Y-78861961D01*
X163119047Y-78861961D02*
X163023809Y-78957200D01*
X163023809Y-78957200D02*
X162880952Y-79004819D01*
X162880952Y-79004819D02*
X162785714Y-79004819D01*
X164071428Y-78004819D02*
X163880952Y-78004819D01*
X163880952Y-78004819D02*
X163785714Y-78052438D01*
X163785714Y-78052438D02*
X163738095Y-78100057D01*
X163738095Y-78100057D02*
X163642857Y-78242914D01*
X163642857Y-78242914D02*
X163595238Y-78433390D01*
X163595238Y-78433390D02*
X163595238Y-78814342D01*
X163595238Y-78814342D02*
X163642857Y-78909580D01*
X163642857Y-78909580D02*
X163690476Y-78957200D01*
X163690476Y-78957200D02*
X163785714Y-79004819D01*
X163785714Y-79004819D02*
X163976190Y-79004819D01*
X163976190Y-79004819D02*
X164071428Y-78957200D01*
X164071428Y-78957200D02*
X164119047Y-78909580D01*
X164119047Y-78909580D02*
X164166666Y-78814342D01*
X164166666Y-78814342D02*
X164166666Y-78576247D01*
X164166666Y-78576247D02*
X164119047Y-78481009D01*
X164119047Y-78481009D02*
X164071428Y-78433390D01*
X164071428Y-78433390D02*
X163976190Y-78385771D01*
X163976190Y-78385771D02*
X163785714Y-78385771D01*
X163785714Y-78385771D02*
X163690476Y-78433390D01*
X163690476Y-78433390D02*
X163642857Y-78481009D01*
X163642857Y-78481009D02*
X163595238Y-78576247D01*
X99024819Y-63333333D02*
X99739104Y-63333333D01*
X99739104Y-63333333D02*
X99881961Y-63380952D01*
X99881961Y-63380952D02*
X99977200Y-63476190D01*
X99977200Y-63476190D02*
X100024819Y-63619047D01*
X100024819Y-63619047D02*
X100024819Y-63714285D01*
X99024819Y-62380952D02*
X99024819Y-62857142D01*
X99024819Y-62857142D02*
X99501009Y-62904761D01*
X99501009Y-62904761D02*
X99453390Y-62857142D01*
X99453390Y-62857142D02*
X99405771Y-62761904D01*
X99405771Y-62761904D02*
X99405771Y-62523809D01*
X99405771Y-62523809D02*
X99453390Y-62428571D01*
X99453390Y-62428571D02*
X99501009Y-62380952D01*
X99501009Y-62380952D02*
X99596247Y-62333333D01*
X99596247Y-62333333D02*
X99834342Y-62333333D01*
X99834342Y-62333333D02*
X99929580Y-62380952D01*
X99929580Y-62380952D02*
X99977200Y-62428571D01*
X99977200Y-62428571D02*
X100024819Y-62523809D01*
X100024819Y-62523809D02*
X100024819Y-62761904D01*
X100024819Y-62761904D02*
X99977200Y-62857142D01*
X99977200Y-62857142D02*
X99929580Y-62904761D01*
X142991905Y-85994819D02*
X142991905Y-84994819D01*
X142991905Y-84994819D02*
X143230000Y-84994819D01*
X143230000Y-84994819D02*
X143372857Y-85042438D01*
X143372857Y-85042438D02*
X143468095Y-85137676D01*
X143468095Y-85137676D02*
X143515714Y-85232914D01*
X143515714Y-85232914D02*
X143563333Y-85423390D01*
X143563333Y-85423390D02*
X143563333Y-85566247D01*
X143563333Y-85566247D02*
X143515714Y-85756723D01*
X143515714Y-85756723D02*
X143468095Y-85851961D01*
X143468095Y-85851961D02*
X143372857Y-85947200D01*
X143372857Y-85947200D02*
X143230000Y-85994819D01*
X143230000Y-85994819D02*
X142991905Y-85994819D01*
X144420476Y-85328152D02*
X144420476Y-85994819D01*
X144182381Y-84947200D02*
X143944286Y-85661485D01*
X143944286Y-85661485D02*
X144563333Y-85661485D01*
X119666666Y-64564819D02*
X119666666Y-65279104D01*
X119666666Y-65279104D02*
X119619047Y-65421961D01*
X119619047Y-65421961D02*
X119523809Y-65517200D01*
X119523809Y-65517200D02*
X119380952Y-65564819D01*
X119380952Y-65564819D02*
X119285714Y-65564819D01*
X120047619Y-64564819D02*
X120714285Y-64564819D01*
X120714285Y-64564819D02*
X120285714Y-65564819D01*
X112783095Y-87119819D02*
X112783095Y-87929342D01*
X112783095Y-87929342D02*
X112830714Y-88024580D01*
X112830714Y-88024580D02*
X112878333Y-88072200D01*
X112878333Y-88072200D02*
X112973571Y-88119819D01*
X112973571Y-88119819D02*
X113164047Y-88119819D01*
X113164047Y-88119819D02*
X113259285Y-88072200D01*
X113259285Y-88072200D02*
X113306904Y-88024580D01*
X113306904Y-88024580D02*
X113354523Y-87929342D01*
X113354523Y-87929342D02*
X113354523Y-87119819D01*
X113735476Y-87119819D02*
X114354523Y-87119819D01*
X114354523Y-87119819D02*
X114021190Y-87500771D01*
X114021190Y-87500771D02*
X114164047Y-87500771D01*
X114164047Y-87500771D02*
X114259285Y-87548390D01*
X114259285Y-87548390D02*
X114306904Y-87596009D01*
X114306904Y-87596009D02*
X114354523Y-87691247D01*
X114354523Y-87691247D02*
X114354523Y-87929342D01*
X114354523Y-87929342D02*
X114306904Y-88024580D01*
X114306904Y-88024580D02*
X114259285Y-88072200D01*
X114259285Y-88072200D02*
X114164047Y-88119819D01*
X114164047Y-88119819D02*
X113878333Y-88119819D01*
X113878333Y-88119819D02*
X113783095Y-88072200D01*
X113783095Y-88072200D02*
X113735476Y-88024580D01*
X121256905Y-85994819D02*
X121256905Y-84994819D01*
X121256905Y-84994819D02*
X121495000Y-84994819D01*
X121495000Y-84994819D02*
X121637857Y-85042438D01*
X121637857Y-85042438D02*
X121733095Y-85137676D01*
X121733095Y-85137676D02*
X121780714Y-85232914D01*
X121780714Y-85232914D02*
X121828333Y-85423390D01*
X121828333Y-85423390D02*
X121828333Y-85566247D01*
X121828333Y-85566247D02*
X121780714Y-85756723D01*
X121780714Y-85756723D02*
X121733095Y-85851961D01*
X121733095Y-85851961D02*
X121637857Y-85947200D01*
X121637857Y-85947200D02*
X121495000Y-85994819D01*
X121495000Y-85994819D02*
X121256905Y-85994819D01*
X122780714Y-85994819D02*
X122209286Y-85994819D01*
X122495000Y-85994819D02*
X122495000Y-84994819D01*
X122495000Y-84994819D02*
X122399762Y-85137676D01*
X122399762Y-85137676D02*
X122304524Y-85232914D01*
X122304524Y-85232914D02*
X122209286Y-85280533D01*
X128991905Y-85994819D02*
X128991905Y-84994819D01*
X128991905Y-84994819D02*
X129230000Y-84994819D01*
X129230000Y-84994819D02*
X129372857Y-85042438D01*
X129372857Y-85042438D02*
X129468095Y-85137676D01*
X129468095Y-85137676D02*
X129515714Y-85232914D01*
X129515714Y-85232914D02*
X129563333Y-85423390D01*
X129563333Y-85423390D02*
X129563333Y-85566247D01*
X129563333Y-85566247D02*
X129515714Y-85756723D01*
X129515714Y-85756723D02*
X129468095Y-85851961D01*
X129468095Y-85851961D02*
X129372857Y-85947200D01*
X129372857Y-85947200D02*
X129230000Y-85994819D01*
X129230000Y-85994819D02*
X128991905Y-85994819D01*
X129944286Y-85090057D02*
X129991905Y-85042438D01*
X129991905Y-85042438D02*
X130087143Y-84994819D01*
X130087143Y-84994819D02*
X130325238Y-84994819D01*
X130325238Y-84994819D02*
X130420476Y-85042438D01*
X130420476Y-85042438D02*
X130468095Y-85090057D01*
X130468095Y-85090057D02*
X130515714Y-85185295D01*
X130515714Y-85185295D02*
X130515714Y-85280533D01*
X130515714Y-85280533D02*
X130468095Y-85423390D01*
X130468095Y-85423390D02*
X129896667Y-85994819D01*
X129896667Y-85994819D02*
X130515714Y-85994819D01*
D11*
%TO.C,J1*%
X126610000Y-96130000D02*
X127940000Y-96130000D01*
X126610000Y-97460000D02*
X126610000Y-96130000D01*
X129210000Y-96130000D02*
X147050000Y-96130000D01*
X129210000Y-98790000D02*
X129210000Y-96130000D01*
X129210000Y-98790000D02*
X147050000Y-98790000D01*
X147050000Y-98790000D02*
X147050000Y-96130000D01*
%TO.C,J3*%
X149470000Y-96130000D02*
X150800000Y-96130000D01*
X149470000Y-97460000D02*
X149470000Y-96130000D01*
X152070000Y-96130000D02*
X164830000Y-96130000D01*
X152070000Y-98790000D02*
X152070000Y-96130000D01*
X152070000Y-98790000D02*
X164830000Y-98790000D01*
X164830000Y-98790000D02*
X164830000Y-96130000D01*
%TO.C,J2*%
X117466000Y-47870000D02*
X118796000Y-47870000D01*
X117466000Y-49200000D02*
X117466000Y-47870000D01*
X120066000Y-47870000D02*
X142986000Y-47870000D01*
X120066000Y-50530000D02*
X120066000Y-47870000D01*
X120066000Y-50530000D02*
X142986000Y-50530000D01*
X142986000Y-50530000D02*
X142986000Y-47870000D01*
%TO.C,J4*%
X144390000Y-47870000D02*
X145720000Y-47870000D01*
X144390000Y-49200000D02*
X144390000Y-47870000D01*
X146990000Y-47870000D02*
X164830000Y-47870000D01*
X146990000Y-50530000D02*
X146990000Y-47870000D01*
X146990000Y-50530000D02*
X164830000Y-50530000D01*
X164830000Y-50530000D02*
X164830000Y-47870000D01*
%TO.C,U2*%
X116740000Y-96850000D02*
X115470000Y-96850000D01*
X116740000Y-95580000D02*
X116740000Y-96850000D01*
X116490000Y-96600000D02*
X100890000Y-96600000D01*
X116490000Y-88600000D02*
X116490000Y-96600000D01*
X100890000Y-96600000D02*
X100890000Y-88600000D01*
X100890000Y-88600000D02*
X116490000Y-88600000D01*
%TO.C,D6*%
X160995000Y-85000000D02*
G75*
G02*
X155995000Y-85000000I-2500000J0D01*
G01*
X155995000Y-85000000D02*
G75*
G02*
X160995000Y-85000000I2500000J0D01*
G01*
X161485000Y-85000048D02*
G75*
G02*
X155935000Y-86544830I-2990000J48D01*
G01*
X155935000Y-83455170D02*
G75*
G02*
X161485000Y-84999952I2560000J-1544830D01*
G01*
X155935000Y-83455000D02*
X155935000Y-86545000D01*
%TO.C,U4*%
X160825000Y-89630000D02*
X160585000Y-89300000D01*
X161065000Y-89300000D01*
X160825000Y-89630000D01*
G36*
X160825000Y-89630000D02*
G01*
X160585000Y-89300000D01*
X161065000Y-89300000D01*
X160825000Y-89630000D01*
G37*
X163525000Y-94655000D02*
X165475000Y-94655000D01*
X163525000Y-94655000D02*
X161575000Y-94655000D01*
X163525000Y-89535000D02*
X165475000Y-89535000D01*
X163525000Y-89535000D02*
X161575000Y-89535000D01*
%TO.C,D5*%
X153270000Y-89500000D02*
G75*
G02*
X148270000Y-89500000I-2500000J0D01*
G01*
X148270000Y-89500000D02*
G75*
G02*
X153270000Y-89500000I2500000J0D01*
G01*
X153760000Y-89500048D02*
G75*
G02*
X148210000Y-91044830I-2990000J48D01*
G01*
X148210000Y-87955170D02*
G75*
G02*
X153760000Y-89499952I2560000J-1544830D01*
G01*
X148210000Y-87955000D02*
X148210000Y-91045000D01*
%TO.C,D3*%
X139230000Y-89500000D02*
G75*
G02*
X134230000Y-89500000I-2500000J0D01*
G01*
X134230000Y-89500000D02*
G75*
G02*
X139230000Y-89500000I2500000J0D01*
G01*
X139720000Y-89500048D02*
G75*
G02*
X134170000Y-91044830I-2990000J48D01*
G01*
X134170000Y-87955170D02*
G75*
G02*
X139720000Y-89499952I2560000J-1544830D01*
G01*
X134170000Y-87955000D02*
X134170000Y-91045000D01*
%TO.C,J6*%
X164830000Y-74510000D02*
X164830000Y-56670000D01*
X164830000Y-74510000D02*
X162170000Y-74510000D01*
X164830000Y-56670000D02*
X162170000Y-56670000D01*
X163500000Y-77110000D02*
X162170000Y-77110000D01*
X162170000Y-77110000D02*
X162170000Y-75780000D01*
X162170000Y-74510000D02*
X162170000Y-56670000D01*
%TO.C,J5*%
X121450000Y-64330000D02*
X121450000Y-61670000D01*
X103610000Y-64330000D02*
X121450000Y-64330000D01*
X103610000Y-64330000D02*
X103610000Y-61670000D01*
X103610000Y-61670000D02*
X121450000Y-61670000D01*
X101010000Y-63000000D02*
X101010000Y-61670000D01*
X101010000Y-61670000D02*
X102340000Y-61670000D01*
%TO.C,R3*%
X149370000Y-70770000D02*
X149370000Y-64230000D01*
X149370000Y-64230000D02*
X146630000Y-64230000D01*
X148000000Y-71540000D02*
X148000000Y-70770000D01*
X148000000Y-63460000D02*
X148000000Y-64230000D01*
X146630000Y-70770000D02*
X149370000Y-70770000D01*
X146630000Y-64230000D02*
X146630000Y-70770000D01*
%TO.C,D4*%
X146230000Y-89500000D02*
G75*
G02*
X141230000Y-89500000I-2500000J0D01*
G01*
X141230000Y-89500000D02*
G75*
G02*
X146230000Y-89500000I2500000J0D01*
G01*
X146720000Y-89500048D02*
G75*
G02*
X141170000Y-91044830I-2990000J48D01*
G01*
X141170000Y-87955170D02*
G75*
G02*
X146720000Y-89499952I2560000J-1544830D01*
G01*
X141170000Y-87955000D02*
X141170000Y-91045000D01*
%TO.C,J7*%
X118670000Y-69150000D02*
X118670000Y-81910000D01*
X118670000Y-69150000D02*
X121330000Y-69150000D01*
X118670000Y-81910000D02*
X121330000Y-81910000D01*
X120000000Y-66550000D02*
X121330000Y-66550000D01*
X121330000Y-66550000D02*
X121330000Y-67880000D01*
X121330000Y-69150000D02*
X121330000Y-81910000D01*
D12*
%TO.C,U3*%
X100580000Y-68000000D02*
G75*
G02*
X100380000Y-68000000I-100000J0D01*
G01*
X100380000Y-68000000D02*
G75*
G02*
X100580000Y-68000000I100000J0D01*
G01*
D13*
X116470000Y-85780000D02*
X101230000Y-85780000D01*
X116470000Y-66730000D02*
X116470000Y-85780000D01*
X101230000Y-85780000D02*
X101230000Y-66730000D01*
X101230000Y-66730000D02*
X116470000Y-66730000D01*
D11*
%TO.C,D1*%
X124495000Y-89500000D02*
G75*
G02*
X119495000Y-89500000I-2500000J0D01*
G01*
X119495000Y-89500000D02*
G75*
G02*
X124495000Y-89500000I2500000J0D01*
G01*
X124985000Y-89500048D02*
G75*
G02*
X119435000Y-91044830I-2990000J48D01*
G01*
X119435000Y-87955170D02*
G75*
G02*
X124985000Y-89499952I2560000J-1544830D01*
G01*
X119435000Y-87955000D02*
X119435000Y-91045000D01*
%TO.C,R6*%
X160870000Y-70770000D02*
X160870000Y-64230000D01*
X160870000Y-64230000D02*
X158130000Y-64230000D01*
X159500000Y-71540000D02*
X159500000Y-70770000D01*
X159500000Y-63460000D02*
X159500000Y-64230000D01*
X158130000Y-70770000D02*
X160870000Y-70770000D01*
X158130000Y-64230000D02*
X158130000Y-70770000D01*
%TO.C,R2*%
X145370000Y-70690000D02*
X145370000Y-64150000D01*
X145370000Y-64150000D02*
X142630000Y-64150000D01*
X144000000Y-71460000D02*
X144000000Y-70690000D01*
X144000000Y-63380000D02*
X144000000Y-64150000D01*
X142630000Y-70690000D02*
X145370000Y-70690000D01*
X142630000Y-64150000D02*
X142630000Y-70690000D01*
%TO.C,D2*%
X132230000Y-89500000D02*
G75*
G02*
X127230000Y-89500000I-2500000J0D01*
G01*
X127230000Y-89500000D02*
G75*
G02*
X132230000Y-89500000I2500000J0D01*
G01*
X132720000Y-89500048D02*
G75*
G02*
X127170000Y-91044830I-2990000J48D01*
G01*
X127170000Y-87955170D02*
G75*
G02*
X132720000Y-89499952I2560000J-1544830D01*
G01*
X127170000Y-87955000D02*
X127170000Y-91045000D01*
%TO.C,R4*%
X153370000Y-70770000D02*
X153370000Y-64230000D01*
X153370000Y-64230000D02*
X150630000Y-64230000D01*
X152000000Y-71540000D02*
X152000000Y-70770000D01*
X152000000Y-63460000D02*
X152000000Y-64230000D01*
X150630000Y-70770000D02*
X153370000Y-70770000D01*
X150630000Y-64230000D02*
X150630000Y-70770000D01*
%TO.C,R1*%
X140870000Y-70770000D02*
X140870000Y-64230000D01*
X140870000Y-64230000D02*
X138130000Y-64230000D01*
X139500000Y-71540000D02*
X139500000Y-70770000D01*
X139500000Y-63460000D02*
X139500000Y-64230000D01*
X138130000Y-70770000D02*
X140870000Y-70770000D01*
X138130000Y-64230000D02*
X138130000Y-70770000D01*
%TO.C,R5*%
X157370000Y-70770000D02*
X157370000Y-64230000D01*
X157370000Y-64230000D02*
X154630000Y-64230000D01*
X156000000Y-71540000D02*
X156000000Y-70770000D01*
X156000000Y-63460000D02*
X156000000Y-64230000D01*
X154630000Y-70770000D02*
X157370000Y-70770000D01*
X154630000Y-64230000D02*
X154630000Y-70770000D01*
%TD*%
M02*
